M48
;GenerationSoftware,Autodesk,EAGLE,9.7.0*%
;CreationDate,2023-03-29T18:33:15Z*%
FMAT,2
ICI,OFF
METRIC,TZ,000.000
T7C0.406
T6C1.000
T5C1.016
T4C1.020
T3C1.270
T2C3.000
T1C3.277
%
G90
M71
T1
X154940Y88900
X154940Y30480
X38100Y30480
X38100Y88900
T2
X177546Y91743
X202946Y91743
X177546Y75741
X202946Y75741
T3
X21264Y15700
X55928Y99242
X187960Y95504
X97838Y99242
X190500Y95504
X193040Y95504
X78898Y99242
X187960Y79502
X190500Y79502
X193040Y79502
X36988Y99242
X27988Y99242
X69898Y99242
X134778Y99242
X153993Y60514
X153993Y45514
X92868Y99242
X83868Y99242
X106838Y99242
X18192Y99242
X120808Y99242
X111808Y99242
X64928Y99242
X50958Y99242
X9580Y6700
X9580Y15700
X9192Y99242
X41958Y99242
X21264Y6700
X125778Y99242
T4
X15192Y97282
X12192Y97282
X72898Y97282
X30988Y97282
X47958Y97282
X44958Y97282
X61928Y97282
X58928Y97282
X8890Y58420
X75898Y97282
X11430Y60960
X8890Y60960
X7620Y9700
X155953Y57514
X155953Y54514
X155953Y51514
X219964Y24130
X222504Y24130
X219964Y21590
X222504Y21590
X219964Y19050
X222504Y19050
X219964Y16510
X222504Y16510
X219964Y13970
X222504Y13970
X7620Y12700
X19304Y9700
X89868Y97282
X86868Y97282
X19304Y12700
X222504Y51054
X103838Y97282
X100838Y97282
X219964Y48514
X222504Y48514
X117808Y97282
X114808Y97282
X219964Y45974
X222504Y45974
X219964Y67564
X222504Y67564
X33988Y97282
X219964Y65024
X222504Y65024
X219964Y62484
X155953Y48514
X11430Y58420
X8890Y55880
X11430Y55880
X128778Y97282
X131778Y97282
X219964Y51054
X222504Y62484
T5
X107458Y56551
X109998Y56551
X112538Y56551
X115078Y56551
X117618Y56551
X99838Y56551
X97298Y8291
X99838Y8291
X102378Y8291
X104918Y8291
X107458Y8291
X94758Y8291
X75454Y8291
X88154Y8291
X90694Y8291
X145558Y18451
X143018Y18451
X145558Y15911
X143018Y15911
X145558Y13371
X143018Y13371
X145558Y10831
X143018Y10831
X92218Y56551
X94758Y56551
X89678Y56551
X132858Y56551
X102378Y56551
X137938Y56551
X140478Y56551
X143018Y20991
X145558Y20991
X85614Y8291
X77994Y8291
X135398Y56551
X220980Y110490
X220980Y107950
X220980Y105410
X190500Y110490
X190500Y107950
X190500Y105410
X160020Y110490
X160020Y107950
X160020Y105410
X129540Y110490
X129540Y107950
X129540Y105410
X99060Y110490
X99060Y107950
X99060Y105410
X68580Y110490
X68580Y107950
X68580Y105410
X38100Y110490
X38100Y107950
X38100Y105410
X7620Y110490
X7620Y107950
X7620Y105410
X22606Y40640
X20066Y40640
X17526Y40640
X125238Y56551
X127778Y56551
X130318Y56551
X122698Y56551
X132858Y8291
X135398Y8291
X104918Y56551
T6
X213360Y91440
X219360Y91440
T7
X48129Y74168
X50178Y89281
X51308Y76907
X51308Y73914
X65655Y74168
X65655Y78232
X32221Y23622
X32221Y20991
X135382Y1905
X69088Y92680
X87122Y86106
X73529Y74168
X73529Y78486
X81534Y86360
X104394Y76170
X76708Y76907
X76708Y73914
X63500Y58928
X71759Y84328
X58043Y84328
X77601Y84328
X83443Y84328
X89285Y84328
X52201Y84328
X46359Y84328
X139446Y107950
X146812Y107950
X63881Y84328
X107442Y64516
X128524Y85598
X171450Y77470
X27178Y49530
X72390Y61468
X91055Y73996
X91055Y80518
X72136Y58928
X89408Y78994
X64262Y80518
X65786Y61468
X21641Y27178
X21641Y37592
X189738Y37592
X189738Y62967
X189738Y55347
X189738Y47727
X189738Y12167
X14544Y88646
X189738Y19787
X189738Y27407
X189738Y4547
X141022Y25400
X170434Y8890
X138482Y26924
X164338Y8890
X135942Y28448
X158242Y8890
X133402Y29972
X152146Y8890
X139752Y45466
X157480Y41656
X138482Y43688
X155956Y40386
X137212Y41910
X154432Y39116
X141022Y47244
X159004Y42926
X205740Y65278
X207772Y42418
X205740Y22098
X56134Y89154
X48129Y79150
X25146Y54102
X63627Y54102
X72644Y54102
X91186Y54102
X45720Y76170
M30