M48
;GenerationSoftware,Autodesk,EAGLE,9.7.0*%
;CreationDate,2021-10-20T21:52:09Z*%
FMAT,2
ICI,OFF
METRIC,TZ,000.000
T6C0.406
T5C1.016
T4C1.020
T3C1.270
T2C3.277
%
G90
M71
T2
X21336Y18923
X204216Y18923
X204216Y73660
X21336Y73660
T3
X135938Y100148
X47148Y100148
X107998Y100148
X130968Y100148
X121968Y100148
X116998Y100148
X94028Y100148
X144938Y100148
X8708Y54452
X8708Y98902
X103028Y100148
X143328Y73090
X143328Y88090
X80058Y100148
X89058Y100148
X66088Y100148
X75088Y100148
X151456Y73090
X151456Y88090
X52118Y100148
X61118Y100148
X38148Y100148
X8708Y49482
X8708Y40482
X8708Y63452
X8708Y107902
X8708Y84932
X8708Y93932
T4
X113998Y102108
X110998Y102108
X127968Y102108
X124968Y102108
X138938Y102108
X145288Y76090
X145288Y79090
X145288Y82090
X145288Y85090
X141938Y102108
X153416Y76090
X153416Y79090
X153416Y82090
X153416Y85090
X10668Y57452
X10668Y87932
X55118Y102108
X58118Y102108
X83058Y102108
X86058Y102108
X41148Y102108
X44148Y102108
X97028Y102108
X10668Y90932
X10668Y46482
X10668Y43482
X100028Y102108
X72088Y102108
X10668Y104902
X10668Y101902
X10668Y60452
X69088Y102108
T5
X116586Y23622
X126746Y71882
X129286Y71882
X96266Y23622
X98806Y23622
X101346Y23622
X103886Y23622
X106426Y23622
X108966Y23622
X111506Y23622
X93726Y23622
X91186Y71882
X93726Y71882
X96266Y71882
X7874Y12446
X101346Y71882
X88646Y71882
X69342Y71882
X82042Y71882
X84582Y71882
X139446Y61722
X136906Y61722
X139446Y64262
X136906Y64262
X139446Y66802
X136906Y66802
X139446Y69342
X136906Y69342
X136906Y28702
X139446Y28702
X86106Y23622
X88646Y23622
X83566Y23622
X98806Y71882
X221488Y10922
X159385Y78613
X159385Y76073
X159385Y85090
X221488Y8382
X221488Y13462
X191008Y8382
X191008Y10922
X191008Y13462
X160274Y8382
X160274Y10922
X160274Y13462
X129794Y8382
X129794Y10922
X129794Y13462
X99314Y9906
X99314Y12446
X99314Y14986
X68834Y9906
X68834Y12446
X68834Y14986
X38354Y9906
X38354Y12446
X38354Y14986
X7874Y9906
X7874Y14986
X119126Y23622
X121666Y23622
X124206Y23622
T6
X53213Y92202
X55880Y86258
X70993Y85852
X78740Y93980
X114173Y87095
X128270Y87249
X124968Y94681
X136652Y93472
X80772Y92202
X65278Y95758
X189611Y29820
X94742Y92202
X108712Y92202
X129540Y92202
X133477Y90424
X71374Y94234
X187452Y71145
X187452Y90424
X187452Y34442
X187452Y54610
X130937Y58674
X128321Y54737
X125857Y58801
X161798Y39563
X161798Y66548
X125730Y45466
X148590Y57150
X124460Y47244
X147320Y58420
X178054Y45466
M30