G04 EAGLE Gerber RS-274X export*
G75*
%MOMM*%
%FSLAX34Y34*%
%LPD*%
%INBottom Copper*%
%IPPOS*%
%AMOC8*
5,1,8,0,0,1.08239X$1,22.5*%
G01*
G04 Define Apertures*
%ADD10R,1.530000X1.530000*%
%ADD11C,1.530000*%
%ADD12R,1.530000X1.530000*%
%ADD13C,1.905000*%
%ADD14C,0.756400*%
%ADD15C,0.152400*%
G36*
X-13207Y-365700D02*
X-13504Y-365760D01*
X-74336Y-365760D01*
X-74610Y-365709D01*
X-74866Y-365545D01*
X-75037Y-365295D01*
X-75098Y-364998D01*
X-75098Y-321257D01*
X-78466Y-307226D01*
X-85017Y-294368D01*
X-94389Y-283396D01*
X-106063Y-274914D01*
X-119395Y-269392D01*
X-133648Y-267134D01*
X-148033Y-268266D01*
X-161757Y-272726D01*
X-174061Y-280265D01*
X-179163Y-285367D01*
X-180699Y-286903D01*
X-204991Y-311195D01*
X-205221Y-311353D01*
X-205517Y-311418D01*
X-205815Y-311362D01*
X-206068Y-311195D01*
X-248795Y-268468D01*
X-248937Y-268270D01*
X-249017Y-267978D01*
X-248984Y-267741D01*
X-249831Y-260222D01*
X-253841Y-253841D01*
X-260222Y-249831D01*
X-267732Y-248985D01*
X-267917Y-249018D01*
X-268215Y-248963D01*
X-268468Y-248795D01*
X-365537Y-151726D01*
X-365700Y-151484D01*
X-365760Y-151187D01*
X-365760Y-13504D01*
X-365704Y-13218D01*
X-365537Y-12966D01*
X-361924Y-9352D01*
X-359410Y-3284D01*
X-359410Y3284D01*
X-361924Y9352D01*
X-365537Y12966D01*
X-365700Y13207D01*
X-365760Y13504D01*
X-365760Y74336D01*
X-365709Y74610D01*
X-365545Y74866D01*
X-365295Y75037D01*
X-364998Y75098D01*
X-321257Y75098D01*
X-307226Y78466D01*
X-294368Y85017D01*
X-283396Y94389D01*
X-274914Y106063D01*
X-269392Y119395D01*
X-267134Y133648D01*
X-268266Y148033D01*
X-272726Y161757D01*
X-280265Y174061D01*
X-285367Y179163D01*
X-286502Y180297D01*
X-311195Y204991D01*
X-311353Y205221D01*
X-311418Y205517D01*
X-311362Y205815D01*
X-311195Y206068D01*
X-268180Y249082D01*
X-267939Y249245D01*
X-267642Y249306D01*
X-262532Y249306D01*
X-256463Y251819D01*
X-251819Y256463D01*
X-249306Y262532D01*
X-249306Y267642D01*
X-249250Y267927D01*
X-249082Y268180D01*
X-151726Y365537D01*
X-151484Y365700D01*
X-151187Y365760D01*
X-13504Y365760D01*
X-13218Y365704D01*
X-12966Y365537D01*
X-9352Y361924D01*
X-3284Y359410D01*
X3284Y359410D01*
X9352Y361924D01*
X12966Y365537D01*
X13207Y365700D01*
X13504Y365760D01*
X74336Y365760D01*
X74610Y365709D01*
X74866Y365545D01*
X75037Y365295D01*
X75098Y364998D01*
X75098Y321257D01*
X78466Y307226D01*
X85017Y294368D01*
X94389Y283396D01*
X106063Y274914D01*
X119395Y269392D01*
X133648Y267134D01*
X148033Y268266D01*
X161757Y272726D01*
X174061Y280265D01*
X179163Y285367D01*
X180575Y286780D01*
X204991Y311195D01*
X205221Y311353D01*
X205517Y311418D01*
X205815Y311362D01*
X206068Y311195D01*
X249082Y268180D01*
X249245Y267939D01*
X249306Y267642D01*
X249306Y262532D01*
X251819Y256463D01*
X256463Y251819D01*
X262532Y249306D01*
X267642Y249306D01*
X267927Y249250D01*
X268180Y249082D01*
X365537Y151726D01*
X365700Y151484D01*
X365760Y151187D01*
X365760Y13504D01*
X365704Y13218D01*
X365537Y12966D01*
X361924Y9352D01*
X359410Y3284D01*
X359410Y-3284D01*
X361924Y-9352D01*
X365537Y-12966D01*
X365700Y-13207D01*
X365760Y-13504D01*
X365760Y-74336D01*
X365709Y-74610D01*
X365545Y-74866D01*
X365295Y-75037D01*
X364998Y-75098D01*
X321257Y-75098D01*
X307226Y-78466D01*
X294368Y-85017D01*
X283396Y-94389D01*
X274914Y-106063D01*
X269392Y-119395D01*
X267134Y-133648D01*
X268266Y-148033D01*
X272726Y-161757D01*
X280265Y-174061D01*
X285367Y-179163D01*
X286903Y-180699D01*
X311195Y-204991D01*
X311353Y-205221D01*
X311418Y-205517D01*
X311362Y-205815D01*
X311195Y-206068D01*
X268180Y-249082D01*
X267939Y-249245D01*
X267642Y-249306D01*
X262532Y-249306D01*
X256463Y-251819D01*
X251819Y-256463D01*
X249306Y-262532D01*
X249306Y-267642D01*
X249250Y-267927D01*
X249082Y-268180D01*
X151726Y-365537D01*
X151484Y-365700D01*
X151187Y-365760D01*
X13504Y-365760D01*
X13218Y-365704D01*
X12966Y-365537D01*
X9352Y-361924D01*
X3284Y-359410D01*
X-3284Y-359410D01*
X-9352Y-361924D01*
X-12966Y-365537D01*
X-13207Y-365700D01*
G37*
%LPC*%
G36*
X-47198Y333671D02*
X-42802Y333671D01*
X-38741Y335353D01*
X-35633Y338461D01*
X-33951Y342522D01*
X-33951Y346918D01*
X-35633Y350979D01*
X-38741Y354087D01*
X-42802Y355769D01*
X-47198Y355769D01*
X-51259Y354087D01*
X-54367Y350979D01*
X-56049Y346918D01*
X-56049Y342522D01*
X-54367Y338461D01*
X-51259Y335353D01*
X-47198Y333671D01*
G37*
G36*
X42802Y333671D02*
X47198Y333671D01*
X51259Y335353D01*
X54367Y338461D01*
X56049Y342522D01*
X56049Y346918D01*
X54367Y350979D01*
X51259Y354087D01*
X47198Y355769D01*
X42802Y355769D01*
X38741Y354087D01*
X35633Y350979D01*
X33951Y346918D01*
X33951Y342522D01*
X35633Y338461D01*
X38741Y335353D01*
X42802Y333671D01*
G37*
G36*
X-140217Y309150D02*
X-132325Y309150D01*
X-125034Y312170D01*
X-119453Y317750D01*
X-116433Y325041D01*
X-116433Y332933D01*
X-119453Y340224D01*
X-125034Y345804D01*
X-132325Y348824D01*
X-140217Y348824D01*
X-147508Y345804D01*
X-153088Y340224D01*
X-156108Y332933D01*
X-156108Y325041D01*
X-153088Y317750D01*
X-147508Y312170D01*
X-140217Y309150D01*
G37*
G36*
X15762Y325882D02*
X25190Y325882D01*
X25190Y327147D01*
X23639Y330892D01*
X20772Y333759D01*
X17027Y335310D01*
X15762Y335310D01*
X15762Y325882D01*
G37*
G36*
X4810Y325882D02*
X14238Y325882D01*
X14238Y335310D01*
X12973Y335310D01*
X9228Y333759D01*
X6361Y330892D01*
X4810Y327147D01*
X4810Y325882D01*
G37*
G36*
X-23281Y315946D02*
X-6719Y315946D01*
X-5826Y316839D01*
X-5826Y333401D01*
X-6719Y334294D01*
X-23281Y334294D01*
X-24174Y333401D01*
X-24174Y316839D01*
X-23281Y315946D01*
G37*
G36*
X15762Y314930D02*
X17027Y314930D01*
X20772Y316481D01*
X23639Y319348D01*
X25190Y323093D01*
X25190Y324358D01*
X15762Y324358D01*
X15762Y314930D01*
G37*
G36*
X12973Y314930D02*
X14238Y314930D01*
X14238Y324358D01*
X4810Y324358D01*
X4810Y323093D01*
X6361Y319348D01*
X9228Y316481D01*
X12973Y314930D01*
G37*
G36*
X209732Y264520D02*
X214127Y264520D01*
X218188Y266202D01*
X221296Y269310D01*
X222978Y273371D01*
X222978Y277767D01*
X221296Y281828D01*
X218188Y284936D01*
X214127Y286618D01*
X209732Y286618D01*
X205671Y284936D01*
X202563Y281828D01*
X200880Y277767D01*
X200880Y273371D01*
X202563Y269310D01*
X205671Y266202D01*
X209732Y264520D01*
G37*
G36*
X-214127Y264520D02*
X-209732Y264520D01*
X-205671Y266202D01*
X-202563Y269310D01*
X-200880Y273371D01*
X-200880Y277767D01*
X-202563Y281828D01*
X-205671Y284936D01*
X-209732Y286618D01*
X-214127Y286618D01*
X-218188Y284936D01*
X-221296Y281828D01*
X-222978Y277767D01*
X-222978Y273371D01*
X-221296Y269310D01*
X-218188Y266202D01*
X-214127Y264520D01*
G37*
G36*
X-27114Y-160750D02*
X-2722Y-162998D01*
X21731Y-161566D01*
X45693Y-156486D01*
X68624Y-147873D01*
X90006Y-135922D01*
X109356Y-120901D01*
X126236Y-103152D01*
X140266Y-83073D01*
X151130Y-61118D01*
X158581Y-37784D01*
X162453Y-13597D01*
X162536Y-3522D01*
X164100Y184843D01*
X164100Y184843D01*
X164118Y187015D01*
X164189Y195581D01*
X160963Y212407D01*
X154495Y228271D01*
X145036Y242555D01*
X132955Y254703D01*
X118724Y264240D01*
X102896Y270797D01*
X86088Y274116D01*
X68956Y274068D01*
X52167Y270656D01*
X36376Y264013D01*
X22197Y254396D01*
X16191Y248289D01*
X14667Y246740D01*
X14667Y246740D01*
X-117421Y112440D01*
X-124486Y105257D01*
X-138851Y85417D01*
X-150082Y63648D01*
X-157925Y40442D01*
X-162201Y16323D01*
X-162816Y-8164D01*
X-159755Y-32467D01*
X-153087Y-56037D01*
X-142963Y-78342D01*
X-129610Y-98878D01*
X-113332Y-117182D01*
X-94495Y-132840D01*
X-73524Y-145499D01*
X-50894Y-154873D01*
X-27114Y-160750D01*
G37*
G36*
X218652Y228154D02*
X219915Y228154D01*
X231626Y239865D01*
X231626Y241128D01*
X219915Y252839D01*
X218652Y252839D01*
X206941Y241128D01*
X206941Y239865D01*
X218652Y228154D01*
G37*
G36*
X-225950Y248241D02*
X-219283Y241574D01*
X-212617Y248241D01*
X-213511Y249135D01*
X-217256Y250687D01*
X-221310Y250687D01*
X-225056Y249135D01*
X-225950Y248241D01*
G37*
G36*
X-218206Y240497D02*
X-211539Y233830D01*
X-210645Y234724D01*
X-209093Y238470D01*
X-209093Y242524D01*
X-210645Y246269D01*
X-211539Y247163D01*
X-218206Y240497D01*
G37*
G36*
X-227922Y234724D02*
X-227028Y233830D01*
X-220361Y240497D01*
X-227028Y247163D01*
X-227922Y246269D01*
X-229473Y242524D01*
X-229473Y238470D01*
X-227922Y234724D01*
G37*
G36*
X-221310Y230307D02*
X-217256Y230307D01*
X-213511Y231858D01*
X-212617Y232752D01*
X-219283Y239419D01*
X-225950Y232752D01*
X-225056Y231858D01*
X-221310Y230307D01*
G37*
G36*
X-241128Y206941D02*
X-239865Y206941D01*
X-228154Y218652D01*
X-228154Y219915D01*
X-239865Y231626D01*
X-241128Y231626D01*
X-252839Y219915D01*
X-252839Y218652D01*
X-241128Y206941D01*
G37*
G36*
X233830Y227028D02*
X240497Y220361D01*
X247163Y227028D01*
X246269Y227922D01*
X242524Y229473D01*
X238470Y229473D01*
X234724Y227922D01*
X233830Y227028D01*
G37*
G36*
X-36507Y-274066D02*
X21267Y-274066D01*
X200406Y-94927D01*
X200406Y215447D01*
X200462Y215733D01*
X200629Y215985D01*
X203426Y218782D01*
X203426Y223178D01*
X200318Y226286D01*
X195922Y226286D01*
X192814Y223178D01*
X192814Y218782D01*
X195611Y215985D01*
X195774Y215744D01*
X195834Y215447D01*
X195834Y-92717D01*
X195778Y-93003D01*
X195611Y-93256D01*
X19596Y-269271D01*
X19355Y-269434D01*
X19057Y-269494D01*
X-34297Y-269494D01*
X-34583Y-269438D01*
X-34836Y-269271D01*
X-61876Y-242231D01*
X-62056Y-241945D01*
X-62098Y-241644D01*
X-61244Y-227998D01*
X-61192Y-227765D01*
X-61026Y-227511D01*
X-60775Y-227342D01*
X-57731Y-226081D01*
X-55150Y-223500D01*
X-53754Y-220128D01*
X-53754Y-216479D01*
X-55150Y-213107D01*
X-57731Y-210526D01*
X-61103Y-209129D01*
X-64752Y-209129D01*
X-68124Y-210526D01*
X-70705Y-213107D01*
X-72102Y-216479D01*
X-72102Y-220128D01*
X-70705Y-223500D01*
X-68124Y-226081D01*
X-66269Y-226849D01*
X-65997Y-227040D01*
X-65842Y-227300D01*
X-65800Y-227601D01*
X-66675Y-241582D01*
X-66729Y-241820D01*
X-66751Y-241854D01*
X-66751Y-242779D01*
X-66753Y-242827D01*
X-66810Y-243739D01*
X-66804Y-243769D01*
X-66149Y-244424D01*
X-66117Y-244458D01*
X-65512Y-245143D01*
X-65267Y-245306D01*
X-36507Y-274066D01*
G37*
G36*
X231858Y213511D02*
X232752Y212617D01*
X239419Y219283D01*
X232752Y225950D01*
X231858Y225056D01*
X230307Y221310D01*
X230307Y217256D01*
X231858Y213511D01*
G37*
G36*
X241574Y219283D02*
X248241Y212617D01*
X249135Y213511D01*
X250687Y217256D01*
X250687Y221310D01*
X249135Y225056D01*
X248241Y225950D01*
X241574Y219283D01*
G37*
G36*
X273371Y200880D02*
X277767Y200880D01*
X281828Y202563D01*
X284936Y205671D01*
X286618Y209732D01*
X286618Y214127D01*
X284936Y218188D01*
X281828Y221296D01*
X277767Y222978D01*
X273371Y222978D01*
X269310Y221296D01*
X266202Y218188D01*
X264520Y214127D01*
X264520Y209732D01*
X266202Y205671D01*
X269310Y202563D01*
X273371Y200880D01*
G37*
G36*
X-277767Y200880D02*
X-273371Y200880D01*
X-269310Y202563D01*
X-266202Y205671D01*
X-264520Y209732D01*
X-264520Y214127D01*
X-266202Y218188D01*
X-269310Y221296D01*
X-273371Y222978D01*
X-277767Y222978D01*
X-281828Y221296D01*
X-284936Y218188D01*
X-286618Y214127D01*
X-286618Y209732D01*
X-284936Y205671D01*
X-281828Y202563D01*
X-277767Y200880D01*
G37*
G36*
X238470Y209093D02*
X242524Y209093D01*
X246269Y210645D01*
X247163Y211539D01*
X240497Y218206D01*
X233830Y211539D01*
X234724Y210645D01*
X238470Y209093D01*
G37*
G36*
X-120100Y-210567D02*
X-119161Y-210605D01*
X-118496Y-209940D01*
X-118474Y-209919D01*
X-115321Y-207010D01*
X-115107Y-206871D01*
X-114810Y-206808D01*
X-114513Y-206866D01*
X-111685Y-208037D01*
X-108036Y-208037D01*
X-104664Y-206640D01*
X-102083Y-204060D01*
X-100687Y-200688D01*
X-100687Y-197038D01*
X-102083Y-193666D01*
X-104664Y-191086D01*
X-108036Y-189689D01*
X-111685Y-189689D01*
X-115057Y-191086D01*
X-117638Y-193666D01*
X-119035Y-197038D01*
X-119035Y-200688D01*
X-118181Y-202749D01*
X-118123Y-203059D01*
X-118191Y-203355D01*
X-118368Y-203601D01*
X-120744Y-205792D01*
X-120963Y-205934D01*
X-121260Y-205994D01*
X-146057Y-205994D01*
X-146343Y-205938D01*
X-146596Y-205771D01*
X-195611Y-156756D01*
X-195774Y-156515D01*
X-195834Y-156217D01*
X-195834Y171373D01*
X-195778Y171659D01*
X-195611Y171912D01*
X-192814Y174709D01*
X-192814Y179105D01*
X-195922Y182213D01*
X-200318Y182213D01*
X-203426Y179105D01*
X-203426Y174709D01*
X-200629Y171912D01*
X-200466Y171671D01*
X-200406Y171373D01*
X-200406Y-158427D01*
X-148267Y-210566D01*
X-120131Y-210566D01*
X-120100Y-210567D01*
G37*
G36*
X325041Y116433D02*
X332933Y116433D01*
X340224Y119453D01*
X345804Y125034D01*
X348824Y132325D01*
X348824Y140217D01*
X345804Y147508D01*
X340224Y153088D01*
X332933Y156108D01*
X325041Y156108D01*
X317750Y153088D01*
X312170Y147508D01*
X309150Y140217D01*
X309150Y132325D01*
X312170Y125034D01*
X317750Y119453D01*
X325041Y116433D01*
G37*
G36*
X-346918Y33951D02*
X-342522Y33951D01*
X-338461Y35633D01*
X-335353Y38741D01*
X-333671Y42802D01*
X-333671Y47198D01*
X-335353Y51259D01*
X-338461Y54367D01*
X-342522Y56049D01*
X-346918Y56049D01*
X-350979Y54367D01*
X-354087Y51259D01*
X-355769Y47198D01*
X-355769Y42802D01*
X-354087Y38741D01*
X-350979Y35633D01*
X-346918Y33951D01*
G37*
G36*
X342522Y33951D02*
X346918Y33951D01*
X350979Y35633D01*
X354087Y38741D01*
X355769Y42802D01*
X355769Y47198D01*
X354087Y51259D01*
X350979Y54367D01*
X346918Y56049D01*
X342522Y56049D01*
X338461Y54367D01*
X335353Y51259D01*
X333671Y47198D01*
X333671Y42802D01*
X335353Y38741D01*
X338461Y35633D01*
X342522Y33951D01*
G37*
G36*
X-335310Y15762D02*
X-325882Y15762D01*
X-325882Y25190D01*
X-327147Y25190D01*
X-330892Y23639D01*
X-333759Y20772D01*
X-335310Y17027D01*
X-335310Y15762D01*
G37*
G36*
X-324358Y15762D02*
X-314930Y15762D01*
X-314930Y17027D01*
X-316481Y20772D01*
X-319348Y23639D01*
X-323093Y25190D01*
X-324358Y25190D01*
X-324358Y15762D01*
G37*
G36*
X316839Y5826D02*
X333401Y5826D01*
X334294Y6719D01*
X334294Y23281D01*
X333401Y24174D01*
X316839Y24174D01*
X315946Y23281D01*
X315946Y6719D01*
X316839Y5826D01*
G37*
G36*
X-324358Y4810D02*
X-323093Y4810D01*
X-319348Y6361D01*
X-316481Y9228D01*
X-314930Y12973D01*
X-314930Y14238D01*
X-324358Y14238D01*
X-324358Y4810D01*
G37*
G36*
X-327147Y4810D02*
X-325882Y4810D01*
X-325882Y14238D01*
X-335310Y14238D01*
X-335310Y12973D01*
X-333759Y9228D01*
X-330892Y6361D01*
X-327147Y4810D01*
G37*
G36*
X325882Y-14238D02*
X335310Y-14238D01*
X335310Y-12973D01*
X333759Y-9228D01*
X330892Y-6361D01*
X327147Y-4810D01*
X325882Y-4810D01*
X325882Y-14238D01*
G37*
G36*
X314930Y-14238D02*
X324358Y-14238D01*
X324358Y-4810D01*
X323093Y-4810D01*
X319348Y-6361D01*
X316481Y-9228D01*
X314930Y-12973D01*
X314930Y-14238D01*
G37*
G36*
X-333401Y-24174D02*
X-316839Y-24174D01*
X-315946Y-23281D01*
X-315946Y-6719D01*
X-316839Y-5826D01*
X-333401Y-5826D01*
X-334294Y-6719D01*
X-334294Y-23281D01*
X-333401Y-24174D01*
G37*
G36*
X323093Y-25190D02*
X324358Y-25190D01*
X324358Y-15762D01*
X314930Y-15762D01*
X314930Y-17027D01*
X316481Y-20772D01*
X319348Y-23639D01*
X323093Y-25190D01*
G37*
G36*
X325882Y-25190D02*
X327147Y-25190D01*
X330892Y-23639D01*
X333759Y-20772D01*
X335310Y-17027D01*
X335310Y-15762D01*
X325882Y-15762D01*
X325882Y-25190D01*
G37*
G36*
X-346918Y-56049D02*
X-342522Y-56049D01*
X-338461Y-54367D01*
X-335353Y-51259D01*
X-333671Y-47198D01*
X-333671Y-42802D01*
X-335353Y-38741D01*
X-338461Y-35633D01*
X-342522Y-33951D01*
X-346918Y-33951D01*
X-350979Y-35633D01*
X-354087Y-38741D01*
X-355769Y-42802D01*
X-355769Y-47198D01*
X-354087Y-51259D01*
X-350979Y-54367D01*
X-346918Y-56049D01*
G37*
G36*
X342522Y-56049D02*
X346918Y-56049D01*
X350979Y-54367D01*
X354087Y-51259D01*
X355769Y-47198D01*
X355769Y-42802D01*
X354087Y-38741D01*
X350979Y-35633D01*
X346918Y-33951D01*
X342522Y-33951D01*
X338461Y-35633D01*
X335353Y-38741D01*
X333671Y-42802D01*
X333671Y-47198D01*
X335353Y-51259D01*
X338461Y-54367D01*
X342522Y-56049D01*
G37*
G36*
X-332933Y-156108D02*
X-325041Y-156108D01*
X-317750Y-153088D01*
X-312170Y-147508D01*
X-309150Y-140217D01*
X-309150Y-132325D01*
X-312170Y-125034D01*
X-317750Y-119453D01*
X-325041Y-116433D01*
X-332933Y-116433D01*
X-340224Y-119453D01*
X-345804Y-125034D01*
X-348824Y-132325D01*
X-348824Y-140217D01*
X-345804Y-147508D01*
X-340224Y-153088D01*
X-332933Y-156108D01*
G37*
G36*
X-125432Y-174850D02*
X-121782Y-174850D01*
X-118410Y-173454D01*
X-115830Y-170873D01*
X-114433Y-167501D01*
X-114433Y-163852D01*
X-115830Y-160480D01*
X-118410Y-157899D01*
X-121782Y-156502D01*
X-125432Y-156502D01*
X-128804Y-157899D01*
X-131384Y-160480D01*
X-132781Y-163852D01*
X-132781Y-167501D01*
X-131384Y-170873D01*
X-128804Y-173454D01*
X-125432Y-174850D01*
G37*
G36*
X-101965Y-184571D02*
X-98316Y-184571D01*
X-94944Y-183174D01*
X-92363Y-180593D01*
X-90966Y-177221D01*
X-90966Y-173572D01*
X-92363Y-170200D01*
X-94944Y-167619D01*
X-98316Y-166223D01*
X-101965Y-166223D01*
X-105337Y-167619D01*
X-107918Y-170200D01*
X-109314Y-173572D01*
X-109314Y-177221D01*
X-107918Y-180593D01*
X-105337Y-183174D01*
X-101965Y-184571D01*
G37*
G36*
X-85797Y-180513D02*
X-77086Y-184121D01*
X-73478Y-175411D01*
X-74647Y-174927D01*
X-78701Y-174927D01*
X-82446Y-176478D01*
X-85313Y-179345D01*
X-85797Y-180513D01*
G37*
G36*
X-75678Y-184704D02*
X-66968Y-188312D01*
X-66484Y-187144D01*
X-66484Y-183090D01*
X-68035Y-179345D01*
X-70902Y-176478D01*
X-72070Y-175994D01*
X-75678Y-184704D01*
G37*
G36*
X-135152Y-198317D02*
X-131502Y-198317D01*
X-128131Y-196920D01*
X-125550Y-194340D01*
X-124153Y-190968D01*
X-124153Y-187318D01*
X-125550Y-183946D01*
X-128131Y-181366D01*
X-131502Y-179969D01*
X-135152Y-179969D01*
X-138524Y-181366D01*
X-141105Y-183946D01*
X-142501Y-187318D01*
X-142501Y-190968D01*
X-141105Y-194340D01*
X-138524Y-196920D01*
X-135152Y-198317D01*
G37*
G36*
X-82446Y-193755D02*
X-81277Y-194239D01*
X-77670Y-185529D01*
X-86380Y-181921D01*
X-86864Y-183090D01*
X-86864Y-187144D01*
X-85313Y-190889D01*
X-82446Y-193755D01*
G37*
G36*
X-55032Y-204011D02*
X-51383Y-204011D01*
X-48011Y-202614D01*
X-45430Y-200034D01*
X-44033Y-196662D01*
X-44033Y-193012D01*
X-45430Y-189640D01*
X-48011Y-187060D01*
X-51383Y-185663D01*
X-55032Y-185663D01*
X-58404Y-187060D01*
X-60985Y-189640D01*
X-62381Y-193012D01*
X-62381Y-196662D01*
X-60985Y-200034D01*
X-58404Y-202614D01*
X-55032Y-204011D01*
G37*
G36*
X-78701Y-195307D02*
X-74647Y-195307D01*
X-70902Y-193755D01*
X-68035Y-190889D01*
X-67551Y-189720D01*
X-76262Y-186112D01*
X-79869Y-194823D01*
X-78701Y-195307D01*
G37*
G36*
X12802Y-261846D02*
X17198Y-261846D01*
X20306Y-258738D01*
X20306Y-254342D01*
X17509Y-251545D01*
X17346Y-251304D01*
X17286Y-251007D01*
X17286Y-248351D01*
X-21412Y-209653D01*
X-21573Y-209416D01*
X-21636Y-209120D01*
X-21578Y-208822D01*
X-18096Y-200417D01*
X-18579Y-199251D01*
X-33881Y-192912D01*
X-35047Y-193395D01*
X-41386Y-208697D01*
X-40902Y-209864D01*
X-25601Y-216202D01*
X-24434Y-215719D01*
X-24103Y-214918D01*
X-23954Y-214688D01*
X-23707Y-214513D01*
X-23411Y-214448D01*
X-23113Y-214503D01*
X-22860Y-214671D01*
X12491Y-250022D01*
X12654Y-250263D01*
X12714Y-250560D01*
X12714Y-251007D01*
X12658Y-251293D01*
X12491Y-251545D01*
X9694Y-254342D01*
X9694Y-258738D01*
X12802Y-261846D01*
G37*
G36*
X-95517Y-203980D02*
X-86806Y-207588D01*
X-83199Y-198877D01*
X-84367Y-198393D01*
X-88421Y-198393D01*
X-92166Y-199945D01*
X-95033Y-202811D01*
X-95517Y-203980D01*
G37*
G36*
X-85398Y-208171D02*
X-76688Y-211779D01*
X-76204Y-210610D01*
X-76204Y-206556D01*
X-77755Y-202811D01*
X-80622Y-199945D01*
X-81791Y-199461D01*
X-85398Y-208171D01*
G37*
G36*
X273371Y-222978D02*
X277767Y-222978D01*
X281828Y-221296D01*
X284936Y-218188D01*
X286618Y-214127D01*
X286618Y-209732D01*
X284936Y-205671D01*
X281828Y-202563D01*
X277767Y-200880D01*
X273371Y-200880D01*
X269310Y-202563D01*
X266202Y-205671D01*
X264520Y-209732D01*
X264520Y-214127D01*
X266202Y-218188D01*
X269310Y-221296D01*
X273371Y-222978D01*
G37*
G36*
X-277767Y-222978D02*
X-273371Y-222978D01*
X-269310Y-221296D01*
X-266202Y-218188D01*
X-264520Y-214127D01*
X-264520Y-209732D01*
X-266202Y-205671D01*
X-269310Y-202563D01*
X-273371Y-200880D01*
X-277767Y-200880D01*
X-281828Y-202563D01*
X-284936Y-205671D01*
X-286618Y-209732D01*
X-286618Y-214127D01*
X-284936Y-218188D01*
X-281828Y-221296D01*
X-277767Y-222978D01*
G37*
G36*
X-92166Y-217222D02*
X-90998Y-217706D01*
X-87390Y-208996D01*
X-96100Y-205388D01*
X-96584Y-206556D01*
X-96584Y-210610D01*
X-95033Y-214355D01*
X-92166Y-217222D01*
G37*
G36*
X239865Y-231626D02*
X241128Y-231626D01*
X252839Y-219915D01*
X252839Y-218652D01*
X241128Y-206941D01*
X239865Y-206941D01*
X228154Y-218652D01*
X228154Y-219915D01*
X239865Y-231626D01*
G37*
G36*
X-247163Y-211539D02*
X-240497Y-218206D01*
X-233830Y-211539D01*
X-234724Y-210645D01*
X-238470Y-209093D01*
X-242524Y-209093D01*
X-246269Y-210645D01*
X-247163Y-211539D01*
G37*
G36*
X-88421Y-218773D02*
X-84367Y-218773D01*
X-80622Y-217222D01*
X-77755Y-214355D01*
X-77271Y-213187D01*
X-85982Y-209579D01*
X-89590Y-218289D01*
X-88421Y-218773D01*
G37*
G36*
X-239419Y-219283D02*
X-232752Y-225950D01*
X-231858Y-225056D01*
X-230307Y-221310D01*
X-230307Y-217256D01*
X-231858Y-213511D01*
X-232752Y-212617D01*
X-239419Y-219283D01*
G37*
G36*
X-249135Y-225056D02*
X-248241Y-225950D01*
X-241574Y-219283D01*
X-248241Y-212617D01*
X-249135Y-213511D01*
X-250687Y-217256D01*
X-250687Y-221310D01*
X-249135Y-225056D01*
G37*
G36*
X-41286Y-237198D02*
X-37636Y-237198D01*
X-34264Y-235801D01*
X-31684Y-233220D01*
X-30287Y-229848D01*
X-30287Y-226199D01*
X-31684Y-222827D01*
X-34264Y-220246D01*
X-37636Y-218850D01*
X-41286Y-218850D01*
X-44658Y-220246D01*
X-47238Y-222827D01*
X-48635Y-226199D01*
X-48635Y-229848D01*
X-47238Y-233220D01*
X-44658Y-235801D01*
X-41286Y-237198D01*
G37*
G36*
X-242524Y-229473D02*
X-238470Y-229473D01*
X-234724Y-227922D01*
X-233830Y-227028D01*
X-240497Y-220361D01*
X-247163Y-227028D01*
X-246269Y-227922D01*
X-242524Y-229473D01*
G37*
G36*
X-219915Y-252839D02*
X-218652Y-252839D01*
X-206941Y-241128D01*
X-206941Y-239865D01*
X-218652Y-228154D01*
X-219915Y-228154D01*
X-231626Y-239865D01*
X-231626Y-241128D01*
X-219915Y-252839D01*
G37*
G36*
X212617Y-232752D02*
X219283Y-239419D01*
X225950Y-232752D01*
X225056Y-231858D01*
X221310Y-230307D01*
X217256Y-230307D01*
X213511Y-231858D01*
X212617Y-232752D01*
G37*
G36*
X210645Y-246269D02*
X211539Y-247163D01*
X218206Y-240497D01*
X211539Y-233830D01*
X210645Y-234724D01*
X209093Y-238470D01*
X209093Y-242524D01*
X210645Y-246269D01*
G37*
G36*
X220361Y-240497D02*
X227028Y-247163D01*
X227922Y-246269D01*
X229473Y-242524D01*
X229473Y-238470D01*
X227922Y-234724D01*
X227028Y-233830D01*
X220361Y-240497D01*
G37*
G36*
X217256Y-250687D02*
X221310Y-250687D01*
X225056Y-249135D01*
X225950Y-248241D01*
X219283Y-241574D01*
X212617Y-248241D01*
X213511Y-249135D01*
X217256Y-250687D01*
G37*
G36*
X209732Y-286618D02*
X214127Y-286618D01*
X218188Y-284936D01*
X221296Y-281828D01*
X222978Y-277767D01*
X222978Y-273371D01*
X221296Y-269310D01*
X218188Y-266202D01*
X214127Y-264520D01*
X209732Y-264520D01*
X205671Y-266202D01*
X202563Y-269310D01*
X200880Y-273371D01*
X200880Y-277767D01*
X202563Y-281828D01*
X205671Y-284936D01*
X209732Y-286618D01*
G37*
G36*
X-214127Y-286618D02*
X-209732Y-286618D01*
X-205671Y-284936D01*
X-202563Y-281828D01*
X-200880Y-277767D01*
X-200880Y-273371D01*
X-202563Y-269310D01*
X-205671Y-266202D01*
X-209732Y-264520D01*
X-214127Y-264520D01*
X-218188Y-266202D01*
X-221296Y-269310D01*
X-222978Y-273371D01*
X-222978Y-277767D01*
X-221296Y-281828D01*
X-218188Y-284936D01*
X-214127Y-286618D01*
G37*
G36*
X132325Y-348824D02*
X140217Y-348824D01*
X147508Y-345804D01*
X153088Y-340224D01*
X156108Y-332933D01*
X156108Y-325041D01*
X153088Y-317750D01*
X147508Y-312170D01*
X140217Y-309150D01*
X132325Y-309150D01*
X125034Y-312170D01*
X119453Y-317750D01*
X116433Y-325041D01*
X116433Y-332933D01*
X119453Y-340224D01*
X125034Y-345804D01*
X132325Y-348824D01*
G37*
G36*
X-25190Y-324358D02*
X-15762Y-324358D01*
X-15762Y-314930D01*
X-17027Y-314930D01*
X-20772Y-316481D01*
X-23639Y-319348D01*
X-25190Y-323093D01*
X-25190Y-324358D01*
G37*
G36*
X-14238Y-324358D02*
X-4810Y-324358D01*
X-4810Y-323093D01*
X-6361Y-319348D01*
X-9228Y-316481D01*
X-12973Y-314930D01*
X-14238Y-314930D01*
X-14238Y-324358D01*
G37*
G36*
X6719Y-334294D02*
X23281Y-334294D01*
X24174Y-333401D01*
X24174Y-316839D01*
X23281Y-315946D01*
X6719Y-315946D01*
X5826Y-316839D01*
X5826Y-333401D01*
X6719Y-334294D01*
G37*
G36*
X-14238Y-335310D02*
X-12973Y-335310D01*
X-9228Y-333759D01*
X-6361Y-330892D01*
X-4810Y-327147D01*
X-4810Y-325882D01*
X-14238Y-325882D01*
X-14238Y-335310D01*
G37*
G36*
X-17027Y-335310D02*
X-15762Y-335310D01*
X-15762Y-325882D01*
X-25190Y-325882D01*
X-25190Y-327147D01*
X-23639Y-330892D01*
X-20772Y-333759D01*
X-17027Y-335310D01*
G37*
G36*
X42802Y-355769D02*
X47198Y-355769D01*
X51259Y-354087D01*
X54367Y-350979D01*
X56049Y-346918D01*
X56049Y-342522D01*
X54367Y-338461D01*
X51259Y-335353D01*
X47198Y-333671D01*
X42802Y-333671D01*
X38741Y-335353D01*
X35633Y-338461D01*
X33951Y-342522D01*
X33951Y-346918D01*
X35633Y-350979D01*
X38741Y-354087D01*
X42802Y-355769D01*
G37*
G36*
X-47198Y-355769D02*
X-42802Y-355769D01*
X-38741Y-354087D01*
X-35633Y-350979D01*
X-33951Y-346918D01*
X-33951Y-342522D01*
X-35633Y-338461D01*
X-38741Y-335353D01*
X-42802Y-333671D01*
X-47198Y-333671D01*
X-51259Y-335353D01*
X-54367Y-338461D01*
X-56049Y-342522D01*
X-56049Y-346918D01*
X-54367Y-350979D01*
X-51259Y-354087D01*
X-47198Y-355769D01*
G37*
%LPD*%
D10*
G36*
X-33881Y-194562D02*
X-19746Y-200417D01*
X-25601Y-214552D01*
X-39736Y-208697D01*
X-33881Y-194562D01*
G37*
D11*
X-39461Y-228024D03*
X-53207Y-194837D03*
X-62928Y-218303D03*
X-76674Y-185117D03*
X-86394Y-208583D03*
X-100140Y-175397D03*
X-109861Y-198863D03*
X-123607Y-165676D03*
X-133327Y-189143D03*
D12*
X15000Y-325120D03*
D11*
X-15000Y-325120D03*
D13*
X45000Y-344720D03*
X-45000Y-344720D03*
D10*
G36*
X251315Y-219283D02*
X240497Y-230101D01*
X229679Y-219283D01*
X240497Y-208465D01*
X251315Y-219283D01*
G37*
D11*
X219283Y-240497D03*
D13*
X275569Y-211929D03*
X211929Y-275569D03*
D12*
X325120Y15000D03*
D11*
X325120Y-15000D03*
D13*
X344720Y45000D03*
X344720Y-45000D03*
D10*
G36*
X219283Y251315D02*
X230101Y240497D01*
X219283Y229679D01*
X208465Y240497D01*
X219283Y251315D01*
G37*
D11*
X240497Y219283D03*
D13*
X211929Y275569D03*
X275569Y211929D03*
D12*
X-15000Y325120D03*
D11*
X15000Y325120D03*
D13*
X-45000Y344720D03*
X45000Y344720D03*
D10*
G36*
X-251315Y219283D02*
X-240497Y230101D01*
X-229679Y219283D01*
X-240497Y208465D01*
X-251315Y219283D01*
G37*
D11*
X-219283Y240497D03*
D13*
X-275569Y211929D03*
X-211929Y275569D03*
D12*
X-325120Y-15000D03*
D11*
X-325120Y15000D03*
D13*
X-344720Y-45000D03*
X-344720Y45000D03*
D10*
G36*
X-219283Y-251315D02*
X-230101Y-240497D01*
X-219283Y-229679D01*
X-208465Y-240497D01*
X-219283Y-251315D01*
G37*
D11*
X-240497Y-219283D03*
D13*
X-211929Y-275569D03*
X-275569Y-211929D03*
D14*
X-198120Y176907D03*
D15*
X-109861Y-198863D02*
X-120069Y-208280D01*
X-147320Y-208280D01*
X-198120Y-157480D01*
X-198120Y176907D01*
D14*
X198120Y220980D03*
D15*
X-62928Y-218303D02*
X-64465Y-242875D01*
X-35560Y-271780D01*
X20320Y-271780D01*
X198120Y-93980D01*
X198120Y220980D01*
D14*
X15000Y-256540D03*
D15*
X15000Y-249298D01*
X-29741Y-204557D01*
M02*
