G04 EAGLE Gerber RS-274X export*
G75*
%MOMM*%
%FSLAX34Y34*%
%LPD*%
%INSilkscreen Bottom*%
%IPPOS*%
%AMOC8*
5,1,8,0,0,1.08239X$1,22.5*%
G01*
G04 Define Apertures*
G36*
X-89680Y-163978D02*
X-93824Y-162262D01*
X-92443Y-158239D01*
X-91532Y-158616D01*
X-91424Y-158816D01*
X-91307Y-158995D01*
X-91182Y-159153D01*
X-91048Y-159290D01*
X-90903Y-159411D01*
X-90746Y-159520D01*
X-90576Y-159616D01*
X-90393Y-159700D01*
X-90214Y-159767D01*
X-90039Y-159816D01*
X-89867Y-159848D01*
X-89699Y-159864D01*
X-89535Y-159862D01*
X-89375Y-159843D01*
X-89219Y-159806D01*
X-89066Y-159753D01*
X-88921Y-159684D01*
X-88785Y-159602D01*
X-88659Y-159505D01*
X-88543Y-159395D01*
X-88437Y-159272D01*
X-88341Y-159134D01*
X-88255Y-158983D01*
X-88179Y-158817D01*
X-88106Y-158622D01*
X-88050Y-158432D01*
X-88012Y-158247D01*
X-87992Y-158067D01*
X-87989Y-157892D01*
X-88005Y-157722D01*
X-88037Y-157557D01*
X-88088Y-157397D01*
X-88155Y-157245D01*
X-88238Y-157103D01*
X-88337Y-156971D01*
X-88453Y-156848D01*
X-88584Y-156736D01*
X-88732Y-156634D01*
X-88895Y-156541D01*
X-89075Y-156458D01*
X-89372Y-156355D01*
X-89655Y-156297D01*
X-89923Y-156285D01*
X-90176Y-156319D01*
X-90414Y-156398D01*
X-90637Y-156524D01*
X-90845Y-156695D01*
X-91038Y-156912D01*
X-91935Y-156413D01*
X-91802Y-156229D01*
X-91659Y-156062D01*
X-91507Y-155915D01*
X-91346Y-155786D01*
X-91176Y-155675D01*
X-90996Y-155582D01*
X-90808Y-155508D01*
X-90610Y-155453D01*
X-90404Y-155416D01*
X-90192Y-155398D01*
X-89973Y-155399D01*
X-89747Y-155419D01*
X-89515Y-155458D01*
X-89277Y-155516D01*
X-89032Y-155593D01*
X-88780Y-155689D01*
X-88489Y-155822D01*
X-88223Y-155969D01*
X-87981Y-156129D01*
X-87766Y-156303D01*
X-87575Y-156492D01*
X-87409Y-156694D01*
X-87269Y-156909D01*
X-87153Y-157139D01*
X-87064Y-157379D01*
X-87003Y-157625D01*
X-86970Y-157878D01*
X-86964Y-158137D01*
X-86986Y-158403D01*
X-87036Y-158675D01*
X-87114Y-158954D01*
X-87220Y-159239D01*
X-87332Y-159482D01*
X-87460Y-159705D01*
X-87602Y-159908D01*
X-87760Y-160091D01*
X-87933Y-160254D01*
X-88120Y-160396D01*
X-88323Y-160518D01*
X-88540Y-160619D01*
X-88768Y-160698D01*
X-89001Y-160752D01*
X-89240Y-160780D01*
X-89485Y-160783D01*
X-89734Y-160760D01*
X-89990Y-160712D01*
X-90251Y-160639D01*
X-90517Y-160540D01*
X-90734Y-160442D01*
X-90936Y-160332D01*
X-91123Y-160212D01*
X-91295Y-160082D01*
X-91452Y-159940D01*
X-91593Y-159788D01*
X-91719Y-159625D01*
X-91830Y-159451D01*
X-92648Y-161822D01*
X-89352Y-163187D01*
X-89680Y-163978D01*
G37*
G36*
X-94756Y-161875D02*
X-95796Y-161445D01*
X-95678Y-155481D01*
X-95579Y-154013D01*
X-96547Y-155121D01*
X-100691Y-159417D01*
X-101731Y-158987D01*
X-95736Y-152929D01*
X-94712Y-153353D01*
X-94756Y-161875D01*
G37*
G36*
X-144607Y-207884D02*
X-144860Y-207871D01*
X-145122Y-207833D01*
X-145392Y-207772D01*
X-145672Y-207686D01*
X-145959Y-207577D01*
X-146247Y-207448D01*
X-146510Y-207308D01*
X-146748Y-207158D01*
X-146962Y-206997D01*
X-147150Y-206826D01*
X-147314Y-206645D01*
X-147453Y-206453D01*
X-147568Y-206251D01*
X-147657Y-206040D01*
X-147720Y-205824D01*
X-147758Y-205603D01*
X-147769Y-205376D01*
X-147755Y-205143D01*
X-147715Y-204905D01*
X-147649Y-204661D01*
X-147558Y-204412D01*
X-147479Y-204238D01*
X-147391Y-204077D01*
X-147294Y-203929D01*
X-147188Y-203793D01*
X-146949Y-203559D01*
X-146674Y-203375D01*
X-146647Y-203364D01*
X-146371Y-203247D01*
X-146048Y-203180D01*
X-145879Y-203170D01*
X-145705Y-203176D01*
X-145526Y-203196D01*
X-145342Y-203233D01*
X-145333Y-203212D01*
X-145584Y-203013D01*
X-145785Y-202784D01*
X-145929Y-202537D01*
X-145936Y-202525D01*
X-146038Y-202235D01*
X-146089Y-201929D01*
X-146088Y-201622D01*
X-146036Y-201312D01*
X-145932Y-201000D01*
X-145835Y-200794D01*
X-145724Y-200606D01*
X-145597Y-200438D01*
X-145456Y-200290D01*
X-145299Y-200160D01*
X-145128Y-200050D01*
X-144942Y-199959D01*
X-144741Y-199887D01*
X-144529Y-199836D01*
X-144309Y-199806D01*
X-144082Y-199798D01*
X-143847Y-199812D01*
X-143604Y-199847D01*
X-143354Y-199905D01*
X-143097Y-199983D01*
X-142831Y-200084D01*
X-142579Y-200198D01*
X-142346Y-200323D01*
X-142134Y-200458D01*
X-141941Y-200604D01*
X-141769Y-200761D01*
X-141617Y-200928D01*
X-141484Y-201106D01*
X-141372Y-201295D01*
X-141282Y-201489D01*
X-141215Y-201686D01*
X-141171Y-201884D01*
X-141151Y-202085D01*
X-141155Y-202287D01*
X-141183Y-202490D01*
X-141233Y-202696D01*
X-141308Y-202903D01*
X-141455Y-203197D01*
X-141637Y-203454D01*
X-141853Y-203672D01*
X-142104Y-203852D01*
X-142380Y-203987D01*
X-142670Y-204068D01*
X-142975Y-204095D01*
X-143294Y-204069D01*
X-143302Y-204089D01*
X-143160Y-204186D01*
X-143030Y-204291D01*
X-142806Y-204529D01*
X-142629Y-204802D01*
X-142502Y-205112D01*
X-142429Y-205444D01*
X-142417Y-205612D01*
X-142420Y-205782D01*
X-142439Y-205954D01*
X-142474Y-206128D01*
X-142524Y-206304D01*
X-142590Y-206482D01*
X-142703Y-206725D01*
X-142830Y-206945D01*
X-142972Y-207142D01*
X-143129Y-207316D01*
X-143300Y-207467D01*
X-143486Y-207595D01*
X-143686Y-207700D01*
X-143901Y-207781D01*
X-144128Y-207839D01*
X-144363Y-207874D01*
X-144607Y-207884D01*
G37*
%LPC*%
G36*
X-144809Y-207063D02*
X-144656Y-207051D01*
X-144511Y-207022D01*
X-144372Y-206976D01*
X-144241Y-206913D01*
X-144116Y-206833D01*
X-143999Y-206737D01*
X-143889Y-206624D01*
X-143786Y-206495D01*
X-143690Y-206348D01*
X-143602Y-206185D01*
X-143520Y-206006D01*
X-143461Y-205846D01*
X-143418Y-205689D01*
X-143392Y-205536D01*
X-143381Y-205387D01*
X-143386Y-205241D01*
X-143407Y-205098D01*
X-143498Y-204824D01*
X-143649Y-204572D01*
X-143747Y-204457D01*
X-143859Y-204349D01*
X-143985Y-204250D01*
X-144126Y-204157D01*
X-144282Y-204073D01*
X-144452Y-203995D01*
X-144805Y-203874D01*
X-145135Y-203813D01*
X-145443Y-203812D01*
X-145727Y-203870D01*
X-145859Y-203922D01*
X-145984Y-203990D01*
X-146099Y-204073D01*
X-146207Y-204172D01*
X-146306Y-204287D01*
X-146397Y-204417D01*
X-146480Y-204563D01*
X-146554Y-204725D01*
X-146628Y-204920D01*
X-146684Y-205106D01*
X-146724Y-205283D01*
X-146746Y-205452D01*
X-146751Y-205612D01*
X-146739Y-205764D01*
X-146709Y-205906D01*
X-146662Y-206041D01*
X-146599Y-206167D01*
X-146518Y-206287D01*
X-146421Y-206401D01*
X-146306Y-206509D01*
X-146175Y-206610D01*
X-146027Y-206704D01*
X-145862Y-206793D01*
X-145681Y-206875D01*
X-145492Y-206946D01*
X-145311Y-207000D01*
X-145136Y-207038D01*
X-144969Y-207059D01*
X-144809Y-207063D01*
G37*
G36*
X-143565Y-203448D02*
X-143290Y-203442D01*
X-143035Y-203379D01*
X-142805Y-203260D01*
X-142603Y-203086D01*
X-142430Y-202856D01*
X-142354Y-202721D01*
X-142286Y-202571D01*
X-142187Y-202273D01*
X-142148Y-201996D01*
X-142168Y-201739D01*
X-142246Y-201502D01*
X-142381Y-201287D01*
X-142572Y-201095D01*
X-142818Y-200925D01*
X-143119Y-200777D01*
X-143444Y-200665D01*
X-143744Y-200609D01*
X-144017Y-200609D01*
X-144263Y-200665D01*
X-144484Y-200778D01*
X-144677Y-200946D01*
X-144845Y-201171D01*
X-144986Y-201452D01*
X-145095Y-201777D01*
X-145127Y-201928D01*
X-145142Y-202072D01*
X-145142Y-202209D01*
X-145126Y-202338D01*
X-145095Y-202460D01*
X-145048Y-202575D01*
X-144912Y-202787D01*
X-144720Y-202977D01*
X-144474Y-203146D01*
X-144173Y-203293D01*
X-143859Y-203398D01*
X-143565Y-203448D01*
G37*
%LPD*%
G36*
X-138916Y-210374D02*
X-139940Y-209949D01*
X-139895Y-201428D01*
X-138855Y-201858D01*
X-138974Y-207822D01*
X-139073Y-209290D01*
X-138105Y-208182D01*
X-133961Y-203886D01*
X-132921Y-204316D01*
X-138916Y-210374D01*
G37*
G36*
X-118223Y-152155D02*
X-119263Y-151725D01*
X-119144Y-145761D01*
X-119045Y-144292D01*
X-120014Y-145401D01*
X-124157Y-149697D01*
X-125197Y-149267D01*
X-119203Y-143209D01*
X-118178Y-143633D01*
X-118223Y-152155D01*
G37*
G36*
X-112810Y-154397D02*
X-117627Y-152402D01*
X-117299Y-151611D01*
X-113383Y-153233D01*
X-113622Y-151989D01*
X-113785Y-150845D01*
X-113839Y-150311D01*
X-113874Y-149801D01*
X-113891Y-149316D01*
X-113888Y-148856D01*
X-113868Y-148415D01*
X-113831Y-147986D01*
X-113778Y-147569D01*
X-113708Y-147165D01*
X-113622Y-146773D01*
X-113518Y-146393D01*
X-113399Y-146025D01*
X-113262Y-145670D01*
X-112290Y-146073D01*
X-112482Y-146579D01*
X-112643Y-147088D01*
X-112771Y-147602D01*
X-112867Y-148118D01*
X-112933Y-148644D01*
X-112972Y-149186D01*
X-112984Y-149742D01*
X-112967Y-150314D01*
X-112916Y-150956D01*
X-112820Y-151725D01*
X-112681Y-152620D01*
X-112497Y-153642D01*
X-112810Y-154397D01*
G37*
G36*
X-24357Y-191036D02*
X-25397Y-190605D01*
X-25278Y-184641D01*
X-25179Y-183173D01*
X-26147Y-184281D01*
X-30291Y-188578D01*
X-31331Y-188147D01*
X-25337Y-182090D01*
X-24312Y-182514D01*
X-24357Y-191036D01*
G37*
G36*
X-20703Y-192549D02*
X-21562Y-192194D01*
X-22794Y-190295D01*
X-22430Y-189416D01*
X-21271Y-191272D01*
X-18948Y-185663D01*
X-20805Y-184894D01*
X-20477Y-184102D01*
X-15909Y-185995D01*
X-16237Y-186786D01*
X-18011Y-186051D01*
X-20703Y-192549D01*
G37*
G36*
X-43640Y-182942D02*
X-43875Y-182929D01*
X-44119Y-182893D01*
X-44372Y-182835D01*
X-44633Y-182755D01*
X-44903Y-182653D01*
X-45145Y-182543D01*
X-45369Y-182423D01*
X-45575Y-182292D01*
X-45763Y-182149D01*
X-45934Y-181996D01*
X-46086Y-181832D01*
X-46221Y-181657D01*
X-46338Y-181470D01*
X-46434Y-181276D01*
X-46509Y-181077D01*
X-46563Y-180872D01*
X-46594Y-180661D01*
X-46604Y-180445D01*
X-46591Y-180224D01*
X-46557Y-179998D01*
X-46501Y-179766D01*
X-45535Y-180082D01*
X-45596Y-180374D01*
X-45604Y-180650D01*
X-45559Y-180910D01*
X-45461Y-181155D01*
X-45314Y-181378D01*
X-45120Y-181573D01*
X-44881Y-181742D01*
X-44596Y-181883D01*
X-44269Y-181993D01*
X-43967Y-182044D01*
X-43688Y-182036D01*
X-43434Y-181967D01*
X-43207Y-181845D01*
X-43010Y-181674D01*
X-42843Y-181454D01*
X-42707Y-181186D01*
X-42654Y-181040D01*
X-42618Y-180896D01*
X-42598Y-180755D01*
X-42595Y-180617D01*
X-42608Y-180481D01*
X-42638Y-180347D01*
X-42746Y-180088D01*
X-42918Y-179846D01*
X-43150Y-179627D01*
X-43443Y-179433D01*
X-43795Y-179262D01*
X-44303Y-179052D01*
X-43968Y-178245D01*
X-43440Y-178464D01*
X-43025Y-178611D01*
X-42643Y-178696D01*
X-42465Y-178715D01*
X-42295Y-178718D01*
X-42134Y-178706D01*
X-41980Y-178678D01*
X-41837Y-178635D01*
X-41704Y-178578D01*
X-41582Y-178506D01*
X-41472Y-178421D01*
X-41372Y-178322D01*
X-41283Y-178208D01*
X-41205Y-178080D01*
X-41138Y-177939D01*
X-41076Y-177771D01*
X-41030Y-177608D01*
X-41002Y-177450D01*
X-40990Y-177298D01*
X-40995Y-177152D01*
X-41017Y-177010D01*
X-41056Y-176874D01*
X-41112Y-176743D01*
X-41269Y-176501D01*
X-41481Y-176286D01*
X-41749Y-176098D01*
X-42073Y-175939D01*
X-42413Y-175822D01*
X-42732Y-175761D01*
X-43029Y-175756D01*
X-43305Y-175807D01*
X-43560Y-175915D01*
X-43794Y-176079D01*
X-44006Y-176298D01*
X-44197Y-176574D01*
X-45123Y-176088D01*
X-44986Y-175867D01*
X-44838Y-175668D01*
X-44679Y-175492D01*
X-44510Y-175337D01*
X-44330Y-175203D01*
X-44140Y-175092D01*
X-43939Y-175003D01*
X-43728Y-174935D01*
X-43507Y-174890D01*
X-43279Y-174865D01*
X-43044Y-174862D01*
X-42801Y-174881D01*
X-42551Y-174920D01*
X-42293Y-174982D01*
X-42027Y-175064D01*
X-41754Y-175168D01*
X-41469Y-175296D01*
X-41208Y-175435D01*
X-40971Y-175584D01*
X-40759Y-175743D01*
X-40570Y-175912D01*
X-40407Y-176091D01*
X-40267Y-176281D01*
X-40152Y-176480D01*
X-40062Y-176688D01*
X-39998Y-176902D01*
X-39959Y-177121D01*
X-39947Y-177347D01*
X-39961Y-177578D01*
X-40000Y-177816D01*
X-40066Y-178059D01*
X-40158Y-178308D01*
X-40235Y-178476D01*
X-40324Y-178631D01*
X-40425Y-178772D01*
X-40536Y-178900D01*
X-40658Y-179015D01*
X-40792Y-179116D01*
X-40937Y-179204D01*
X-41093Y-179279D01*
X-41258Y-179339D01*
X-41429Y-179382D01*
X-41607Y-179409D01*
X-41791Y-179420D01*
X-41982Y-179415D01*
X-42179Y-179393D01*
X-42382Y-179354D01*
X-42593Y-179300D01*
X-42601Y-179321D01*
X-42290Y-179561D01*
X-42038Y-179818D01*
X-41845Y-180092D01*
X-41711Y-180383D01*
X-41637Y-180689D01*
X-41624Y-180847D01*
X-41626Y-181007D01*
X-41644Y-181171D01*
X-41677Y-181338D01*
X-41726Y-181508D01*
X-41791Y-181681D01*
X-41892Y-181898D01*
X-42007Y-182095D01*
X-42136Y-182272D01*
X-42278Y-182428D01*
X-42435Y-182564D01*
X-42605Y-182680D01*
X-42789Y-182775D01*
X-42987Y-182849D01*
X-43196Y-182903D01*
X-43414Y-182934D01*
X-43640Y-182942D01*
G37*
G36*
X-47823Y-181316D02*
X-48863Y-180885D01*
X-48745Y-174921D01*
X-48646Y-173453D01*
X-49614Y-174561D01*
X-53758Y-178858D01*
X-54797Y-178427D01*
X-48803Y-172369D01*
X-47779Y-172794D01*
X-47823Y-181316D01*
G37*
G36*
X-76246Y-236332D02*
X-77126Y-235968D01*
X-76442Y-234317D01*
X-77467Y-233893D01*
X-77162Y-233159D01*
X-76138Y-233583D01*
X-74107Y-228678D01*
X-73129Y-229083D01*
X-71828Y-235380D01*
X-72128Y-236105D01*
X-75563Y-234682D01*
X-76246Y-236332D01*
G37*
%LPC*%
G36*
X-72682Y-235014D02*
X-72722Y-234877D01*
X-72843Y-234378D01*
X-73570Y-230852D01*
X-73631Y-230427D01*
X-73662Y-230093D01*
X-75259Y-233947D01*
X-72682Y-235014D01*
G37*
%LPD*%
G36*
X-68516Y-239534D02*
X-69540Y-239110D01*
X-69496Y-230588D01*
X-68456Y-231019D01*
X-68574Y-236983D01*
X-68673Y-238451D01*
X-67705Y-237343D01*
X-63561Y-233046D01*
X-62522Y-233477D01*
X-68516Y-239534D01*
G37*
G36*
X-45049Y-249254D02*
X-46074Y-248830D01*
X-46029Y-240308D01*
X-44989Y-240739D01*
X-45108Y-246703D01*
X-45207Y-248171D01*
X-44239Y-247063D01*
X-40095Y-242766D01*
X-39055Y-243197D01*
X-45049Y-249254D01*
G37*
G36*
X-49634Y-247355D02*
X-54461Y-245356D01*
X-54134Y-244564D01*
X-50331Y-246139D01*
X-50345Y-245919D01*
X-50382Y-245686D01*
X-50443Y-245438D01*
X-50526Y-245177D01*
X-50767Y-244591D01*
X-51110Y-243908D01*
X-51700Y-242768D01*
X-51900Y-242338D01*
X-52036Y-242002D01*
X-52129Y-241719D01*
X-52198Y-241444D01*
X-52244Y-241180D01*
X-52266Y-240925D01*
X-52264Y-240680D01*
X-52237Y-240445D01*
X-52186Y-240218D01*
X-52110Y-240002D01*
X-52005Y-239773D01*
X-51886Y-239566D01*
X-51755Y-239380D01*
X-51611Y-239215D01*
X-51454Y-239072D01*
X-51284Y-238950D01*
X-51102Y-238849D01*
X-50906Y-238770D01*
X-50700Y-238713D01*
X-50484Y-238678D01*
X-50259Y-238667D01*
X-50025Y-238678D01*
X-49781Y-238712D01*
X-49529Y-238769D01*
X-49267Y-238849D01*
X-48996Y-238952D01*
X-48754Y-239062D01*
X-48531Y-239183D01*
X-48325Y-239315D01*
X-48137Y-239459D01*
X-47968Y-239615D01*
X-47816Y-239782D01*
X-47683Y-239960D01*
X-47568Y-240150D01*
X-47472Y-240347D01*
X-47398Y-240549D01*
X-47346Y-240755D01*
X-47314Y-240965D01*
X-47304Y-241180D01*
X-47315Y-241399D01*
X-47348Y-241622D01*
X-47402Y-241849D01*
X-48390Y-241543D01*
X-48330Y-241244D01*
X-48322Y-240962D01*
X-48368Y-240697D01*
X-48467Y-240447D01*
X-48614Y-240220D01*
X-48804Y-240023D01*
X-49037Y-239856D01*
X-49313Y-239718D01*
X-49618Y-239616D01*
X-49905Y-239569D01*
X-50175Y-239579D01*
X-50428Y-239644D01*
X-50658Y-239762D01*
X-50857Y-239933D01*
X-51027Y-240155D01*
X-51166Y-240429D01*
X-51243Y-240651D01*
X-51290Y-240872D01*
X-51306Y-241092D01*
X-51292Y-241311D01*
X-51254Y-241530D01*
X-51198Y-241752D01*
X-51035Y-242205D01*
X-50816Y-242671D01*
X-50558Y-243154D01*
X-50283Y-243660D01*
X-50016Y-244194D01*
X-49771Y-244761D01*
X-49564Y-245363D01*
X-49481Y-245679D01*
X-49419Y-246007D01*
X-49380Y-246347D01*
X-49362Y-246698D01*
X-49634Y-247355D01*
G37*
G36*
X-121436Y-217467D02*
X-121722Y-217466D01*
X-122014Y-217429D01*
X-122312Y-217356D01*
X-122617Y-217246D01*
X-122881Y-217125D01*
X-123121Y-216988D01*
X-123338Y-216838D01*
X-123531Y-216672D01*
X-123701Y-216492D01*
X-123847Y-216297D01*
X-123970Y-216087D01*
X-124069Y-215863D01*
X-124143Y-215628D01*
X-124192Y-215385D01*
X-124215Y-215136D01*
X-124211Y-214879D01*
X-124182Y-214616D01*
X-124128Y-214345D01*
X-124047Y-214067D01*
X-123940Y-213782D01*
X-123824Y-213527D01*
X-123694Y-213292D01*
X-123551Y-213079D01*
X-123396Y-212887D01*
X-123227Y-212716D01*
X-123046Y-212566D01*
X-122852Y-212438D01*
X-122645Y-212331D01*
X-122429Y-212247D01*
X-122208Y-212188D01*
X-121983Y-212155D01*
X-121752Y-212146D01*
X-121517Y-212163D01*
X-121277Y-212204D01*
X-121032Y-212271D01*
X-120782Y-212363D01*
X-120500Y-212498D01*
X-120246Y-212657D01*
X-120023Y-212839D01*
X-119829Y-213046D01*
X-119668Y-213273D01*
X-119545Y-213517D01*
X-119460Y-213779D01*
X-119412Y-214058D01*
X-119277Y-213714D01*
X-119165Y-213385D01*
X-119075Y-213071D01*
X-119007Y-212772D01*
X-118961Y-212488D01*
X-118938Y-212219D01*
X-118937Y-211966D01*
X-118958Y-211727D01*
X-119001Y-211506D01*
X-119065Y-211303D01*
X-119149Y-211118D01*
X-119255Y-210952D01*
X-119381Y-210805D01*
X-119528Y-210676D01*
X-119696Y-210566D01*
X-119885Y-210474D01*
X-120112Y-210396D01*
X-120330Y-210355D01*
X-120539Y-210349D01*
X-120740Y-210380D01*
X-120932Y-210447D01*
X-121114Y-210551D01*
X-121288Y-210691D01*
X-121454Y-210867D01*
X-122277Y-210338D01*
X-122006Y-210042D01*
X-121717Y-209808D01*
X-121408Y-209637D01*
X-121081Y-209528D01*
X-120910Y-209497D01*
X-120735Y-209481D01*
X-120554Y-209481D01*
X-120370Y-209497D01*
X-120180Y-209528D01*
X-119985Y-209574D01*
X-119786Y-209637D01*
X-119582Y-209714D01*
X-119285Y-209856D01*
X-119018Y-210022D01*
X-118783Y-210212D01*
X-118579Y-210427D01*
X-118406Y-210666D01*
X-118263Y-210929D01*
X-118152Y-211216D01*
X-118072Y-211528D01*
X-118024Y-211861D01*
X-118009Y-212212D01*
X-118026Y-212583D01*
X-118075Y-212972D01*
X-118157Y-213380D01*
X-118272Y-213807D01*
X-118419Y-214252D01*
X-118599Y-214716D01*
X-118785Y-215136D01*
X-118980Y-215521D01*
X-119185Y-215872D01*
X-119400Y-216189D01*
X-119624Y-216471D01*
X-119858Y-216719D01*
X-120102Y-216932D01*
X-120355Y-217110D01*
X-120616Y-217254D01*
X-120883Y-217361D01*
X-121156Y-217432D01*
X-121436Y-217467D01*
G37*
%LPC*%
G36*
X-121788Y-216622D02*
X-121627Y-216620D01*
X-121465Y-216598D01*
X-121305Y-216556D01*
X-121144Y-216495D01*
X-120984Y-216413D01*
X-120829Y-216314D01*
X-120683Y-216201D01*
X-120545Y-216072D01*
X-120417Y-215928D01*
X-120298Y-215770D01*
X-120188Y-215596D01*
X-120087Y-215408D01*
X-119995Y-215204D01*
X-119934Y-215039D01*
X-119890Y-214878D01*
X-119861Y-214721D01*
X-119849Y-214567D01*
X-119853Y-214417D01*
X-119873Y-214271D01*
X-119910Y-214129D01*
X-119962Y-213991D01*
X-120110Y-213735D01*
X-120308Y-213513D01*
X-120426Y-213416D01*
X-120557Y-213327D01*
X-120701Y-213246D01*
X-120858Y-213174D01*
X-121029Y-213111D01*
X-121196Y-213065D01*
X-121360Y-213037D01*
X-121519Y-213026D01*
X-121675Y-213032D01*
X-121826Y-213056D01*
X-121973Y-213097D01*
X-122117Y-213156D01*
X-122255Y-213231D01*
X-122385Y-213323D01*
X-122508Y-213431D01*
X-122623Y-213555D01*
X-122731Y-213696D01*
X-122832Y-213853D01*
X-122925Y-214026D01*
X-123011Y-214216D01*
X-123085Y-214411D01*
X-123142Y-214601D01*
X-123183Y-214784D01*
X-123208Y-214963D01*
X-123216Y-215135D01*
X-123208Y-215302D01*
X-123184Y-215463D01*
X-123143Y-215619D01*
X-123087Y-215767D01*
X-123016Y-215904D01*
X-122930Y-216031D01*
X-122829Y-216147D01*
X-122713Y-216253D01*
X-122582Y-216349D01*
X-122436Y-216434D01*
X-122275Y-216509D01*
X-122113Y-216566D01*
X-121950Y-216604D01*
X-121788Y-216622D01*
G37*
%LPD*%
G36*
X-115449Y-220094D02*
X-116473Y-219670D01*
X-116429Y-211148D01*
X-115389Y-211578D01*
X-115507Y-217542D01*
X-115606Y-219010D01*
X-114638Y-217902D01*
X-110495Y-213606D01*
X-109455Y-214036D01*
X-115449Y-220094D01*
G37*
G36*
X-62300Y-174894D02*
X-62698Y-174883D01*
X-63110Y-174831D01*
X-63537Y-174739D01*
X-63979Y-174607D01*
X-64435Y-174435D01*
X-66846Y-173436D01*
X-63826Y-166147D01*
X-61100Y-167276D01*
X-60843Y-167391D01*
X-60599Y-167516D01*
X-60369Y-167653D01*
X-60153Y-167800D01*
X-59950Y-167958D01*
X-59761Y-168127D01*
X-59585Y-168307D01*
X-59423Y-168498D01*
X-59277Y-168698D01*
X-59146Y-168905D01*
X-59033Y-169120D01*
X-58936Y-169343D01*
X-58855Y-169573D01*
X-58791Y-169811D01*
X-58744Y-170057D01*
X-58713Y-170310D01*
X-58700Y-170569D01*
X-58704Y-170830D01*
X-58725Y-171095D01*
X-58763Y-171363D01*
X-58819Y-171634D01*
X-58892Y-171908D01*
X-58983Y-172186D01*
X-59091Y-172466D01*
X-59279Y-172875D01*
X-59489Y-173247D01*
X-59719Y-173582D01*
X-59971Y-173878D01*
X-60244Y-174138D01*
X-60539Y-174359D01*
X-60854Y-174544D01*
X-61192Y-174690D01*
X-61547Y-174798D01*
X-61916Y-174866D01*
X-62300Y-174894D01*
G37*
%LPC*%
G36*
X-62513Y-173978D02*
X-62225Y-173954D01*
X-61948Y-173900D01*
X-61683Y-173814D01*
X-61431Y-173698D01*
X-61194Y-173553D01*
X-60972Y-173377D01*
X-60765Y-173172D01*
X-60573Y-172937D01*
X-60395Y-172673D01*
X-60232Y-172379D01*
X-60085Y-172055D01*
X-59925Y-171611D01*
X-59818Y-171180D01*
X-59764Y-170762D01*
X-59763Y-170357D01*
X-59815Y-169971D01*
X-59918Y-169608D01*
X-60072Y-169270D01*
X-60277Y-168956D01*
X-60530Y-168671D01*
X-60824Y-168421D01*
X-61162Y-168204D01*
X-61541Y-168021D01*
X-63166Y-167348D01*
X-65530Y-173054D01*
X-64128Y-173635D01*
X-63781Y-173765D01*
X-63447Y-173865D01*
X-63124Y-173933D01*
X-62813Y-173971D01*
X-62513Y-173978D01*
G37*
%LPD*%
G36*
X-68578Y-172719D02*
X-69468Y-172350D01*
X-67488Y-167570D01*
X-67226Y-166981D01*
X-66817Y-166126D01*
X-73348Y-170743D01*
X-74497Y-170267D01*
X-71477Y-162978D01*
X-70597Y-163342D01*
X-72603Y-168185D01*
X-72987Y-169038D01*
X-73221Y-169529D01*
X-66748Y-164936D01*
X-65558Y-165429D01*
X-68578Y-172719D01*
G37*
G36*
X-77580Y-168751D02*
X-77824Y-168747D01*
X-78078Y-168724D01*
X-78340Y-168683D01*
X-78612Y-168623D01*
X-78892Y-168544D01*
X-79181Y-168447D01*
X-79479Y-168331D01*
X-79892Y-168142D01*
X-80267Y-167933D01*
X-80606Y-167704D01*
X-80909Y-167454D01*
X-81174Y-167183D01*
X-81403Y-166893D01*
X-81596Y-166582D01*
X-81751Y-166250D01*
X-81868Y-165902D01*
X-81946Y-165541D01*
X-81982Y-165168D01*
X-81979Y-164781D01*
X-81936Y-164382D01*
X-81853Y-163970D01*
X-81729Y-163546D01*
X-81565Y-163109D01*
X-81440Y-162826D01*
X-81306Y-162559D01*
X-81161Y-162307D01*
X-81007Y-162071D01*
X-80843Y-161849D01*
X-80670Y-161642D01*
X-80487Y-161451D01*
X-80293Y-161274D01*
X-80092Y-161114D01*
X-79883Y-160972D01*
X-79668Y-160847D01*
X-79445Y-160740D01*
X-79216Y-160650D01*
X-78979Y-160578D01*
X-78736Y-160524D01*
X-78485Y-160487D01*
X-78229Y-160468D01*
X-77969Y-160467D01*
X-77705Y-160485D01*
X-77437Y-160521D01*
X-77165Y-160575D01*
X-76889Y-160648D01*
X-76609Y-160739D01*
X-76325Y-160848D01*
X-75851Y-161068D01*
X-75411Y-161321D01*
X-75006Y-161608D01*
X-74636Y-161927D01*
X-74305Y-162273D01*
X-74022Y-162638D01*
X-73784Y-163023D01*
X-73594Y-163428D01*
X-74635Y-165943D01*
X-77724Y-164663D01*
X-77381Y-163836D01*
X-75203Y-164738D01*
X-74659Y-163424D01*
X-74792Y-163162D01*
X-74962Y-162907D01*
X-75170Y-162659D01*
X-75415Y-162419D01*
X-75691Y-162194D01*
X-75990Y-161990D01*
X-76312Y-161809D01*
X-76658Y-161650D01*
X-76967Y-161536D01*
X-77270Y-161455D01*
X-77567Y-161405D01*
X-77857Y-161388D01*
X-78140Y-161402D01*
X-78416Y-161448D01*
X-78686Y-161527D01*
X-78950Y-161637D01*
X-79202Y-161777D01*
X-79440Y-161945D01*
X-79664Y-162140D01*
X-79872Y-162362D01*
X-80067Y-162611D01*
X-80246Y-162888D01*
X-80411Y-163193D01*
X-80562Y-163524D01*
X-80691Y-163866D01*
X-80791Y-164196D01*
X-80862Y-164515D01*
X-80905Y-164824D01*
X-80918Y-165122D01*
X-80902Y-165409D01*
X-80858Y-165685D01*
X-80785Y-165950D01*
X-80683Y-166202D01*
X-80552Y-166438D01*
X-80393Y-166657D01*
X-80206Y-166861D01*
X-79990Y-167048D01*
X-79745Y-167219D01*
X-79472Y-167374D01*
X-79171Y-167513D01*
X-78774Y-167656D01*
X-78396Y-167751D01*
X-78036Y-167795D01*
X-77695Y-167791D01*
X-77369Y-167735D01*
X-77055Y-167624D01*
X-76753Y-167459D01*
X-76464Y-167240D01*
X-75638Y-167910D01*
X-75835Y-168082D01*
X-76038Y-168235D01*
X-76244Y-168368D01*
X-76455Y-168482D01*
X-76671Y-168575D01*
X-76891Y-168649D01*
X-77115Y-168702D01*
X-77344Y-168736D01*
X-77580Y-168751D01*
G37*
G36*
X-100426Y-226317D02*
X-103153Y-225187D01*
X-103410Y-225073D01*
X-103653Y-224947D01*
X-103883Y-224811D01*
X-104099Y-224663D01*
X-104302Y-224505D01*
X-104491Y-224336D01*
X-104667Y-224156D01*
X-104829Y-223966D01*
X-104976Y-223766D01*
X-105106Y-223558D01*
X-105219Y-223343D01*
X-105316Y-223120D01*
X-105397Y-222890D01*
X-105461Y-222652D01*
X-105508Y-222406D01*
X-105539Y-222153D01*
X-105552Y-221895D01*
X-105549Y-221633D01*
X-105527Y-221368D01*
X-105489Y-221100D01*
X-105433Y-220829D01*
X-105360Y-220555D01*
X-105269Y-220278D01*
X-105161Y-219997D01*
X-104973Y-219588D01*
X-104764Y-219216D01*
X-104533Y-218882D01*
X-104281Y-218585D01*
X-104008Y-218326D01*
X-103713Y-218104D01*
X-103398Y-217920D01*
X-103061Y-217773D01*
X-102706Y-217665D01*
X-102336Y-217597D01*
X-101953Y-217569D01*
X-101554Y-217581D01*
X-101142Y-217633D01*
X-100715Y-217725D01*
X-100273Y-217856D01*
X-99817Y-218028D01*
X-97407Y-219027D01*
X-100426Y-226317D01*
G37*
%LPC*%
G36*
X-101086Y-225116D02*
X-98723Y-219409D01*
X-100125Y-218828D01*
X-100471Y-218698D01*
X-100805Y-218599D01*
X-101128Y-218530D01*
X-101439Y-218492D01*
X-101739Y-218485D01*
X-102027Y-218509D01*
X-102304Y-218564D01*
X-102569Y-218649D01*
X-102821Y-218765D01*
X-103058Y-218911D01*
X-103280Y-219086D01*
X-103487Y-219291D01*
X-103680Y-219526D01*
X-103857Y-219791D01*
X-104020Y-220085D01*
X-104168Y-220409D01*
X-104327Y-220852D01*
X-104434Y-221283D01*
X-104488Y-221701D01*
X-104489Y-222106D01*
X-104437Y-222493D01*
X-104335Y-222855D01*
X-104180Y-223193D01*
X-103975Y-223507D01*
X-103723Y-223792D01*
X-103428Y-224043D01*
X-103091Y-224260D01*
X-102711Y-224443D01*
X-101086Y-225116D01*
G37*
%LPD*%
G36*
X-92775Y-229486D02*
X-93655Y-229121D01*
X-91649Y-224279D01*
X-91265Y-223426D01*
X-91031Y-222934D01*
X-97504Y-227527D01*
X-98694Y-227034D01*
X-95674Y-219744D01*
X-94784Y-220113D01*
X-96765Y-224894D01*
X-97027Y-225482D01*
X-97435Y-226337D01*
X-90904Y-221720D01*
X-89756Y-222196D01*
X-92775Y-229486D01*
G37*
G36*
X-86283Y-231996D02*
X-86547Y-231978D01*
X-86815Y-231942D01*
X-87087Y-231888D01*
X-87363Y-231815D01*
X-87643Y-231725D01*
X-87927Y-231615D01*
X-88401Y-231395D01*
X-88841Y-231142D01*
X-89246Y-230856D01*
X-89617Y-230537D01*
X-89947Y-230191D01*
X-90230Y-229825D01*
X-90468Y-229440D01*
X-90658Y-229035D01*
X-89617Y-226521D01*
X-86528Y-227800D01*
X-86871Y-228628D01*
X-89049Y-227726D01*
X-89594Y-229040D01*
X-89461Y-229302D01*
X-89290Y-229556D01*
X-89082Y-229804D01*
X-88837Y-230044D01*
X-88561Y-230270D01*
X-88262Y-230473D01*
X-87940Y-230654D01*
X-87595Y-230813D01*
X-87285Y-230927D01*
X-86982Y-231009D01*
X-86685Y-231058D01*
X-86396Y-231076D01*
X-86112Y-231062D01*
X-85836Y-231015D01*
X-85566Y-230937D01*
X-85303Y-230826D01*
X-85050Y-230686D01*
X-84812Y-230519D01*
X-84589Y-230324D01*
X-84380Y-230102D01*
X-84185Y-229852D01*
X-84006Y-229575D01*
X-83841Y-229271D01*
X-83691Y-228939D01*
X-83561Y-228598D01*
X-83461Y-228268D01*
X-83390Y-227948D01*
X-83348Y-227639D01*
X-83334Y-227341D01*
X-83350Y-227054D01*
X-83394Y-226778D01*
X-83468Y-226513D01*
X-83570Y-226261D01*
X-83700Y-226026D01*
X-83859Y-225806D01*
X-84047Y-225603D01*
X-84263Y-225415D01*
X-84507Y-225244D01*
X-84780Y-225089D01*
X-85081Y-224951D01*
X-85478Y-224807D01*
X-85856Y-224713D01*
X-86216Y-224668D01*
X-86557Y-224673D01*
X-86883Y-224729D01*
X-87197Y-224839D01*
X-87499Y-225004D01*
X-87788Y-225223D01*
X-88614Y-224554D01*
X-88417Y-224381D01*
X-88215Y-224228D01*
X-88008Y-224095D01*
X-87797Y-223982D01*
X-87581Y-223888D01*
X-87362Y-223815D01*
X-87137Y-223761D01*
X-86908Y-223727D01*
X-86672Y-223712D01*
X-86428Y-223717D01*
X-86174Y-223739D01*
X-85912Y-223781D01*
X-85641Y-223841D01*
X-85360Y-223919D01*
X-85071Y-224017D01*
X-84773Y-224133D01*
X-84360Y-224321D01*
X-83985Y-224530D01*
X-83646Y-224760D01*
X-83343Y-225010D01*
X-83078Y-225280D01*
X-82849Y-225571D01*
X-82656Y-225882D01*
X-82501Y-226213D01*
X-82384Y-226561D01*
X-82307Y-226922D01*
X-82270Y-227296D01*
X-82273Y-227682D01*
X-82316Y-228081D01*
X-82400Y-228493D01*
X-82523Y-228918D01*
X-82687Y-229355D01*
X-82812Y-229637D01*
X-82946Y-229904D01*
X-83091Y-230156D01*
X-83245Y-230393D01*
X-83409Y-230615D01*
X-83582Y-230821D01*
X-83766Y-231013D01*
X-83959Y-231189D01*
X-84160Y-231349D01*
X-84369Y-231491D01*
X-84584Y-231616D01*
X-84807Y-231723D01*
X-85036Y-231813D01*
X-85273Y-231885D01*
X-85516Y-231940D01*
X-85767Y-231977D01*
X-86023Y-231995D01*
X-86283Y-231996D01*
G37*
M02*
