G04 EAGLE Gerber RS-274X export*
G75*
%MOMM*%
%FSLAX34Y34*%
%LPD*%
%INBottom Copper*%
%IPPOS*%
%AMOC8*
5,1,8,0,0,1.08239X$1,22.5*%
G01*
G04 Define Apertures*
%ADD10C,0.152400*%
%ADD11C,0.756400*%
D10*
X292608Y144780D02*
X320040Y144780D01*
X292608Y144780D02*
X74676Y362712D01*
D11*
X320040Y144780D03*
X74676Y362712D03*
D10*
X300228Y138684D02*
X304800Y138684D01*
X306324Y140208D01*
X315468Y140208D01*
X316992Y138684D01*
X323088Y138684D01*
X326136Y141732D01*
X326136Y207264D01*
X156972Y376428D01*
X156972Y525780D01*
D11*
X300228Y138684D03*
X156972Y525780D03*
D10*
X318516Y112776D02*
X399288Y112776D01*
X443484Y156972D01*
X548640Y156972D01*
D11*
X318516Y112776D03*
X548640Y156972D03*
D10*
X416052Y134112D02*
X309372Y134112D01*
X416052Y134112D02*
X595884Y313944D01*
X617220Y313944D01*
D11*
X309372Y134112D03*
X617220Y313944D03*
D10*
X329184Y124968D02*
X303276Y124968D01*
X68580Y359664D01*
X68580Y408432D01*
X150876Y490728D01*
X150876Y528828D01*
X167640Y545592D01*
X289560Y545592D01*
X353568Y609600D01*
D11*
X329184Y124968D03*
X353568Y609600D03*
M02*
