G04 EAGLE Gerber RS-274X export*
G75*
%MOMM*%
%FSLAX34Y34*%
%LPD*%
%INTop Copper*%
%IPPOS*%
%AMOC8*
5,1,8,0,0,1.08239X$1,22.5*%
G01*
G04 Define Apertures*
%ADD10R,0.800000X1.200000*%
%ADD11R,1.300000X2.150000*%
%ADD12R,1.200000X0.800000*%
%ADD13R,2.150000X1.300000*%
%ADD14R,0.330200X0.889000*%
%ADD15R,2.057400X0.838200*%
%ADD16C,0.152400*%
%ADD17C,0.756400*%
G36*
X480726Y10220D02*
X480429Y10160D01*
X205398Y10160D01*
X205112Y10216D01*
X204859Y10383D01*
X10383Y204859D01*
X10220Y205101D01*
X10160Y205398D01*
X10160Y480429D01*
X10216Y480715D01*
X10383Y480968D01*
X204859Y675444D01*
X205101Y675607D01*
X205398Y675667D01*
X480429Y675667D01*
X480715Y675612D01*
X480968Y675444D01*
X675444Y480968D01*
X675607Y480726D01*
X675667Y480429D01*
X675667Y205398D01*
X675612Y205112D01*
X675444Y204859D01*
X480968Y10383D01*
X480726Y10220D01*
G37*
%LPC*%
G36*
X217906Y548419D02*
X232785Y546612D01*
X247665Y548419D01*
X261679Y553734D01*
X274015Y562248D01*
X283955Y573468D01*
X290920Y586740D01*
X294507Y601293D01*
X294507Y616282D01*
X290920Y630835D01*
X283955Y644107D01*
X274015Y655326D01*
X261679Y663841D01*
X247665Y669156D01*
X232785Y670963D01*
X217906Y669156D01*
X203891Y663841D01*
X191555Y655326D01*
X181616Y644107D01*
X174650Y630835D01*
X171063Y616282D01*
X171063Y601293D01*
X174650Y586740D01*
X181616Y573468D01*
X191555Y562248D01*
X203891Y553734D01*
X217906Y548419D01*
G37*
G36*
X368100Y645359D02*
X376378Y645359D01*
X376378Y657887D01*
X369588Y657887D01*
X368100Y656399D01*
X368100Y645359D01*
G37*
G36*
X317600Y645359D02*
X325878Y645359D01*
X325878Y657887D01*
X319088Y657887D01*
X317600Y656399D01*
X317600Y645359D01*
G37*
G36*
X327402Y645359D02*
X335680Y645359D01*
X335680Y656399D01*
X334192Y657887D01*
X327402Y657887D01*
X327402Y645359D01*
G37*
G36*
X377902Y645359D02*
X386180Y645359D01*
X386180Y656399D01*
X384692Y657887D01*
X377902Y657887D01*
X377902Y645359D01*
G37*
G36*
X377902Y631307D02*
X384692Y631307D01*
X386180Y632795D01*
X386180Y643835D01*
X377902Y643835D01*
X377902Y631307D01*
G37*
G36*
X369588Y631307D02*
X376378Y631307D01*
X376378Y643835D01*
X368100Y643835D01*
X368100Y632795D01*
X369588Y631307D01*
G37*
G36*
X327402Y631307D02*
X334192Y631307D01*
X335680Y632795D01*
X335680Y643835D01*
X327402Y643835D01*
X327402Y631307D01*
G37*
G36*
X319088Y631307D02*
X325878Y631307D01*
X325878Y643835D01*
X317600Y643835D01*
X317600Y632795D01*
X319088Y631307D01*
G37*
G36*
X444838Y586248D02*
X453042Y584801D01*
X461246Y586248D01*
X468460Y590413D01*
X473815Y596794D01*
X476664Y604622D01*
X476664Y612953D01*
X473815Y620781D01*
X468460Y627162D01*
X461246Y631327D01*
X453042Y632774D01*
X444838Y631327D01*
X437624Y627162D01*
X432269Y620781D01*
X429420Y612953D01*
X429420Y604622D01*
X432269Y596794D01*
X437624Y590413D01*
X444838Y586248D01*
G37*
G36*
X339100Y622409D02*
X344878Y622409D01*
X344878Y630187D01*
X340588Y630187D01*
X339100Y628699D01*
X339100Y622409D01*
G37*
G36*
X351370Y604294D02*
X355766Y604294D01*
X358874Y607402D01*
X358874Y611357D01*
X358902Y611501D01*
X358902Y613361D01*
X358953Y613636D01*
X359117Y613891D01*
X359367Y614063D01*
X359664Y614123D01*
X362771Y614123D01*
X363664Y615016D01*
X363664Y628279D01*
X362771Y629171D01*
X353509Y629171D01*
X353147Y628810D01*
X352917Y628652D01*
X352621Y628587D01*
X352322Y628642D01*
X352070Y628810D01*
X350692Y630187D01*
X346402Y630187D01*
X346402Y613107D01*
X347732Y613107D01*
X347995Y613060D01*
X348253Y612901D01*
X348429Y612654D01*
X348494Y612357D01*
X348438Y612059D01*
X348271Y611807D01*
X348262Y611798D01*
X348262Y607402D01*
X351370Y604294D01*
G37*
G36*
X340588Y613107D02*
X344878Y613107D01*
X344878Y620885D01*
X339100Y620885D01*
X339100Y614595D01*
X340588Y613107D01*
G37*
G36*
X524062Y591555D02*
X529916Y585701D01*
X538774Y594560D01*
X533973Y599361D01*
X531869Y599361D01*
X524062Y591555D01*
G37*
G36*
X530993Y584623D02*
X536847Y578770D01*
X544653Y586577D01*
X544653Y588681D01*
X539852Y593482D01*
X530993Y584623D01*
G37*
G36*
X515178Y580566D02*
X519980Y575765D01*
X528838Y584623D01*
X522985Y590477D01*
X515178Y582670D01*
X515178Y580566D01*
G37*
G36*
X525858Y569886D02*
X527963Y569886D01*
X535769Y577692D01*
X529916Y583546D01*
X521057Y574687D01*
X525858Y569886D01*
G37*
G36*
X136296Y574912D02*
X145154Y566054D01*
X151008Y571907D01*
X143201Y579714D01*
X141097Y579714D01*
X136296Y574912D01*
G37*
G36*
X130417Y566929D02*
X138223Y559123D01*
X144076Y564976D01*
X135218Y573835D01*
X130417Y569033D01*
X130417Y566929D01*
G37*
G36*
X146232Y564976D02*
X155090Y556117D01*
X159892Y560919D01*
X159892Y563023D01*
X152085Y570829D01*
X146232Y564976D01*
G37*
G36*
X523037Y560124D02*
X527123Y556038D01*
X532623Y561538D01*
X529589Y564571D01*
X527485Y564571D01*
X523037Y560124D01*
G37*
G36*
X147107Y550238D02*
X149211Y550238D01*
X154013Y555040D01*
X145154Y563898D01*
X139301Y558045D01*
X147107Y550238D01*
G37*
G36*
X559771Y555846D02*
X565625Y549992D01*
X574483Y558851D01*
X569682Y563652D01*
X567578Y563652D01*
X559771Y555846D01*
G37*
G36*
X438163Y16671D02*
X453042Y14865D01*
X467922Y16671D01*
X481936Y21986D01*
X494272Y30501D01*
X504211Y41720D01*
X511177Y54992D01*
X514764Y69546D01*
X514764Y84535D01*
X511177Y99088D01*
X504211Y112360D01*
X494272Y123579D01*
X481936Y132094D01*
X467922Y137409D01*
X453042Y139215D01*
X438163Y137409D01*
X424148Y132094D01*
X411812Y123579D01*
X401873Y112360D01*
X394907Y99088D01*
X392408Y88948D01*
X392232Y88618D01*
X391987Y88438D01*
X391692Y88368D01*
X391393Y88419D01*
X391138Y88583D01*
X390966Y88833D01*
X390906Y89130D01*
X390906Y233433D01*
X390962Y233719D01*
X391129Y233972D01*
X540258Y383101D01*
X540258Y538919D01*
X538953Y540224D01*
X538795Y540454D01*
X538730Y540750D01*
X538786Y541048D01*
X538953Y541301D01*
X544557Y546904D01*
X544557Y548167D01*
X538007Y554717D01*
X537496Y554717D01*
X537221Y554768D01*
X536966Y554931D01*
X536794Y555181D01*
X536734Y555479D01*
X536734Y557427D01*
X533700Y560460D01*
X521623Y548383D01*
X524656Y545349D01*
X526604Y545349D01*
X526879Y545298D01*
X527135Y545135D01*
X527306Y544884D01*
X527366Y544587D01*
X527366Y544076D01*
X533916Y537526D01*
X534869Y537526D01*
X535155Y537471D01*
X535408Y537303D01*
X535463Y537248D01*
X535626Y537007D01*
X535686Y536709D01*
X535686Y385311D01*
X535630Y385025D01*
X535463Y384772D01*
X430463Y279772D01*
X430134Y279578D01*
X429831Y279554D01*
X429544Y279650D01*
X429316Y279851D01*
X429185Y280124D01*
X429171Y280427D01*
X429276Y280712D01*
X438362Y295386D01*
X445470Y313734D01*
X449086Y333075D01*
X449086Y352752D01*
X445470Y372094D01*
X438362Y390441D01*
X428004Y407171D01*
X414748Y421712D01*
X399045Y433570D01*
X381432Y442340D01*
X362506Y447725D01*
X342914Y449540D01*
X323321Y447725D01*
X304396Y442340D01*
X286782Y433570D01*
X271079Y421712D01*
X257824Y407171D01*
X247465Y390441D01*
X240357Y372094D01*
X236742Y352752D01*
X236742Y333075D01*
X240357Y313734D01*
X247465Y295386D01*
X257824Y278656D01*
X271079Y264115D01*
X286782Y252258D01*
X304396Y243487D01*
X323321Y238102D01*
X342914Y236287D01*
X362506Y238102D01*
X381432Y243487D01*
X399045Y252258D01*
X406227Y257681D01*
X406650Y257834D01*
X406950Y257788D01*
X407208Y257629D01*
X407383Y257381D01*
X407449Y257085D01*
X407393Y256787D01*
X407225Y256534D01*
X386334Y235643D01*
X386334Y85083D01*
X386278Y84797D01*
X386111Y84544D01*
X356891Y55324D01*
X356671Y55171D01*
X356376Y55101D01*
X356077Y55152D01*
X355822Y55315D01*
X355650Y55565D01*
X355590Y55863D01*
X355590Y61368D01*
X348288Y61368D01*
X348288Y70670D01*
X343966Y70670D01*
X343703Y70717D01*
X343445Y70876D01*
X343269Y71123D01*
X343204Y71419D01*
X343260Y71718D01*
X343427Y71970D01*
X343662Y72205D01*
X343662Y139631D01*
X341567Y141726D01*
X341409Y141956D01*
X341344Y142252D01*
X341400Y142551D01*
X341567Y142803D01*
X341696Y142932D01*
X341696Y144194D01*
X334517Y151373D01*
X333254Y151373D01*
X330840Y148959D01*
X330609Y148801D01*
X330313Y148736D01*
X330015Y148791D01*
X329762Y148959D01*
X325559Y153162D01*
X168217Y153162D01*
X157538Y142482D01*
X157307Y142324D01*
X157011Y142259D01*
X156713Y142315D01*
X156460Y142482D01*
X154451Y144491D01*
X153189Y144491D01*
X143811Y135113D01*
X143811Y133850D01*
X150360Y127301D01*
X150872Y127301D01*
X151146Y127250D01*
X151402Y127086D01*
X151573Y126836D01*
X151634Y126539D01*
X151634Y124591D01*
X154667Y121557D01*
X166745Y133635D01*
X163711Y136668D01*
X161763Y136668D01*
X161488Y136719D01*
X161233Y136883D01*
X161061Y137133D01*
X161001Y137430D01*
X161001Y137941D01*
X160770Y138172D01*
X160612Y138402D01*
X160547Y138699D01*
X160603Y138997D01*
X160770Y139250D01*
X169888Y148367D01*
X170129Y148530D01*
X170427Y148590D01*
X314507Y148590D01*
X314770Y148543D01*
X315028Y148384D01*
X315203Y148136D01*
X315268Y147840D01*
X315213Y147542D01*
X315045Y147289D01*
X314734Y146978D01*
X314734Y142967D01*
X314687Y142703D01*
X314528Y142445D01*
X314280Y142270D01*
X313984Y142205D01*
X313686Y142260D01*
X313433Y142428D01*
X313367Y142494D01*
X304237Y142494D01*
X303951Y142550D01*
X303699Y142717D01*
X302426Y143990D01*
X298030Y143990D01*
X294922Y140882D01*
X294922Y136486D01*
X298030Y133378D01*
X302426Y133378D01*
X302765Y133717D01*
X302985Y133870D01*
X303280Y133940D01*
X303579Y133889D01*
X303834Y133726D01*
X304006Y133476D01*
X304066Y133179D01*
X304066Y131914D01*
X306863Y129117D01*
X307026Y128876D01*
X307082Y128597D01*
X308241Y127438D01*
X308399Y127208D01*
X308464Y126911D01*
X308409Y126613D01*
X308241Y126360D01*
X298207Y116326D01*
X298207Y115063D01*
X305386Y107884D01*
X306648Y107884D01*
X311909Y113146D01*
X312129Y113299D01*
X312424Y113368D01*
X312723Y113318D01*
X312978Y113154D01*
X313150Y112904D01*
X313210Y112607D01*
X313210Y110578D01*
X316318Y107470D01*
X320714Y107470D01*
X323822Y110578D01*
X323822Y114974D01*
X320714Y118082D01*
X318685Y118082D01*
X318422Y118129D01*
X318164Y118288D01*
X317988Y118536D01*
X317923Y118832D01*
X317979Y119130D01*
X318146Y119383D01*
X319731Y120967D01*
X319961Y121125D01*
X320257Y121190D01*
X320555Y121134D01*
X320808Y120967D01*
X325151Y116624D01*
X325314Y116383D01*
X325374Y116085D01*
X325374Y53917D01*
X325521Y53770D01*
X325674Y53551D01*
X325744Y53256D01*
X325693Y52957D01*
X325529Y52701D01*
X325279Y52530D01*
X324982Y52470D01*
X318312Y52470D01*
X318312Y39942D01*
X326590Y39942D01*
X326590Y50861D01*
X326637Y51125D01*
X326796Y51383D01*
X327044Y51558D01*
X327340Y51623D01*
X327638Y51568D01*
X327891Y51400D01*
X331285Y48006D01*
X356039Y48006D01*
X357709Y49676D01*
X357929Y49829D01*
X358224Y49899D01*
X358523Y49848D01*
X358778Y49685D01*
X358950Y49435D01*
X359010Y49137D01*
X359010Y39942D01*
X367288Y39942D01*
X367288Y52470D01*
X362342Y52470D01*
X362079Y52517D01*
X361821Y52676D01*
X361645Y52923D01*
X361580Y53219D01*
X361636Y53518D01*
X361803Y53770D01*
X390019Y81986D01*
X390239Y82139D01*
X390534Y82209D01*
X390833Y82158D01*
X391088Y81995D01*
X391260Y81745D01*
X391320Y81448D01*
X391320Y69546D01*
X394907Y54992D01*
X401873Y41720D01*
X411812Y30501D01*
X424148Y21986D01*
X438163Y16671D01*
G37*
G36*
X517512Y552494D02*
X520545Y549460D01*
X526045Y554960D01*
X521959Y559046D01*
X517512Y554598D01*
X517512Y552494D01*
G37*
G36*
X566702Y548915D02*
X572556Y543061D01*
X580362Y550868D01*
X580362Y552972D01*
X575561Y557773D01*
X566702Y548915D01*
G37*
G36*
X550887Y544857D02*
X555688Y540056D01*
X564547Y548915D01*
X558694Y554768D01*
X550887Y546961D01*
X550887Y544857D01*
G37*
G36*
X561567Y534177D02*
X563672Y534177D01*
X571478Y541984D01*
X565625Y547837D01*
X556766Y538978D01*
X561567Y534177D01*
G37*
G36*
X100587Y539203D02*
X109445Y530345D01*
X115299Y536198D01*
X107492Y544005D01*
X105388Y544005D01*
X100587Y539203D01*
G37*
G36*
X154774Y520474D02*
X159170Y520474D01*
X162278Y523582D01*
X162278Y527978D01*
X159170Y531086D01*
X156201Y531086D01*
X155937Y531133D01*
X155679Y531292D01*
X155504Y531540D01*
X155439Y531836D01*
X155494Y532134D01*
X155662Y532387D01*
X156542Y533267D01*
X156542Y534530D01*
X147164Y543908D01*
X145902Y543908D01*
X139352Y537358D01*
X139352Y536847D01*
X139301Y536572D01*
X139137Y536317D01*
X138887Y536145D01*
X138590Y536085D01*
X136642Y536085D01*
X133609Y533051D01*
X145686Y520974D01*
X148719Y524008D01*
X148719Y525956D01*
X148771Y526230D01*
X148934Y526486D01*
X149184Y526657D01*
X149481Y526718D01*
X149993Y526718D01*
X150365Y527090D01*
X150585Y527243D01*
X150880Y527313D01*
X151179Y527262D01*
X151434Y527099D01*
X151606Y526849D01*
X151666Y526551D01*
X151666Y523582D01*
X154774Y520474D01*
G37*
G36*
X94708Y531220D02*
X102514Y523414D01*
X108368Y529267D01*
X99509Y538126D01*
X94708Y533324D01*
X94708Y531220D01*
G37*
G36*
X110523Y529267D02*
X119381Y520408D01*
X124183Y525210D01*
X124183Y527314D01*
X116376Y535120D01*
X110523Y529267D01*
G37*
G36*
X129497Y526836D02*
X133945Y522388D01*
X138031Y526474D01*
X132531Y531974D01*
X129497Y528940D01*
X129497Y526836D01*
G37*
G36*
X111398Y514529D02*
X113503Y514529D01*
X118304Y519331D01*
X109445Y528189D01*
X103592Y522336D01*
X111398Y514529D01*
G37*
G36*
X139470Y516863D02*
X141575Y516863D01*
X144608Y519897D01*
X139108Y525396D01*
X135023Y521311D01*
X139470Y516863D01*
G37*
G36*
X593908Y392673D02*
X608787Y390867D01*
X623667Y392673D01*
X637682Y397989D01*
X650017Y406503D01*
X659957Y417723D01*
X666922Y430995D01*
X670509Y445548D01*
X670509Y460537D01*
X666922Y475090D01*
X659957Y488362D01*
X650017Y499581D01*
X637682Y508096D01*
X623667Y513411D01*
X608787Y515217D01*
X593908Y513411D01*
X579893Y508096D01*
X567557Y499581D01*
X557618Y488362D01*
X550652Y475090D01*
X547065Y460537D01*
X547065Y445548D01*
X550652Y430995D01*
X557618Y417723D01*
X567557Y406503D01*
X579893Y397989D01*
X593908Y392673D01*
G37*
G36*
X68836Y430502D02*
X77040Y429056D01*
X85244Y430502D01*
X92458Y434667D01*
X97813Y441049D01*
X100662Y448877D01*
X100662Y457207D01*
X97813Y465035D01*
X92458Y471417D01*
X85244Y475582D01*
X77040Y477028D01*
X68836Y475582D01*
X61622Y471417D01*
X56267Y465035D01*
X53418Y457207D01*
X53418Y448877D01*
X56267Y441049D01*
X61622Y434667D01*
X68836Y430502D01*
G37*
G36*
X26670Y386792D02*
X39198Y386792D01*
X39198Y395070D01*
X28158Y395070D01*
X26670Y393582D01*
X26670Y386792D01*
G37*
G36*
X40722Y386792D02*
X53250Y386792D01*
X53250Y393582D01*
X51762Y395070D01*
X40722Y395070D01*
X40722Y386792D01*
G37*
G36*
X28158Y376990D02*
X39198Y376990D01*
X39198Y385268D01*
X26670Y385268D01*
X26670Y378478D01*
X28158Y376990D01*
G37*
G36*
X40722Y376990D02*
X51762Y376990D01*
X53250Y378478D01*
X53250Y385268D01*
X40722Y385268D01*
X40722Y376990D01*
G37*
G36*
X54370Y355292D02*
X71450Y355292D01*
X71450Y356644D01*
X71501Y356919D01*
X71665Y357174D01*
X71915Y357346D01*
X72212Y357406D01*
X76874Y357406D01*
X79982Y360514D01*
X79982Y364910D01*
X76874Y368018D01*
X72919Y368018D01*
X72775Y368046D01*
X71196Y368046D01*
X70921Y368097D01*
X70666Y368261D01*
X70494Y368511D01*
X70434Y368808D01*
X70434Y371661D01*
X69541Y372554D01*
X56279Y372554D01*
X55386Y371661D01*
X55386Y362399D01*
X55748Y362037D01*
X55906Y361807D01*
X55971Y361511D01*
X55915Y361212D01*
X55748Y360960D01*
X54370Y359582D01*
X54370Y355292D01*
G37*
G36*
X633230Y356112D02*
X645758Y356112D01*
X645758Y364390D01*
X634718Y364390D01*
X633230Y362902D01*
X633230Y356112D01*
G37*
G36*
X647282Y356112D02*
X659810Y356112D01*
X659810Y362902D01*
X658322Y364390D01*
X647282Y364390D01*
X647282Y356112D01*
G37*
G36*
X647282Y346310D02*
X658322Y346310D01*
X659810Y347798D01*
X659810Y354588D01*
X647282Y354588D01*
X647282Y346310D01*
G37*
G36*
X634718Y346310D02*
X645758Y346310D01*
X645758Y354588D01*
X633230Y354588D01*
X633230Y347798D01*
X634718Y346310D01*
G37*
G36*
X63672Y347990D02*
X69962Y347990D01*
X71450Y349478D01*
X71450Y353768D01*
X63672Y353768D01*
X63672Y347990D01*
G37*
G36*
X55858Y347990D02*
X62148Y347990D01*
X62148Y353768D01*
X54370Y353768D01*
X54370Y349478D01*
X55858Y347990D01*
G37*
G36*
X26670Y336292D02*
X39198Y336292D01*
X39198Y344570D01*
X28158Y344570D01*
X26670Y343082D01*
X26670Y336292D01*
G37*
G36*
X40722Y336292D02*
X53250Y336292D01*
X53250Y343082D01*
X51762Y344570D01*
X40722Y344570D01*
X40722Y336292D01*
G37*
G36*
X615030Y337112D02*
X622808Y337112D01*
X622808Y342890D01*
X616518Y342890D01*
X615030Y341402D01*
X615030Y337112D01*
G37*
G36*
X624332Y337112D02*
X632110Y337112D01*
X632110Y341402D01*
X630622Y342890D01*
X624332Y342890D01*
X624332Y337112D01*
G37*
G36*
X615022Y308638D02*
X619418Y308638D01*
X622526Y311746D01*
X622526Y315701D01*
X622582Y315987D01*
X622749Y316240D01*
X624612Y318103D01*
X624853Y318266D01*
X625151Y318326D01*
X630201Y318326D01*
X631094Y319219D01*
X631094Y328481D01*
X630733Y328843D01*
X630575Y329073D01*
X630509Y329369D01*
X630565Y329668D01*
X630733Y329920D01*
X632110Y331298D01*
X632110Y335588D01*
X615030Y335588D01*
X615030Y331298D01*
X616408Y329920D01*
X616566Y329690D01*
X616631Y329394D01*
X616575Y329096D01*
X616408Y328843D01*
X616046Y328481D01*
X616046Y320012D01*
X615995Y319737D01*
X615831Y319482D01*
X615581Y319310D01*
X615284Y319250D01*
X615022Y319250D01*
X611914Y316142D01*
X611914Y311746D01*
X615022Y308638D01*
G37*
G36*
X40722Y326490D02*
X51762Y326490D01*
X53250Y327978D01*
X53250Y334768D01*
X40722Y334768D01*
X40722Y326490D01*
G37*
G36*
X28158Y326490D02*
X39198Y326490D01*
X39198Y334768D01*
X26670Y334768D01*
X26670Y327978D01*
X28158Y326490D01*
G37*
G36*
X633230Y305612D02*
X645758Y305612D01*
X645758Y313890D01*
X634718Y313890D01*
X633230Y312402D01*
X633230Y305612D01*
G37*
G36*
X647282Y305612D02*
X659810Y305612D01*
X659810Y312402D01*
X658322Y313890D01*
X647282Y313890D01*
X647282Y305612D01*
G37*
G36*
X634718Y295810D02*
X645758Y295810D01*
X645758Y304088D01*
X633230Y304088D01*
X633230Y297298D01*
X634718Y295810D01*
G37*
G36*
X647282Y295810D02*
X658322Y295810D01*
X659810Y297298D01*
X659810Y304088D01*
X647282Y304088D01*
X647282Y295810D01*
G37*
G36*
X62160Y172417D02*
X77040Y170610D01*
X91920Y172417D01*
X105934Y177732D01*
X118270Y186246D01*
X128209Y197466D01*
X135175Y210738D01*
X138762Y225291D01*
X138762Y240280D01*
X135175Y254833D01*
X128209Y268105D01*
X118270Y279324D01*
X105934Y287839D01*
X91920Y293154D01*
X77040Y294961D01*
X62160Y293154D01*
X48146Y287839D01*
X35810Y279324D01*
X25871Y268105D01*
X18905Y254833D01*
X15318Y240280D01*
X15318Y225291D01*
X18905Y210738D01*
X25871Y197466D01*
X35810Y186246D01*
X48146Y177732D01*
X62160Y172417D01*
G37*
G36*
X600583Y210245D02*
X608787Y208799D01*
X616991Y210245D01*
X624205Y214411D01*
X629560Y220792D01*
X632409Y228620D01*
X632409Y236950D01*
X629560Y244778D01*
X624205Y251160D01*
X616991Y255325D01*
X608787Y256772D01*
X600583Y255325D01*
X593369Y251160D01*
X588014Y244778D01*
X585165Y236950D01*
X585165Y228620D01*
X588014Y220792D01*
X593369Y214411D01*
X600583Y210245D01*
G37*
G36*
X329110Y168249D02*
X330373Y168249D01*
X337193Y175068D01*
X337193Y176331D01*
X321752Y191772D01*
X320489Y191772D01*
X313670Y184952D01*
X313670Y183689D01*
X329110Y168249D01*
G37*
G36*
X587181Y177264D02*
X596040Y168406D01*
X601893Y174259D01*
X594087Y182066D01*
X591982Y182066D01*
X587181Y177264D01*
G37*
G36*
X560877Y176699D02*
X566377Y171199D01*
X570462Y175284D01*
X566015Y179732D01*
X563910Y179732D01*
X560877Y176699D01*
G37*
G36*
X581302Y169281D02*
X589109Y161475D01*
X594962Y167328D01*
X586104Y176187D01*
X581302Y171385D01*
X581302Y169281D01*
G37*
G36*
X546442Y151666D02*
X550838Y151666D01*
X553946Y154774D01*
X553946Y155222D01*
X553993Y155486D01*
X554152Y155744D01*
X554400Y155919D01*
X554696Y155984D01*
X554994Y155929D01*
X555247Y155761D01*
X558321Y152687D01*
X559583Y152687D01*
X566133Y159237D01*
X566133Y159748D01*
X566184Y160023D01*
X566348Y160278D01*
X566598Y160450D01*
X566895Y160510D01*
X568843Y160510D01*
X571877Y163544D01*
X559799Y175621D01*
X556766Y172587D01*
X556766Y170639D01*
X556714Y170365D01*
X556551Y170109D01*
X556301Y169938D01*
X556004Y169877D01*
X555492Y169877D01*
X548943Y163328D01*
X548943Y163040D01*
X548892Y162765D01*
X548728Y162510D01*
X548478Y162338D01*
X548181Y162278D01*
X546442Y162278D01*
X543334Y159170D01*
X543334Y154774D01*
X546442Y151666D01*
G37*
G36*
X567454Y170121D02*
X572954Y164621D01*
X575988Y167655D01*
X575988Y169759D01*
X571540Y174207D01*
X567454Y170121D01*
G37*
G36*
X597117Y167328D02*
X605976Y158469D01*
X610777Y163271D01*
X610777Y165375D01*
X602971Y173181D01*
X597117Y167328D01*
G37*
G36*
X597993Y152590D02*
X600097Y152590D01*
X604898Y157392D01*
X596040Y166250D01*
X590186Y160397D01*
X597993Y152590D01*
G37*
G36*
X116889Y140034D02*
X122743Y134180D01*
X131601Y143039D01*
X126800Y147840D01*
X124696Y147840D01*
X116889Y140034D01*
G37*
G36*
X551472Y141555D02*
X560331Y132697D01*
X566184Y138550D01*
X558378Y146357D01*
X556274Y146357D01*
X551472Y141555D01*
G37*
G36*
X123820Y133103D02*
X129674Y127249D01*
X137480Y135056D01*
X137480Y137160D01*
X132679Y141961D01*
X123820Y133103D01*
G37*
G36*
X545593Y133572D02*
X553400Y125766D01*
X559253Y131619D01*
X550395Y140478D01*
X545593Y135676D01*
X545593Y133572D01*
G37*
G36*
X108005Y129046D02*
X112807Y124244D01*
X121665Y133103D01*
X115812Y138956D01*
X108005Y131150D01*
X108005Y129046D01*
G37*
G36*
X561409Y131619D02*
X570267Y122760D01*
X575068Y127562D01*
X575068Y129666D01*
X567262Y137472D01*
X561409Y131619D01*
G37*
G36*
X273249Y112387D02*
X274512Y112387D01*
X281331Y119207D01*
X281331Y120470D01*
X265891Y135910D01*
X264628Y135910D01*
X257808Y129091D01*
X257808Y127828D01*
X273249Y112387D01*
G37*
G36*
X162322Y127057D02*
X166408Y122971D01*
X170856Y127419D01*
X170856Y129523D01*
X167822Y132557D01*
X162322Y127057D01*
G37*
G36*
X118685Y118365D02*
X120790Y118365D01*
X128596Y126172D01*
X122743Y132025D01*
X113884Y123167D01*
X118685Y118365D01*
G37*
G36*
X562284Y116881D02*
X564388Y116881D01*
X569190Y121683D01*
X560331Y130541D01*
X554477Y124688D01*
X562284Y116881D01*
G37*
G36*
X158778Y117446D02*
X160883Y117446D01*
X165330Y121894D01*
X161245Y125979D01*
X155745Y120480D01*
X158778Y117446D01*
G37*
G36*
X152598Y104325D02*
X158452Y98472D01*
X167310Y107330D01*
X162509Y112131D01*
X160405Y112131D01*
X152598Y104325D01*
G37*
G36*
X159529Y97394D02*
X165383Y91541D01*
X173189Y99347D01*
X173189Y101451D01*
X168388Y106253D01*
X159529Y97394D01*
G37*
G36*
X143714Y93337D02*
X148515Y88535D01*
X157374Y97394D01*
X151521Y103247D01*
X143714Y95441D01*
X143714Y93337D01*
G37*
G36*
X224581Y54500D02*
X232785Y53054D01*
X240989Y54500D01*
X248203Y58665D01*
X253558Y65047D01*
X256407Y72875D01*
X256407Y81205D01*
X253558Y89033D01*
X248203Y95415D01*
X240989Y99580D01*
X232785Y101026D01*
X224581Y99580D01*
X217367Y95415D01*
X212012Y89033D01*
X209163Y81205D01*
X209163Y72875D01*
X212012Y65047D01*
X217367Y58665D01*
X224581Y54500D01*
G37*
G36*
X154394Y82656D02*
X156499Y82656D01*
X164305Y90463D01*
X158452Y96316D01*
X149593Y87458D01*
X154394Y82656D01*
G37*
G36*
X349812Y62892D02*
X355590Y62892D01*
X355590Y69182D01*
X354102Y70670D01*
X349812Y70670D01*
X349812Y62892D01*
G37*
G36*
X368812Y39942D02*
X377090Y39942D01*
X377090Y50982D01*
X375602Y52470D01*
X368812Y52470D01*
X368812Y39942D01*
G37*
G36*
X308510Y39942D02*
X316788Y39942D01*
X316788Y52470D01*
X309998Y52470D01*
X308510Y50982D01*
X308510Y39942D01*
G37*
G36*
X368812Y25890D02*
X375602Y25890D01*
X377090Y27377D01*
X377090Y38418D01*
X368812Y38418D01*
X368812Y25890D01*
G37*
G36*
X360498Y25890D02*
X367288Y25890D01*
X367288Y38418D01*
X359010Y38418D01*
X359010Y27377D01*
X360498Y25890D01*
G37*
G36*
X318312Y25890D02*
X325102Y25890D01*
X326590Y27377D01*
X326590Y38418D01*
X318312Y38418D01*
X318312Y25890D01*
G37*
G36*
X309998Y25890D02*
X316788Y25890D01*
X316788Y38418D01*
X308510Y38418D01*
X308510Y27377D01*
X309998Y25890D01*
G37*
%LPD*%
D10*
G36*
X550467Y162696D02*
X556124Y168353D01*
X564609Y159868D01*
X558952Y154211D01*
X550467Y162696D01*
G37*
G36*
X559306Y171535D02*
X564963Y177192D01*
X573448Y168707D01*
X567791Y163050D01*
X559306Y171535D01*
G37*
D11*
G36*
X548134Y134624D02*
X557326Y143816D01*
X572528Y128614D01*
X563336Y119422D01*
X548134Y134624D01*
G37*
G36*
X583843Y170333D02*
X593035Y179525D01*
X608237Y164323D01*
X599045Y155131D01*
X583843Y170333D01*
G37*
D12*
X623570Y323850D03*
X623570Y336350D03*
D13*
X646520Y304850D03*
X646520Y355350D03*
D10*
G36*
X534548Y539051D02*
X528891Y544708D01*
X537376Y553193D01*
X543033Y547536D01*
X534548Y539051D01*
G37*
G36*
X525709Y547889D02*
X520052Y553546D01*
X528537Y562031D01*
X534194Y556374D01*
X525709Y547889D01*
G37*
D11*
G36*
X562620Y536718D02*
X553428Y545910D01*
X568630Y561112D01*
X577822Y551920D01*
X562620Y536718D01*
G37*
G36*
X526911Y572426D02*
X517719Y581618D01*
X532921Y596820D01*
X542113Y587628D01*
X526911Y572426D01*
G37*
D10*
X358140Y621647D03*
X345640Y621647D03*
D11*
X377140Y644597D03*
X326640Y644597D03*
D10*
G36*
X155018Y533899D02*
X149361Y528242D01*
X140876Y536727D01*
X146533Y542384D01*
X155018Y533899D01*
G37*
G36*
X146179Y525060D02*
X140522Y519403D01*
X132037Y527888D01*
X137694Y533545D01*
X146179Y525060D01*
G37*
D11*
G36*
X157351Y561971D02*
X148159Y552779D01*
X132957Y567981D01*
X142149Y577173D01*
X157351Y561971D01*
G37*
G36*
X121642Y526262D02*
X112450Y517070D01*
X97248Y532272D01*
X106440Y541464D01*
X121642Y526262D01*
G37*
D12*
X62910Y367030D03*
X62910Y354530D03*
D13*
X39960Y386030D03*
X39960Y335530D03*
D10*
G36*
X153820Y142967D02*
X159477Y137310D01*
X150992Y128825D01*
X145335Y134482D01*
X153820Y142967D01*
G37*
G36*
X162659Y134128D02*
X168316Y128471D01*
X159831Y119986D01*
X154174Y125643D01*
X162659Y134128D01*
G37*
D11*
G36*
X125748Y145300D02*
X134940Y136108D01*
X119738Y120906D01*
X110546Y130098D01*
X125748Y145300D01*
G37*
G36*
X161457Y109591D02*
X170649Y100399D01*
X155447Y85197D01*
X146255Y94389D01*
X161457Y109591D01*
G37*
D10*
X336550Y62130D03*
X349050Y62130D03*
D11*
X317550Y39180D03*
X368050Y39180D03*
D14*
G36*
X331551Y147514D02*
X333886Y149849D01*
X340171Y143564D01*
X337836Y141229D01*
X331551Y147514D01*
G37*
G36*
X328015Y143978D02*
X330350Y146313D01*
X336635Y140028D01*
X334300Y137693D01*
X328015Y143978D01*
G37*
G36*
X324480Y140443D02*
X326815Y142778D01*
X333100Y136493D01*
X330765Y134158D01*
X324480Y140443D01*
G37*
G36*
X320944Y136907D02*
X323279Y139242D01*
X329564Y132957D01*
X327229Y130622D01*
X320944Y136907D01*
G37*
G36*
X317409Y133372D02*
X319744Y135707D01*
X326029Y129422D01*
X323694Y127087D01*
X317409Y133372D01*
G37*
G36*
X313873Y129836D02*
X316208Y132171D01*
X322493Y125886D01*
X320158Y123551D01*
X313873Y129836D01*
G37*
G36*
X310338Y126301D02*
X312673Y128636D01*
X318958Y122351D01*
X316623Y120016D01*
X310338Y126301D01*
G37*
G36*
X306802Y122765D02*
X309137Y125100D01*
X315422Y118815D01*
X313087Y116480D01*
X306802Y122765D01*
G37*
G36*
X303267Y119230D02*
X305602Y121565D01*
X311887Y115280D01*
X309552Y112945D01*
X303267Y119230D01*
G37*
G36*
X299731Y115694D02*
X302066Y118029D01*
X308351Y111744D01*
X306016Y109409D01*
X299731Y115694D01*
G37*
D15*
G36*
X329741Y169773D02*
X315194Y184320D01*
X321121Y190247D01*
X335668Y175700D01*
X329741Y169773D01*
G37*
G36*
X273880Y113912D02*
X259333Y128459D01*
X265260Y134386D01*
X279807Y119839D01*
X273880Y113912D01*
G37*
D16*
X336804Y143256D02*
X336804Y144780D01*
X336804Y143256D02*
X341376Y138684D01*
X341376Y73152D01*
X336804Y68580D01*
X336804Y62484D01*
X336804Y144780D02*
X335861Y145539D01*
X336804Y62484D02*
X336550Y62130D01*
X332232Y143256D02*
X324612Y150876D01*
X169164Y150876D01*
X153924Y135636D01*
X332232Y143256D02*
X332325Y142003D01*
X153924Y135636D02*
X152406Y135896D01*
X327660Y138684D02*
X327660Y140208D01*
X323088Y144780D01*
X320040Y144780D01*
X74676Y362712D02*
X71628Y365760D01*
X64008Y365760D01*
X327660Y138684D02*
X328790Y138468D01*
X64008Y365760D02*
X62910Y367030D01*
D17*
X320040Y144780D03*
X74676Y362712D03*
D16*
X321564Y138684D02*
X324612Y135636D01*
X321564Y138684D02*
X313944Y138684D01*
X312420Y140208D01*
X301752Y140208D01*
X300228Y138684D01*
X156972Y525780D02*
X147828Y534924D01*
X324612Y135636D02*
X325254Y134932D01*
X147828Y534924D02*
X147947Y535313D01*
D17*
X300228Y138684D03*
X156972Y525780D03*
D16*
X312420Y120396D02*
X312420Y118872D01*
X318516Y112776D01*
X548640Y156972D02*
X553212Y161544D01*
X556260Y161544D01*
X312420Y120396D02*
X311112Y120790D01*
X556260Y161544D02*
X557538Y161282D01*
D17*
X318516Y112776D03*
X548640Y156972D03*
D16*
X313944Y124968D02*
X309372Y129540D01*
X309372Y134112D01*
X617220Y313944D02*
X623316Y320040D01*
X623316Y323088D01*
X314648Y124326D02*
X313944Y124968D01*
X623316Y323088D02*
X623570Y323850D01*
D17*
X309372Y134112D03*
X617220Y313944D03*
D16*
X327660Y117348D02*
X318516Y126492D01*
X327660Y117348D02*
X327660Y54864D01*
X332232Y50292D01*
X355092Y50292D01*
X388620Y83820D01*
X388620Y234696D01*
X537972Y384048D01*
X537972Y537972D01*
X534924Y541020D01*
X534924Y545592D01*
X318183Y127861D02*
X318516Y126492D01*
X534924Y545592D02*
X535962Y546122D01*
X323088Y131064D02*
X329184Y124968D01*
X353568Y609600D02*
X356616Y612648D01*
X356616Y618744D01*
X358140Y620268D01*
X321719Y131397D02*
X323088Y131064D01*
X358140Y620268D02*
X358140Y621647D01*
D17*
X329184Y124968D03*
X353568Y609600D03*
M02*
