G04 EAGLE Gerber RS-274X export*
G75*
%MOMM*%
%FSLAX34Y34*%
%LPD*%
%INSoldermask Top*%
%IPPOS*%
%AMOC8*
5,1,8,0,0,1.08239X$1,22.5*%
G01*
G04 Define Apertures*
%ADD10R,1.003200X1.403200*%
%ADD11R,1.503200X2.353200*%
%ADD12R,1.403200X1.003200*%
%ADD13R,2.353200X1.503200*%
%ADD14R,0.533400X1.092200*%
%ADD15R,2.260600X1.041400*%
%ADD16C,0.959600*%
D10*
G36*
X549031Y162696D02*
X556124Y169789D01*
X566045Y159868D01*
X558952Y152775D01*
X549031Y162696D01*
G37*
G36*
X557870Y171535D02*
X564963Y178628D01*
X574884Y168707D01*
X567791Y161614D01*
X557870Y171535D01*
G37*
D11*
G36*
X546697Y134624D02*
X557326Y145253D01*
X573965Y128614D01*
X563336Y117985D01*
X546697Y134624D01*
G37*
G36*
X582406Y170333D02*
X593035Y180962D01*
X609674Y164323D01*
X599045Y153694D01*
X582406Y170333D01*
G37*
D12*
X623570Y323850D03*
X623570Y336350D03*
D13*
X646520Y304850D03*
X646520Y355350D03*
D10*
G36*
X534548Y537615D02*
X527455Y544708D01*
X537376Y554629D01*
X544469Y547536D01*
X534548Y537615D01*
G37*
G36*
X525709Y546453D02*
X518616Y553546D01*
X528537Y563467D01*
X535630Y556374D01*
X525709Y546453D01*
G37*
D11*
G36*
X562620Y535281D02*
X551991Y545910D01*
X568630Y562549D01*
X579259Y551920D01*
X562620Y535281D01*
G37*
G36*
X526911Y570989D02*
X516282Y581618D01*
X532921Y598257D01*
X543550Y587628D01*
X526911Y570989D01*
G37*
D10*
X358140Y621647D03*
X345640Y621647D03*
D11*
X377140Y644597D03*
X326640Y644597D03*
D10*
G36*
X156454Y533899D02*
X149361Y526806D01*
X139440Y536727D01*
X146533Y543820D01*
X156454Y533899D01*
G37*
G36*
X147615Y525060D02*
X140522Y517967D01*
X130601Y527888D01*
X137694Y534981D01*
X147615Y525060D01*
G37*
D11*
G36*
X158788Y561971D02*
X148159Y551342D01*
X131520Y567981D01*
X142149Y578610D01*
X158788Y561971D01*
G37*
G36*
X123079Y526262D02*
X112450Y515633D01*
X95811Y532272D01*
X106440Y542901D01*
X123079Y526262D01*
G37*
D12*
X62910Y367030D03*
X62910Y354530D03*
D13*
X39960Y386030D03*
X39960Y335530D03*
D10*
G36*
X153820Y144403D02*
X160913Y137310D01*
X150992Y127389D01*
X143899Y134482D01*
X153820Y144403D01*
G37*
G36*
X162659Y135564D02*
X169752Y128471D01*
X159831Y118550D01*
X152738Y125643D01*
X162659Y135564D01*
G37*
D11*
G36*
X125748Y146737D02*
X136377Y136108D01*
X119738Y119469D01*
X109109Y130098D01*
X125748Y146737D01*
G37*
G36*
X161457Y111028D02*
X172086Y100399D01*
X155447Y83760D01*
X144818Y94389D01*
X161457Y111028D01*
G37*
D10*
X336550Y62130D03*
X349050Y62130D03*
D11*
X317550Y39180D03*
X368050Y39180D03*
D14*
G36*
X330114Y147514D02*
X333886Y151286D01*
X341608Y143564D01*
X337836Y139792D01*
X330114Y147514D01*
G37*
G36*
X326578Y143978D02*
X330350Y147750D01*
X338072Y140028D01*
X334300Y136256D01*
X326578Y143978D01*
G37*
G36*
X323043Y140443D02*
X326815Y144215D01*
X334537Y136493D01*
X330765Y132721D01*
X323043Y140443D01*
G37*
G36*
X319507Y136907D02*
X323279Y140679D01*
X331001Y132957D01*
X327229Y129185D01*
X319507Y136907D01*
G37*
G36*
X315972Y133372D02*
X319744Y137144D01*
X327466Y129422D01*
X323694Y125650D01*
X315972Y133372D01*
G37*
G36*
X312436Y129836D02*
X316208Y133608D01*
X323930Y125886D01*
X320158Y122114D01*
X312436Y129836D01*
G37*
G36*
X308901Y126301D02*
X312673Y130073D01*
X320395Y122351D01*
X316623Y118579D01*
X308901Y126301D01*
G37*
G36*
X305365Y122765D02*
X309137Y126537D01*
X316859Y118815D01*
X313087Y115043D01*
X305365Y122765D01*
G37*
G36*
X301830Y119230D02*
X305602Y123002D01*
X313324Y115280D01*
X309552Y111508D01*
X301830Y119230D01*
G37*
G36*
X298294Y115694D02*
X302066Y119466D01*
X309788Y111744D01*
X306016Y107972D01*
X298294Y115694D01*
G37*
D15*
G36*
X329741Y168336D02*
X313757Y184320D01*
X321121Y191684D01*
X337105Y175700D01*
X329741Y168336D01*
G37*
G36*
X273880Y112475D02*
X257896Y128459D01*
X265260Y135823D01*
X281244Y119839D01*
X273880Y112475D01*
G37*
D16*
X320040Y144780D03*
X74676Y362712D03*
X300228Y138684D03*
X156972Y525780D03*
X318516Y112776D03*
X548640Y156972D03*
X309372Y134112D03*
X617220Y313944D03*
X329184Y124968D03*
X353568Y609600D03*
M02*
