G04 EAGLE Gerber RS-274X export*
G75*
%MOMM*%
%FSLAX34Y34*%
%LPD*%
%INSolderpaste Top*%
%IPPOS*%
%AMOC8*
5,1,8,0,0,1.08239X$1,22.5*%
G01*
G04 Define Apertures*
%ADD10R,1.422400X0.558800*%
%ADD11R,0.900000X0.650000*%
%ADD12R,0.930000X0.790000*%
%ADD13R,0.750000X1.000000*%
%ADD14R,1.050000X1.800000*%
%ADD15R,0.558800X1.422400*%
%ADD16R,2.235000X1.219000*%
%ADD17R,2.200000X3.600000*%
%ADD18R,0.972000X0.802000*%
%ADD19C,0.102500*%
%ADD20R,1.520000X2.160000*%
%ADD21R,0.800000X0.800000*%
%ADD22R,1.000000X0.750000*%
%ADD23R,0.889000X0.558800*%
%ADD24R,3.606800X1.498600*%
%ADD25R,1.498600X3.606800*%
%ADD26R,0.838200X0.457200*%
%ADD27R,0.650000X0.900000*%
%ADD28R,0.508000X1.016000*%
D10*
X1876044Y340360D03*
X1876044Y353060D03*
X1876044Y365760D03*
X1876044Y378460D03*
X1876044Y391160D03*
X1876044Y403860D03*
X1876044Y416560D03*
X1876044Y429260D03*
X1804416Y429260D03*
X1804416Y416560D03*
X1804416Y403860D03*
X1804416Y391160D03*
X1804416Y378460D03*
X1804416Y365760D03*
X1804416Y353060D03*
X1804416Y340360D03*
D11*
X852130Y825870D03*
X852130Y840370D03*
D12*
X838200Y703000D03*
X838200Y719400D03*
X838200Y660980D03*
X838200Y644580D03*
D13*
X853320Y683260D03*
X838320Y683260D03*
D12*
X802640Y703000D03*
X802640Y719400D03*
X802640Y660980D03*
X802640Y644580D03*
D13*
X817760Y683260D03*
X802760Y683260D03*
D12*
X767080Y703000D03*
X767080Y719400D03*
X767080Y660980D03*
X767080Y644580D03*
D13*
X782200Y683260D03*
X767200Y683260D03*
D10*
X1688084Y340360D03*
X1688084Y353060D03*
X1688084Y365760D03*
X1688084Y378460D03*
X1688084Y391160D03*
X1688084Y403860D03*
X1688084Y416560D03*
X1688084Y429260D03*
X1616456Y429260D03*
X1616456Y416560D03*
X1616456Y403860D03*
X1616456Y391160D03*
X1616456Y378460D03*
X1616456Y365760D03*
X1616456Y353060D03*
X1616456Y340360D03*
D14*
X1063880Y1021080D03*
X1038380Y1021080D03*
D11*
X793710Y825870D03*
X793710Y840370D03*
D14*
X924180Y1021080D03*
X898680Y1021080D03*
D11*
X735290Y825870D03*
X735290Y840370D03*
D15*
X1321315Y323068D03*
X1334015Y323068D03*
X1346715Y323068D03*
X1359415Y323068D03*
X1372115Y323068D03*
X1384815Y323068D03*
X1397515Y323068D03*
X1410215Y323068D03*
X1410215Y394696D03*
X1397515Y394696D03*
X1384815Y394696D03*
X1372115Y394696D03*
X1359415Y394696D03*
X1346715Y394696D03*
X1334015Y394696D03*
X1321315Y394696D03*
D14*
X1343280Y1021080D03*
X1317780Y1021080D03*
D11*
X910550Y825870D03*
X910550Y840370D03*
D12*
X873760Y703000D03*
X873760Y719400D03*
X873760Y660980D03*
X873760Y644580D03*
D13*
X888880Y683260D03*
X873880Y683260D03*
D14*
X1203580Y1021080D03*
X1178080Y1021080D03*
D16*
X1931160Y91690D03*
X1931160Y68580D03*
X1931160Y45470D03*
D17*
X1993140Y68580D03*
D18*
X1742400Y238760D03*
X1724700Y229260D03*
X1724700Y248260D03*
X1724620Y271780D03*
X1706920Y262280D03*
X1706920Y281280D03*
X1706840Y304800D03*
X1689140Y295300D03*
X1689140Y314300D03*
X1706840Y464820D03*
X1689140Y455320D03*
X1689140Y474320D03*
X1724620Y497840D03*
X1706920Y488340D03*
X1706920Y507340D03*
X1742400Y530860D03*
X1724700Y521360D03*
X1724700Y540360D03*
X1760180Y563880D03*
X1742480Y554380D03*
X1742480Y573380D03*
X892850Y868680D03*
X910550Y878180D03*
X910550Y859180D03*
X834430Y868680D03*
X852130Y878180D03*
X852130Y859180D03*
X776010Y868680D03*
X793710Y878180D03*
X793710Y859180D03*
D16*
X1931160Y167890D03*
X1931160Y144780D03*
X1931160Y121670D03*
D17*
X1993140Y144780D03*
D18*
X717590Y868680D03*
X735290Y878180D03*
X735290Y859180D03*
D16*
X1931160Y244090D03*
X1931160Y220980D03*
X1931160Y197870D03*
D17*
X1993140Y220980D03*
D16*
X1931160Y320290D03*
X1931160Y297180D03*
X1931160Y274070D03*
D17*
X1993140Y297180D03*
D16*
X1931160Y447290D03*
X1931160Y424180D03*
X1931160Y401070D03*
D17*
X1993140Y424180D03*
D16*
X1931160Y523490D03*
X1931160Y500380D03*
X1931160Y477270D03*
D17*
X1993140Y500380D03*
D16*
X1931160Y599690D03*
X1931160Y576580D03*
X1931160Y553470D03*
D17*
X1993140Y576580D03*
D16*
X1931160Y675890D03*
X1931160Y652780D03*
X1931160Y629670D03*
D17*
X1993140Y652780D03*
D18*
X1760180Y205740D03*
X1742480Y196240D03*
X1742480Y215240D03*
D19*
X858998Y756738D02*
X844322Y756738D01*
X858998Y756738D02*
X858998Y753662D01*
X844322Y753662D01*
X844322Y756738D01*
X844322Y754636D02*
X858998Y754636D01*
X858998Y755610D02*
X844322Y755610D01*
X844322Y756584D02*
X858998Y756584D01*
X858998Y763238D02*
X844322Y763238D01*
X858998Y763238D02*
X858998Y760162D01*
X844322Y760162D01*
X844322Y763238D01*
X844322Y761136D02*
X858998Y761136D01*
X858998Y762110D02*
X844322Y762110D01*
X844322Y763084D02*
X858998Y763084D01*
X858998Y769738D02*
X844322Y769738D01*
X858998Y769738D02*
X858998Y766662D01*
X844322Y766662D01*
X844322Y769738D01*
X844322Y767636D02*
X858998Y767636D01*
X858998Y768610D02*
X844322Y768610D01*
X844322Y769584D02*
X858998Y769584D01*
X858998Y776238D02*
X844322Y776238D01*
X858998Y776238D02*
X858998Y773162D01*
X844322Y773162D01*
X844322Y776238D01*
X844322Y774136D02*
X858998Y774136D01*
X858998Y775110D02*
X844322Y775110D01*
X844322Y776084D02*
X858998Y776084D01*
X858998Y782738D02*
X844322Y782738D01*
X858998Y782738D02*
X858998Y779662D01*
X844322Y779662D01*
X844322Y782738D01*
X844322Y780636D02*
X858998Y780636D01*
X858998Y781610D02*
X844322Y781610D01*
X844322Y782584D02*
X858998Y782584D01*
X858998Y789238D02*
X844322Y789238D01*
X858998Y789238D02*
X858998Y786162D01*
X844322Y786162D01*
X844322Y789238D01*
X844322Y787136D02*
X858998Y787136D01*
X858998Y788110D02*
X844322Y788110D01*
X844322Y789084D02*
X858998Y789084D01*
X858998Y795738D02*
X844322Y795738D01*
X858998Y795738D02*
X858998Y792662D01*
X844322Y792662D01*
X844322Y795738D01*
X844322Y793636D02*
X858998Y793636D01*
X858998Y794610D02*
X844322Y794610D01*
X844322Y795584D02*
X858998Y795584D01*
X801598Y795738D02*
X786922Y795738D01*
X801598Y795738D02*
X801598Y792662D01*
X786922Y792662D01*
X786922Y795738D01*
X786922Y793636D02*
X801598Y793636D01*
X801598Y794610D02*
X786922Y794610D01*
X786922Y795584D02*
X801598Y795584D01*
X801598Y789238D02*
X786922Y789238D01*
X801598Y789238D02*
X801598Y786162D01*
X786922Y786162D01*
X786922Y789238D01*
X786922Y787136D02*
X801598Y787136D01*
X801598Y788110D02*
X786922Y788110D01*
X786922Y789084D02*
X801598Y789084D01*
X801598Y782738D02*
X786922Y782738D01*
X801598Y782738D02*
X801598Y779662D01*
X786922Y779662D01*
X786922Y782738D01*
X786922Y780636D02*
X801598Y780636D01*
X801598Y781610D02*
X786922Y781610D01*
X786922Y782584D02*
X801598Y782584D01*
X801598Y776238D02*
X786922Y776238D01*
X801598Y776238D02*
X801598Y773162D01*
X786922Y773162D01*
X786922Y776238D01*
X786922Y774136D02*
X801598Y774136D01*
X801598Y775110D02*
X786922Y775110D01*
X786922Y776084D02*
X801598Y776084D01*
X801598Y769738D02*
X786922Y769738D01*
X801598Y769738D02*
X801598Y766662D01*
X786922Y766662D01*
X786922Y769738D01*
X786922Y767636D02*
X801598Y767636D01*
X801598Y768610D02*
X786922Y768610D01*
X786922Y769584D02*
X801598Y769584D01*
X801598Y763238D02*
X786922Y763238D01*
X801598Y763238D02*
X801598Y760162D01*
X786922Y760162D01*
X786922Y763238D01*
X786922Y761136D02*
X801598Y761136D01*
X801598Y762110D02*
X786922Y762110D01*
X786922Y763084D02*
X801598Y763084D01*
X801598Y756738D02*
X786922Y756738D01*
X801598Y756738D02*
X801598Y753662D01*
X786922Y753662D01*
X786922Y756738D01*
X786922Y754636D02*
X801598Y754636D01*
X801598Y755610D02*
X786922Y755610D01*
X786922Y756584D02*
X801598Y756584D01*
D20*
X1303020Y742340D03*
X1277620Y742340D03*
X1252220Y742340D03*
X1226820Y742340D03*
X1226820Y659740D03*
X1252220Y659740D03*
X1277620Y659740D03*
X1303020Y659740D03*
D21*
X1521460Y22980D03*
X1521460Y37980D03*
D22*
X1521460Y58540D03*
X1521460Y73540D03*
D21*
X1551940Y22980D03*
X1551940Y37980D03*
D22*
X1551940Y58540D03*
X1551940Y73540D03*
X1582420Y58540D03*
X1582420Y73540D03*
D21*
X1582420Y22980D03*
X1582420Y37980D03*
D22*
X1612900Y58540D03*
X1612900Y73540D03*
D21*
X1612900Y22980D03*
X1612900Y37980D03*
X1643380Y22980D03*
X1643380Y37980D03*
D22*
X1643380Y58540D03*
X1643380Y73540D03*
D21*
X1673860Y22980D03*
X1673860Y37980D03*
D22*
X1673860Y58540D03*
X1673860Y73540D03*
X1704340Y58540D03*
X1704340Y73540D03*
D21*
X1704340Y22980D03*
X1704340Y37980D03*
D22*
X1734820Y58540D03*
X1734820Y73540D03*
D21*
X1734820Y22980D03*
X1734820Y37980D03*
D23*
X624205Y774700D03*
X624205Y793242D03*
X1879600Y996569D03*
X1879600Y1015111D03*
X2098040Y914400D03*
X2098040Y895858D03*
X2098040Y955152D03*
X2098040Y973694D03*
D21*
X2207140Y853440D03*
X2192140Y853440D03*
D13*
X2169040Y853440D03*
X2154040Y853440D03*
D21*
X2207140Y820420D03*
X2192140Y820420D03*
D13*
X2169040Y820420D03*
X2154040Y820420D03*
D24*
X1601851Y840740D03*
X1684909Y840740D03*
X1601851Y955040D03*
X1684909Y955040D03*
D25*
X1516380Y654431D03*
X1516380Y737489D03*
X1638300Y654431D03*
X1638300Y737489D03*
D26*
X2037080Y68580D03*
X2037080Y42164D03*
X2037080Y144780D03*
X2037080Y118364D03*
X2037080Y220980D03*
X2037080Y194564D03*
X2037080Y297180D03*
X2037080Y270764D03*
X2037080Y424180D03*
X2037080Y397764D03*
X2037080Y500380D03*
X2037080Y473964D03*
X2037080Y576580D03*
X2037080Y550164D03*
X2037080Y652780D03*
X2037080Y626364D03*
D27*
X322210Y172720D03*
X307710Y172720D03*
X272150Y172720D03*
X286650Y172720D03*
D18*
X268010Y203200D03*
X285710Y212700D03*
X285710Y193700D03*
D16*
X216410Y202950D03*
X216410Y226060D03*
X216410Y249170D03*
D17*
X154430Y226060D03*
D11*
X246380Y203570D03*
X246380Y218070D03*
D26*
X119380Y226060D03*
X119380Y252476D03*
D27*
X322210Y261620D03*
X307710Y261620D03*
X272150Y261620D03*
X286650Y261620D03*
D18*
X268010Y297180D03*
X285710Y306680D03*
X285710Y287680D03*
D16*
X216410Y296930D03*
X216410Y320040D03*
X216410Y343150D03*
D17*
X154430Y320040D03*
D11*
X243840Y297550D03*
X243840Y312050D03*
D26*
X119380Y320040D03*
X119380Y346456D03*
D18*
X638850Y868680D03*
X656550Y878180D03*
X656550Y859180D03*
D14*
X784480Y1021080D03*
X758980Y1021080D03*
D19*
X604998Y756738D02*
X590322Y756738D01*
X604998Y756738D02*
X604998Y753662D01*
X590322Y753662D01*
X590322Y756738D01*
X590322Y754636D02*
X604998Y754636D01*
X604998Y755610D02*
X590322Y755610D01*
X590322Y756584D02*
X604998Y756584D01*
X604998Y763238D02*
X590322Y763238D01*
X604998Y763238D02*
X604998Y760162D01*
X590322Y760162D01*
X590322Y763238D01*
X590322Y761136D02*
X604998Y761136D01*
X604998Y762110D02*
X590322Y762110D01*
X590322Y763084D02*
X604998Y763084D01*
X604998Y769738D02*
X590322Y769738D01*
X604998Y769738D02*
X604998Y766662D01*
X590322Y766662D01*
X590322Y769738D01*
X590322Y767636D02*
X604998Y767636D01*
X604998Y768610D02*
X590322Y768610D01*
X590322Y769584D02*
X604998Y769584D01*
X604998Y776238D02*
X590322Y776238D01*
X604998Y776238D02*
X604998Y773162D01*
X590322Y773162D01*
X590322Y776238D01*
X590322Y774136D02*
X604998Y774136D01*
X604998Y775110D02*
X590322Y775110D01*
X590322Y776084D02*
X604998Y776084D01*
X604998Y782738D02*
X590322Y782738D01*
X604998Y782738D02*
X604998Y779662D01*
X590322Y779662D01*
X590322Y782738D01*
X590322Y780636D02*
X604998Y780636D01*
X604998Y781610D02*
X590322Y781610D01*
X590322Y782584D02*
X604998Y782584D01*
X604998Y789238D02*
X590322Y789238D01*
X604998Y789238D02*
X604998Y786162D01*
X590322Y786162D01*
X590322Y789238D01*
X590322Y787136D02*
X604998Y787136D01*
X604998Y788110D02*
X590322Y788110D01*
X590322Y789084D02*
X604998Y789084D01*
X604998Y795738D02*
X590322Y795738D01*
X604998Y795738D02*
X604998Y792662D01*
X590322Y792662D01*
X590322Y795738D01*
X590322Y793636D02*
X604998Y793636D01*
X604998Y794610D02*
X590322Y794610D01*
X590322Y795584D02*
X604998Y795584D01*
X547598Y795738D02*
X532922Y795738D01*
X547598Y795738D02*
X547598Y792662D01*
X532922Y792662D01*
X532922Y795738D01*
X532922Y793636D02*
X547598Y793636D01*
X547598Y794610D02*
X532922Y794610D01*
X532922Y795584D02*
X547598Y795584D01*
X547598Y789238D02*
X532922Y789238D01*
X547598Y789238D02*
X547598Y786162D01*
X532922Y786162D01*
X532922Y789238D01*
X532922Y787136D02*
X547598Y787136D01*
X547598Y788110D02*
X532922Y788110D01*
X532922Y789084D02*
X547598Y789084D01*
X547598Y782738D02*
X532922Y782738D01*
X547598Y782738D02*
X547598Y779662D01*
X532922Y779662D01*
X532922Y782738D01*
X532922Y780636D02*
X547598Y780636D01*
X547598Y781610D02*
X532922Y781610D01*
X532922Y782584D02*
X547598Y782584D01*
X547598Y776238D02*
X532922Y776238D01*
X547598Y776238D02*
X547598Y773162D01*
X532922Y773162D01*
X532922Y776238D01*
X532922Y774136D02*
X547598Y774136D01*
X547598Y775110D02*
X532922Y775110D01*
X532922Y776084D02*
X547598Y776084D01*
X547598Y769738D02*
X532922Y769738D01*
X547598Y769738D02*
X547598Y766662D01*
X532922Y766662D01*
X532922Y769738D01*
X532922Y767636D02*
X547598Y767636D01*
X547598Y768610D02*
X532922Y768610D01*
X532922Y769584D02*
X547598Y769584D01*
X547598Y763238D02*
X532922Y763238D01*
X547598Y763238D02*
X547598Y760162D01*
X532922Y760162D01*
X532922Y763238D01*
X532922Y761136D02*
X547598Y761136D01*
X547598Y762110D02*
X532922Y762110D01*
X532922Y763084D02*
X547598Y763084D01*
X547598Y756738D02*
X532922Y756738D01*
X547598Y756738D02*
X547598Y753662D01*
X532922Y753662D01*
X532922Y756738D01*
X532922Y754636D02*
X547598Y754636D01*
X547598Y755610D02*
X532922Y755610D01*
X532922Y756584D02*
X547598Y756584D01*
D11*
X656550Y825870D03*
X656550Y840370D03*
D12*
X619760Y703000D03*
X619760Y719400D03*
X619760Y660980D03*
X619760Y644580D03*
D13*
X634880Y683260D03*
X619880Y683260D03*
D18*
X580430Y868680D03*
X598130Y878180D03*
X598130Y859180D03*
D14*
X644780Y1021080D03*
X619280Y1021080D03*
D11*
X598130Y825870D03*
X598130Y840370D03*
D12*
X584200Y703000D03*
X584200Y719400D03*
X584200Y660980D03*
X584200Y644580D03*
D13*
X599320Y683260D03*
X584320Y683260D03*
D12*
X548640Y703000D03*
X548640Y719400D03*
X548640Y660980D03*
X548640Y644580D03*
D13*
X563760Y683260D03*
X548760Y683260D03*
D12*
X513080Y703000D03*
X513080Y719400D03*
X513080Y660980D03*
X513080Y644580D03*
D13*
X528200Y683260D03*
X513200Y683260D03*
D18*
X522010Y868680D03*
X539710Y878180D03*
X539710Y859180D03*
D11*
X539710Y825870D03*
X539710Y840370D03*
D18*
X463590Y868680D03*
X481290Y878180D03*
X481290Y859180D03*
D14*
X365380Y1021080D03*
X339880Y1021080D03*
D11*
X481290Y825870D03*
X481290Y840370D03*
D23*
X932180Y774700D03*
X932180Y793242D03*
D14*
X505080Y1021080D03*
X479580Y1021080D03*
D21*
X269360Y63500D03*
X284360Y63500D03*
D13*
X307460Y63500D03*
X322460Y63500D03*
D21*
X269360Y35560D03*
X284360Y35560D03*
D13*
X307460Y35560D03*
X322460Y35560D03*
D23*
X1879600Y738251D03*
X1879600Y719709D03*
D12*
X424180Y703000D03*
X424180Y719400D03*
X424180Y660980D03*
X424180Y644580D03*
D13*
X439300Y683260D03*
X424300Y683260D03*
D18*
X104220Y881380D03*
X121920Y890880D03*
X121920Y871880D03*
D14*
X177420Y1021080D03*
X151920Y1021080D03*
D11*
X121920Y833490D03*
X121920Y847990D03*
D28*
X145440Y833490D03*
X154940Y833490D03*
X164440Y833490D03*
X164440Y856350D03*
X145440Y856350D03*
M02*
