G04 EAGLE Gerber RS-274X export*
G75*
%MOMM*%
%FSLAX34Y34*%
%LPD*%
%INSoldermask Bottom*%
%IPPOS*%
%AMOC8*
5,1,8,0,0,1.08239X$1,22.5*%
G01*
G04 Define Apertures*
%ADD10C,3.479800*%
%ADD11C,2.082800*%
%ADD12P,2.2544X8X292.5*%
%ADD13R,1.733200X1.733200*%
%ADD14C,1.733200*%
%ADD15C,2.108200*%
%ADD16C,2.703200*%
%ADD17C,2.453200*%
%ADD18R,2.108200X2.108200*%
%ADD19C,3.203200*%
%ADD20C,1.016000*%
D10*
X1549400Y889000D03*
X1549400Y304800D03*
X381000Y304800D03*
X381000Y889000D03*
D11*
X1252381Y565511D03*
X1277781Y565511D03*
X1303181Y565511D03*
X1226981Y565511D03*
X1328581Y82911D03*
X1353981Y82911D03*
X1023781Y565511D03*
X1049181Y565511D03*
X1074581Y565511D03*
X1099981Y565511D03*
X1125381Y565511D03*
X1150781Y565511D03*
X1176181Y565511D03*
X998381Y565511D03*
X972981Y82911D03*
X998381Y82911D03*
X1023781Y82911D03*
X1049181Y82911D03*
X1074581Y82911D03*
X947581Y82911D03*
X754541Y82911D03*
X881541Y82911D03*
X906941Y82911D03*
D12*
X1455581Y184511D03*
X1430181Y184511D03*
X1455581Y159111D03*
X1430181Y159111D03*
X1455581Y133711D03*
X1430181Y133711D03*
X1455581Y108311D03*
X1430181Y108311D03*
D11*
X922181Y565511D03*
X947581Y565511D03*
X896781Y565511D03*
X1328581Y565511D03*
X1353981Y565511D03*
X1379381Y565511D03*
X1404781Y565511D03*
D12*
X1430181Y209911D03*
X1455581Y209911D03*
D11*
X856141Y82911D03*
X779941Y82911D03*
D13*
X1148080Y972820D03*
D14*
X1178080Y972820D03*
D15*
X1118080Y992420D03*
X1208080Y992420D03*
D13*
X1008380Y972820D03*
D14*
X1038380Y972820D03*
D15*
X978380Y992420D03*
X1068380Y992420D03*
D13*
X868680Y972820D03*
D14*
X898680Y972820D03*
D15*
X838680Y992420D03*
X928680Y992420D03*
D13*
X2225040Y139700D03*
D14*
X2199640Y139700D03*
X2225040Y165100D03*
X2199640Y165100D03*
X2225040Y190500D03*
X2199640Y190500D03*
X2225040Y215900D03*
X2199640Y215900D03*
X2225040Y241300D03*
X2199640Y241300D03*
D13*
X1559530Y485140D03*
D14*
X1559530Y515140D03*
X1559530Y545140D03*
X1559530Y575140D03*
D15*
X1539930Y455140D03*
X1539930Y605140D03*
D16*
X2133600Y901900D02*
X2133600Y926900D01*
D17*
X2193600Y925650D02*
X2193600Y903150D01*
D11*
X2209800Y1104900D03*
X2209800Y1079500D03*
X2209800Y1054100D03*
X1905000Y1104900D03*
X1905000Y1079500D03*
X1905000Y1054100D03*
X1600200Y1104900D03*
X1600200Y1079500D03*
X1600200Y1054100D03*
X1295400Y1104900D03*
X1295400Y1079500D03*
X1295400Y1054100D03*
X990600Y1104900D03*
X990600Y1079500D03*
X990600Y1054100D03*
X685800Y1104900D03*
X685800Y1079500D03*
X685800Y1054100D03*
X381000Y1104900D03*
X381000Y1079500D03*
X381000Y1054100D03*
X76200Y1104900D03*
X76200Y1079500D03*
X76200Y1054100D03*
D13*
X728980Y972820D03*
D14*
X758980Y972820D03*
D15*
X698980Y992420D03*
X788980Y992420D03*
D13*
X589280Y972820D03*
D14*
X619280Y972820D03*
D15*
X559280Y992420D03*
X649280Y992420D03*
D13*
X449580Y972820D03*
D14*
X479580Y972820D03*
D15*
X419580Y992420D03*
X509580Y992420D03*
D13*
X309880Y972820D03*
D14*
X339880Y972820D03*
D15*
X279880Y992420D03*
X369880Y992420D03*
D11*
X226060Y406400D03*
X200660Y406400D03*
X175260Y406400D03*
D18*
X1930400Y795020D03*
D15*
X1905000Y795020D03*
X1879600Y795020D03*
D18*
X1930400Y955040D03*
D15*
X1905000Y955040D03*
X1879600Y955040D03*
D19*
X1775460Y917433D03*
X2029460Y917433D03*
X1775460Y757413D03*
X2029460Y757413D03*
D13*
X121920Y972820D03*
D14*
X151920Y972820D03*
D15*
X91920Y992420D03*
X181920Y992420D03*
D13*
X2225040Y624840D03*
D14*
X2199640Y624840D03*
X2225040Y650240D03*
X2199640Y650240D03*
X2225040Y675640D03*
X2199640Y675640D03*
D13*
X2225040Y459740D03*
D14*
X2199640Y459740D03*
X2225040Y485140D03*
X2199640Y485140D03*
X2225040Y510540D03*
X2199640Y510540D03*
D13*
X193040Y127000D03*
D14*
X193040Y97000D03*
D15*
X212640Y157000D03*
X212640Y67000D03*
D13*
X76200Y127000D03*
D14*
X76200Y97000D03*
D15*
X95800Y157000D03*
X95800Y67000D03*
D13*
X88900Y609600D03*
D14*
X114300Y609600D03*
X88900Y584200D03*
X114300Y584200D03*
X88900Y558800D03*
X114300Y558800D03*
D13*
X1287780Y972820D03*
D14*
X1317780Y972820D03*
D15*
X1257780Y992420D03*
X1347780Y992420D03*
D20*
X2057400Y220980D03*
X2077720Y424180D03*
X2057400Y652780D03*
X1590040Y429260D03*
X1410215Y472440D03*
X1544320Y391160D03*
X1372115Y419100D03*
X1559560Y403860D03*
X1384815Y436880D03*
X1574800Y416560D03*
X1397515Y454660D03*
X1521460Y88900D03*
X1334015Y299720D03*
X1582420Y88900D03*
X1359415Y284480D03*
X1643380Y88900D03*
X1384815Y269240D03*
X1704340Y88900D03*
X1410215Y254000D03*
X1897380Y45470D03*
X1897380Y274070D03*
X1897380Y197870D03*
X1897380Y121670D03*
X1897380Y477270D03*
X1897380Y553470D03*
X1897380Y629670D03*
X1897380Y375920D03*
X216410Y375920D03*
X216410Y271780D03*
X145440Y886460D03*
X657860Y614680D03*
X642620Y805180D03*
X894080Y789940D03*
X723900Y614680D03*
X271780Y495300D03*
X1714500Y774700D03*
X1285240Y855980D03*
X1074420Y645160D03*
X638810Y843280D03*
X1468120Y1079500D03*
X1394460Y1079500D03*
X463590Y843280D03*
X522010Y843280D03*
X892850Y843280D03*
X834430Y843280D03*
X776010Y843280D03*
X580430Y843280D03*
X717590Y843280D03*
X635000Y589280D03*
X721360Y589280D03*
X910550Y805180D03*
X910550Y739960D03*
X767080Y739140D03*
X767080Y769066D03*
X815340Y863600D03*
X735290Y784860D03*
X735290Y741680D03*
X871220Y861060D03*
X690880Y926800D03*
X1353820Y19050D03*
X322210Y209911D03*
X322210Y236220D03*
X656550Y782320D03*
X656550Y741680D03*
X513080Y739140D03*
X513080Y769066D03*
X501781Y892810D03*
X481290Y741680D03*
X481290Y791505D03*
X561340Y891540D03*
X457200Y761700D03*
X911860Y541020D03*
X726440Y541020D03*
X636270Y541020D03*
X251460Y541020D03*
X1043940Y761700D03*
M02*
