G04 EAGLE Gerber RS-274X export*
G75*
%MOMM*%
%FSLAX34Y34*%
%LPD*%
%INSolderpaste Top*%
%IPPOS*%
%AMOC8*
5,1,8,0,0,1.08239X$1,22.5*%
G01*
G04 Define Apertures*
%ADD10R,0.558800X0.889000*%
%ADD11R,0.889000X0.558800*%
%ADD12R,1.498600X3.606800*%
%ADD13R,3.606800X1.498600*%
%ADD14R,0.900000X0.650000*%
%ADD15R,0.930000X0.790000*%
%ADD16R,0.790000X0.930000*%
%ADD17R,0.980000X0.860000*%
%ADD18R,1.050000X1.770000*%
%ADD19R,0.650000X0.900000*%
%ADD20R,1.400000X1.000000*%
%ADD21R,1.000000X1.400000*%
%ADD22C,0.102500*%
D10*
X713762Y906780D03*
X732304Y906780D03*
D11*
X153670Y555879D03*
X153670Y574421D03*
X1267460Y903859D03*
X1267460Y922401D03*
D12*
X241300Y978154D03*
X241300Y895096D03*
D13*
X283464Y574040D03*
X200406Y574040D03*
D10*
X240919Y858520D03*
X259461Y858520D03*
D14*
X1223010Y951600D03*
X1223010Y966100D03*
D15*
X1199998Y776660D03*
X1199998Y793060D03*
D16*
X1155010Y777240D03*
X1138610Y777240D03*
D17*
X1178592Y761970D03*
X1178592Y777270D03*
D16*
X1166550Y836240D03*
X1182950Y836240D03*
D15*
X1112520Y836240D03*
X1112520Y819840D03*
D17*
X1143000Y820390D03*
X1143000Y835690D03*
D18*
X1110370Y1084580D03*
X1140070Y1084580D03*
D19*
X1165490Y927100D03*
X1150990Y927100D03*
D18*
X970670Y1084580D03*
X1000370Y1084580D03*
D19*
X983880Y854710D03*
X969380Y854710D03*
D18*
X830970Y1084580D03*
X860670Y1084580D03*
D14*
X830580Y899530D03*
X830580Y914030D03*
D18*
X691270Y1084580D03*
X720970Y1084580D03*
D14*
X643380Y919850D03*
X643380Y934350D03*
D15*
X623570Y804600D03*
X623570Y821000D03*
D16*
X671250Y805180D03*
X687650Y805180D03*
D17*
X650240Y820450D03*
X650240Y805150D03*
D15*
X604520Y779200D03*
X604520Y795600D03*
D16*
X653470Y778510D03*
X669870Y778510D03*
D17*
X628650Y763240D03*
X628650Y778540D03*
D18*
X1389770Y1084580D03*
X1419470Y1084580D03*
X551570Y1084580D03*
X581270Y1084580D03*
D19*
X585100Y902970D03*
X570600Y902970D03*
D18*
X411870Y1084580D03*
X441570Y1084580D03*
D19*
X425080Y805180D03*
X410580Y805180D03*
X1375780Y900430D03*
X1390280Y900430D03*
D18*
X1250070Y1084580D03*
X1279770Y1084580D03*
D20*
X1368220Y956310D03*
X1390220Y965810D03*
X1390220Y946810D03*
X1295762Y956310D03*
X1273762Y946810D03*
X1273762Y965810D03*
X1087550Y935990D03*
X1109550Y945490D03*
X1109550Y926490D03*
X947850Y895350D03*
X969850Y904850D03*
X969850Y885850D03*
X808150Y943610D03*
X830150Y953110D03*
X830150Y934110D03*
D21*
X673100Y957150D03*
X682600Y935150D03*
X663600Y935150D03*
D20*
X531290Y949960D03*
X553290Y959460D03*
X553290Y940460D03*
X389050Y838200D03*
X411050Y847700D03*
X411050Y828700D03*
D22*
X636042Y843098D02*
X650718Y843098D01*
X650718Y840022D01*
X636042Y840022D01*
X636042Y843098D01*
X636042Y840996D02*
X650718Y840996D01*
X650718Y841970D02*
X636042Y841970D01*
X636042Y842944D02*
X650718Y842944D01*
X650718Y849598D02*
X636042Y849598D01*
X650718Y849598D02*
X650718Y846522D01*
X636042Y846522D01*
X636042Y849598D01*
X636042Y847496D02*
X650718Y847496D01*
X650718Y848470D02*
X636042Y848470D01*
X636042Y849444D02*
X650718Y849444D01*
X650718Y856098D02*
X636042Y856098D01*
X650718Y856098D02*
X650718Y853022D01*
X636042Y853022D01*
X636042Y856098D01*
X636042Y853996D02*
X650718Y853996D01*
X650718Y854970D02*
X636042Y854970D01*
X636042Y855944D02*
X650718Y855944D01*
X650718Y862598D02*
X636042Y862598D01*
X650718Y862598D02*
X650718Y859522D01*
X636042Y859522D01*
X636042Y862598D01*
X636042Y860496D02*
X650718Y860496D01*
X650718Y861470D02*
X636042Y861470D01*
X636042Y862444D02*
X650718Y862444D01*
X650718Y869098D02*
X636042Y869098D01*
X650718Y869098D02*
X650718Y866022D01*
X636042Y866022D01*
X636042Y869098D01*
X636042Y866996D02*
X650718Y866996D01*
X650718Y867970D02*
X636042Y867970D01*
X636042Y868944D02*
X650718Y868944D01*
X650718Y875598D02*
X636042Y875598D01*
X650718Y875598D02*
X650718Y872522D01*
X636042Y872522D01*
X636042Y875598D01*
X636042Y873496D02*
X650718Y873496D01*
X650718Y874470D02*
X636042Y874470D01*
X636042Y875444D02*
X650718Y875444D01*
X650718Y882098D02*
X636042Y882098D01*
X650718Y882098D02*
X650718Y879022D01*
X636042Y879022D01*
X636042Y882098D01*
X636042Y879996D02*
X650718Y879996D01*
X650718Y880970D02*
X636042Y880970D01*
X636042Y881944D02*
X650718Y881944D01*
X593318Y882098D02*
X578642Y882098D01*
X593318Y882098D02*
X593318Y879022D01*
X578642Y879022D01*
X578642Y882098D01*
X578642Y879996D02*
X593318Y879996D01*
X593318Y880970D02*
X578642Y880970D01*
X578642Y881944D02*
X593318Y881944D01*
X593318Y875598D02*
X578642Y875598D01*
X593318Y875598D02*
X593318Y872522D01*
X578642Y872522D01*
X578642Y875598D01*
X578642Y873496D02*
X593318Y873496D01*
X593318Y874470D02*
X578642Y874470D01*
X578642Y875444D02*
X593318Y875444D01*
X593318Y869098D02*
X578642Y869098D01*
X593318Y869098D02*
X593318Y866022D01*
X578642Y866022D01*
X578642Y869098D01*
X578642Y866996D02*
X593318Y866996D01*
X593318Y867970D02*
X578642Y867970D01*
X578642Y868944D02*
X593318Y868944D01*
X593318Y862598D02*
X578642Y862598D01*
X593318Y862598D02*
X593318Y859522D01*
X578642Y859522D01*
X578642Y862598D01*
X578642Y860496D02*
X593318Y860496D01*
X593318Y861470D02*
X578642Y861470D01*
X578642Y862444D02*
X593318Y862444D01*
X593318Y856098D02*
X578642Y856098D01*
X593318Y856098D02*
X593318Y853022D01*
X578642Y853022D01*
X578642Y856098D01*
X578642Y853996D02*
X593318Y853996D01*
X593318Y854970D02*
X578642Y854970D01*
X578642Y855944D02*
X593318Y855944D01*
X593318Y849598D02*
X578642Y849598D01*
X593318Y849598D02*
X593318Y846522D01*
X578642Y846522D01*
X578642Y849598D01*
X578642Y847496D02*
X593318Y847496D01*
X593318Y848470D02*
X578642Y848470D01*
X578642Y849444D02*
X593318Y849444D01*
X593318Y843098D02*
X578642Y843098D01*
X593318Y843098D02*
X593318Y840022D01*
X578642Y840022D01*
X578642Y843098D01*
X578642Y840996D02*
X593318Y840996D01*
X593318Y841970D02*
X578642Y841970D01*
X578642Y842944D02*
X593318Y842944D01*
X1215162Y855798D02*
X1229838Y855798D01*
X1229838Y852722D01*
X1215162Y852722D01*
X1215162Y855798D01*
X1215162Y853696D02*
X1229838Y853696D01*
X1229838Y854670D02*
X1215162Y854670D01*
X1215162Y855644D02*
X1229838Y855644D01*
X1229838Y862298D02*
X1215162Y862298D01*
X1229838Y862298D02*
X1229838Y859222D01*
X1215162Y859222D01*
X1215162Y862298D01*
X1215162Y860196D02*
X1229838Y860196D01*
X1229838Y861170D02*
X1215162Y861170D01*
X1215162Y862144D02*
X1229838Y862144D01*
X1229838Y868798D02*
X1215162Y868798D01*
X1229838Y868798D02*
X1229838Y865722D01*
X1215162Y865722D01*
X1215162Y868798D01*
X1215162Y866696D02*
X1229838Y866696D01*
X1229838Y867670D02*
X1215162Y867670D01*
X1215162Y868644D02*
X1229838Y868644D01*
X1229838Y875298D02*
X1215162Y875298D01*
X1229838Y875298D02*
X1229838Y872222D01*
X1215162Y872222D01*
X1215162Y875298D01*
X1215162Y873196D02*
X1229838Y873196D01*
X1229838Y874170D02*
X1215162Y874170D01*
X1215162Y875144D02*
X1229838Y875144D01*
X1229838Y881798D02*
X1215162Y881798D01*
X1229838Y881798D02*
X1229838Y878722D01*
X1215162Y878722D01*
X1215162Y881798D01*
X1215162Y879696D02*
X1229838Y879696D01*
X1229838Y880670D02*
X1215162Y880670D01*
X1215162Y881644D02*
X1229838Y881644D01*
X1229838Y888298D02*
X1215162Y888298D01*
X1229838Y888298D02*
X1229838Y885222D01*
X1215162Y885222D01*
X1215162Y888298D01*
X1215162Y886196D02*
X1229838Y886196D01*
X1229838Y887170D02*
X1215162Y887170D01*
X1215162Y888144D02*
X1229838Y888144D01*
X1229838Y894798D02*
X1215162Y894798D01*
X1229838Y894798D02*
X1229838Y891722D01*
X1215162Y891722D01*
X1215162Y894798D01*
X1215162Y892696D02*
X1229838Y892696D01*
X1229838Y893670D02*
X1215162Y893670D01*
X1215162Y894644D02*
X1229838Y894644D01*
X1172438Y894798D02*
X1157762Y894798D01*
X1172438Y894798D02*
X1172438Y891722D01*
X1157762Y891722D01*
X1157762Y894798D01*
X1157762Y892696D02*
X1172438Y892696D01*
X1172438Y893670D02*
X1157762Y893670D01*
X1157762Y894644D02*
X1172438Y894644D01*
X1172438Y888298D02*
X1157762Y888298D01*
X1172438Y888298D02*
X1172438Y885222D01*
X1157762Y885222D01*
X1157762Y888298D01*
X1157762Y886196D02*
X1172438Y886196D01*
X1172438Y887170D02*
X1157762Y887170D01*
X1157762Y888144D02*
X1172438Y888144D01*
X1172438Y881798D02*
X1157762Y881798D01*
X1172438Y881798D02*
X1172438Y878722D01*
X1157762Y878722D01*
X1157762Y881798D01*
X1157762Y879696D02*
X1172438Y879696D01*
X1172438Y880670D02*
X1157762Y880670D01*
X1157762Y881644D02*
X1172438Y881644D01*
X1172438Y875298D02*
X1157762Y875298D01*
X1172438Y875298D02*
X1172438Y872222D01*
X1157762Y872222D01*
X1157762Y875298D01*
X1157762Y873196D02*
X1172438Y873196D01*
X1172438Y874170D02*
X1157762Y874170D01*
X1157762Y875144D02*
X1172438Y875144D01*
X1172438Y868798D02*
X1157762Y868798D01*
X1172438Y868798D02*
X1172438Y865722D01*
X1157762Y865722D01*
X1157762Y868798D01*
X1157762Y866696D02*
X1172438Y866696D01*
X1172438Y867670D02*
X1157762Y867670D01*
X1157762Y868644D02*
X1172438Y868644D01*
X1172438Y862298D02*
X1157762Y862298D01*
X1172438Y862298D02*
X1172438Y859222D01*
X1157762Y859222D01*
X1157762Y862298D01*
X1157762Y860196D02*
X1172438Y860196D01*
X1172438Y861170D02*
X1157762Y861170D01*
X1157762Y862144D02*
X1172438Y862144D01*
X1172438Y855798D02*
X1157762Y855798D01*
X1172438Y855798D02*
X1172438Y852722D01*
X1157762Y852722D01*
X1157762Y855798D01*
X1157762Y853696D02*
X1172438Y853696D01*
X1172438Y854670D02*
X1157762Y854670D01*
X1157762Y855644D02*
X1172438Y855644D01*
M02*
