G04 EAGLE Gerber RS-274X export*
G75*
%MOMM*%
%FSLAX34Y34*%
%LPD*%
%IN*%
%IPPOS*%
%AMOC8*
5,1,8,0,0,1.08239X$1,22.5*%
G01*
G04 Define Apertures*
%ADD10C,0.254000*%
D10*
X0Y200874D02*
X200874Y0D01*
X484953Y0D01*
X685827Y200874D01*
X685827Y484953D01*
X484953Y685827D01*
X200874Y685827D01*
X0Y484953D01*
X0Y200874D01*
X621487Y232286D02*
X621487Y233284D01*
X621409Y234279D01*
X621253Y235265D01*
X621020Y236235D01*
X620712Y237184D01*
X620330Y238106D01*
X619877Y238995D01*
X619355Y239846D01*
X618769Y240654D01*
X618120Y241413D01*
X617415Y242118D01*
X616656Y242766D01*
X615849Y243353D01*
X614998Y243874D01*
X614108Y244328D01*
X613186Y244709D01*
X612237Y245018D01*
X611267Y245251D01*
X610281Y245407D01*
X609286Y245485D01*
X608288Y245485D01*
X607293Y245407D01*
X606308Y245251D01*
X605337Y245018D01*
X604388Y244709D01*
X603466Y244328D01*
X602577Y243874D01*
X601726Y243353D01*
X600919Y242766D01*
X600160Y242118D01*
X599454Y241413D01*
X598806Y240654D01*
X598220Y239846D01*
X597698Y238995D01*
X597245Y238106D01*
X596863Y237184D01*
X596555Y236235D01*
X596322Y235265D01*
X596166Y234279D01*
X596087Y233284D01*
X596087Y232286D01*
X596166Y231291D01*
X596322Y230306D01*
X596555Y229335D01*
X596863Y228386D01*
X597245Y227464D01*
X597698Y226575D01*
X598220Y225724D01*
X598806Y224917D01*
X599454Y224158D01*
X600160Y223452D01*
X600919Y222804D01*
X601726Y222217D01*
X602577Y221696D01*
X603466Y221243D01*
X604388Y220861D01*
X605337Y220553D01*
X606308Y220320D01*
X607293Y220164D01*
X608288Y220085D01*
X609286Y220085D01*
X610281Y220164D01*
X611267Y220320D01*
X612237Y220553D01*
X613186Y220861D01*
X614108Y221243D01*
X614998Y221696D01*
X615849Y222217D01*
X616656Y222804D01*
X617415Y223452D01*
X618120Y224158D01*
X618769Y224917D01*
X619355Y225724D01*
X619877Y226575D01*
X620330Y227464D01*
X620712Y228386D01*
X621020Y229335D01*
X621253Y230306D01*
X621409Y231291D01*
X621487Y232286D01*
X465742Y608288D02*
X465742Y609286D01*
X465664Y610281D01*
X465508Y611267D01*
X465275Y612237D01*
X464966Y613186D01*
X464584Y614108D01*
X464131Y614998D01*
X463610Y615849D01*
X463023Y616656D01*
X462375Y617415D01*
X461670Y618120D01*
X460911Y618769D01*
X460103Y619355D01*
X459252Y619877D01*
X458363Y620330D01*
X457441Y620712D01*
X456492Y621020D01*
X455522Y621253D01*
X454536Y621409D01*
X453541Y621487D01*
X452543Y621487D01*
X451548Y621409D01*
X450563Y621253D01*
X449592Y621020D01*
X448643Y620712D01*
X447721Y620330D01*
X446832Y619877D01*
X445981Y619355D01*
X445174Y618769D01*
X444415Y618120D01*
X443709Y617415D01*
X443061Y616656D01*
X442474Y615849D01*
X441953Y614998D01*
X441500Y614108D01*
X441118Y613186D01*
X440809Y612237D01*
X440577Y611267D01*
X440420Y610281D01*
X440342Y609286D01*
X440342Y608288D01*
X440420Y607293D01*
X440577Y606308D01*
X440809Y605337D01*
X441118Y604388D01*
X441500Y603466D01*
X441953Y602577D01*
X442474Y601726D01*
X443061Y600919D01*
X443709Y600160D01*
X444415Y599454D01*
X445174Y598806D01*
X445981Y598220D01*
X446832Y597698D01*
X447721Y597245D01*
X448643Y596863D01*
X449592Y596555D01*
X450563Y596322D01*
X451548Y596166D01*
X452543Y596087D01*
X453541Y596087D01*
X454536Y596166D01*
X455522Y596322D01*
X456492Y596555D01*
X457441Y596863D01*
X458363Y597245D01*
X459252Y597698D01*
X460103Y598220D01*
X460911Y598806D01*
X461670Y599454D01*
X462375Y600160D01*
X463023Y600919D01*
X463610Y601726D01*
X464131Y602577D01*
X464584Y603466D01*
X464966Y604388D01*
X465275Y605337D01*
X465508Y606308D01*
X465664Y607293D01*
X465742Y608288D01*
X283585Y607790D02*
X283585Y609785D01*
X283507Y611779D01*
X283350Y613768D01*
X283116Y615749D01*
X282804Y617720D01*
X282414Y619676D01*
X281949Y621616D01*
X281407Y623537D01*
X280791Y625434D01*
X280100Y627306D01*
X279337Y629149D01*
X278501Y630961D01*
X277595Y632739D01*
X276621Y634480D01*
X275578Y636181D01*
X274470Y637840D01*
X273297Y639454D01*
X272062Y641021D01*
X270766Y642538D01*
X269412Y644003D01*
X268001Y645414D01*
X266536Y646768D01*
X265019Y648064D01*
X263452Y649299D01*
X261838Y650472D01*
X260179Y651580D01*
X258478Y652623D01*
X256737Y653598D01*
X254959Y654503D01*
X253147Y655339D01*
X251304Y656102D01*
X249432Y656793D01*
X247535Y657409D01*
X245614Y657951D01*
X243674Y658417D01*
X241717Y658806D01*
X239747Y659118D01*
X237765Y659352D01*
X235776Y659509D01*
X233783Y659587D01*
X231788Y659587D01*
X229794Y659509D01*
X227805Y659352D01*
X225824Y659118D01*
X223853Y658806D01*
X221896Y658417D01*
X219956Y657951D01*
X218036Y657409D01*
X216138Y656793D01*
X214267Y656102D01*
X212423Y655339D01*
X210611Y654503D01*
X208834Y653598D01*
X207093Y652623D01*
X205392Y651580D01*
X203733Y650472D01*
X202119Y649299D01*
X200552Y648064D01*
X199035Y646768D01*
X197570Y645414D01*
X196159Y644003D01*
X194804Y642538D01*
X193509Y641021D01*
X192274Y639454D01*
X191101Y637840D01*
X189992Y636181D01*
X188950Y634480D01*
X187975Y632739D01*
X187069Y630961D01*
X186234Y629149D01*
X185470Y627306D01*
X184780Y625434D01*
X184163Y623537D01*
X183622Y621616D01*
X183156Y619676D01*
X182767Y617720D01*
X182455Y615749D01*
X182220Y613768D01*
X182064Y611779D01*
X181985Y609785D01*
X181985Y607790D01*
X182064Y605796D01*
X182220Y603807D01*
X182455Y601826D01*
X182767Y599855D01*
X183156Y597898D01*
X183622Y595958D01*
X184163Y594038D01*
X184780Y592141D01*
X185470Y590269D01*
X186234Y588425D01*
X187069Y586613D01*
X187975Y584836D01*
X188950Y583095D01*
X189992Y581394D01*
X191101Y579735D01*
X192274Y578121D01*
X193509Y576554D01*
X194804Y575037D01*
X196159Y573572D01*
X197570Y572161D01*
X199035Y570807D01*
X200552Y569511D01*
X202119Y568276D01*
X203733Y567103D01*
X205392Y565994D01*
X207093Y564952D01*
X208834Y563977D01*
X210611Y563071D01*
X212423Y562236D01*
X214267Y561472D01*
X216138Y560782D01*
X218036Y560165D01*
X219956Y559624D01*
X221896Y559158D01*
X223853Y558769D01*
X225824Y558457D01*
X227805Y558222D01*
X229794Y558066D01*
X231788Y557987D01*
X233783Y557987D01*
X235776Y558066D01*
X237765Y558222D01*
X239747Y558457D01*
X241717Y558769D01*
X243674Y559158D01*
X245614Y559624D01*
X247535Y560165D01*
X249432Y560782D01*
X251304Y561472D01*
X253147Y562236D01*
X254959Y563071D01*
X256737Y563977D01*
X258478Y564952D01*
X260179Y565994D01*
X261838Y567103D01*
X263452Y568276D01*
X265019Y569511D01*
X266536Y570807D01*
X268001Y572161D01*
X269412Y573572D01*
X270766Y575037D01*
X272062Y576554D01*
X273297Y578121D01*
X274470Y579735D01*
X275578Y581394D01*
X276621Y583095D01*
X277595Y584836D01*
X278501Y586613D01*
X279337Y588425D01*
X280100Y590269D01*
X280791Y592141D01*
X281407Y594038D01*
X281949Y595958D01*
X282414Y597898D01*
X282804Y599855D01*
X283116Y601826D01*
X283350Y603807D01*
X283507Y605796D01*
X283585Y607790D01*
X127840Y231788D02*
X127840Y233783D01*
X127762Y235776D01*
X127605Y237765D01*
X127371Y239747D01*
X127059Y241717D01*
X126669Y243674D01*
X126204Y245614D01*
X125662Y247535D01*
X125045Y249432D01*
X124355Y251304D01*
X123591Y253147D01*
X122756Y254959D01*
X121850Y256737D01*
X120875Y258478D01*
X119833Y260179D01*
X118724Y261838D01*
X117552Y263452D01*
X116317Y265019D01*
X115021Y266536D01*
X113666Y268001D01*
X112256Y269412D01*
X110791Y270766D01*
X109273Y272062D01*
X107707Y273297D01*
X106092Y274470D01*
X104434Y275578D01*
X102732Y276621D01*
X100992Y277595D01*
X99214Y278501D01*
X97402Y279337D01*
X95559Y280100D01*
X93687Y280791D01*
X91789Y281407D01*
X89869Y281949D01*
X87929Y282414D01*
X85972Y282804D01*
X84002Y283116D01*
X82020Y283350D01*
X80031Y283507D01*
X78038Y283585D01*
X76042Y283585D01*
X74049Y283507D01*
X72060Y283350D01*
X70078Y283116D01*
X68108Y282804D01*
X66151Y282414D01*
X64211Y281949D01*
X62291Y281407D01*
X60393Y280791D01*
X58521Y280100D01*
X56678Y279337D01*
X54866Y278501D01*
X53088Y277595D01*
X51348Y276621D01*
X49647Y275578D01*
X47988Y274470D01*
X46373Y273297D01*
X44807Y272062D01*
X43289Y270766D01*
X41824Y269412D01*
X40414Y268001D01*
X39059Y266536D01*
X37764Y265019D01*
X36528Y263452D01*
X35356Y261838D01*
X34247Y260179D01*
X33205Y258478D01*
X32230Y256737D01*
X31324Y254959D01*
X30489Y253147D01*
X29725Y251304D01*
X29035Y249432D01*
X28418Y247535D01*
X27877Y245614D01*
X27411Y243674D01*
X27022Y241717D01*
X26709Y239747D01*
X26475Y237765D01*
X26318Y235776D01*
X26240Y233783D01*
X26240Y231788D01*
X26318Y229794D01*
X26475Y227805D01*
X26709Y225824D01*
X27022Y223853D01*
X27411Y221896D01*
X27877Y219956D01*
X28418Y218036D01*
X29035Y216138D01*
X29725Y214267D01*
X30489Y212423D01*
X31324Y210611D01*
X32230Y208834D01*
X33205Y207093D01*
X34247Y205392D01*
X35356Y203733D01*
X36528Y202119D01*
X37764Y200552D01*
X39059Y199035D01*
X40414Y197570D01*
X41824Y196159D01*
X43289Y194804D01*
X44807Y193509D01*
X46373Y192274D01*
X47988Y191101D01*
X49647Y189992D01*
X51348Y188950D01*
X53088Y187975D01*
X54866Y187069D01*
X56678Y186234D01*
X58521Y185470D01*
X60393Y184780D01*
X62291Y184163D01*
X64211Y183622D01*
X66151Y183156D01*
X68108Y182767D01*
X70078Y182455D01*
X72060Y182220D01*
X74049Y182064D01*
X76042Y181985D01*
X78038Y181985D01*
X80031Y182064D01*
X82020Y182220D01*
X84002Y182455D01*
X85972Y182767D01*
X87929Y183156D01*
X89869Y183622D01*
X91789Y184163D01*
X93687Y184780D01*
X95559Y185470D01*
X97402Y186234D01*
X99214Y187069D01*
X100992Y187975D01*
X102732Y188950D01*
X104434Y189992D01*
X106092Y191101D01*
X107707Y192274D01*
X109273Y193509D01*
X110791Y194804D01*
X112256Y196159D01*
X113666Y197570D01*
X115021Y199035D01*
X116317Y200552D01*
X117552Y202119D01*
X118724Y203733D01*
X119833Y205392D01*
X120875Y207093D01*
X121850Y208834D01*
X122756Y210611D01*
X123591Y212423D01*
X124355Y214267D01*
X125045Y216138D01*
X125662Y218036D01*
X126204Y219956D01*
X126669Y221896D01*
X127059Y223853D01*
X127371Y225824D01*
X127605Y227805D01*
X127762Y229794D01*
X127840Y231788D01*
X245485Y76541D02*
X245485Y77539D01*
X245407Y78534D01*
X245251Y79520D01*
X245018Y80490D01*
X244709Y81439D01*
X244328Y82361D01*
X243874Y83250D01*
X243353Y84101D01*
X242766Y84909D01*
X242118Y85667D01*
X241413Y86373D01*
X240654Y87021D01*
X239846Y87608D01*
X238995Y88129D01*
X238106Y88582D01*
X237184Y88964D01*
X236235Y89273D01*
X235265Y89506D01*
X234279Y89662D01*
X233284Y89740D01*
X232286Y89740D01*
X231291Y89662D01*
X230306Y89506D01*
X229335Y89273D01*
X228386Y88964D01*
X227464Y88582D01*
X226575Y88129D01*
X225724Y87608D01*
X224917Y87021D01*
X224158Y86373D01*
X223452Y85667D01*
X222804Y84909D01*
X222217Y84101D01*
X221696Y83250D01*
X221243Y82361D01*
X220861Y81439D01*
X220553Y80490D01*
X220320Y79520D01*
X220164Y78534D01*
X220085Y77539D01*
X220085Y76541D01*
X220164Y75546D01*
X220320Y74560D01*
X220553Y73590D01*
X220861Y72641D01*
X221243Y71719D01*
X221696Y70830D01*
X222217Y69979D01*
X222804Y69171D01*
X223452Y68413D01*
X224158Y67707D01*
X224917Y67059D01*
X225724Y66472D01*
X226575Y65951D01*
X227464Y65498D01*
X228386Y65116D01*
X229335Y64807D01*
X230306Y64574D01*
X231291Y64418D01*
X232286Y64340D01*
X233284Y64340D01*
X234279Y64418D01*
X235265Y64574D01*
X236235Y64807D01*
X237184Y65116D01*
X238106Y65498D01*
X238995Y65951D01*
X239846Y66472D01*
X240654Y67059D01*
X241413Y67707D01*
X242118Y68413D01*
X242766Y69171D01*
X243353Y69979D01*
X243874Y70830D01*
X244328Y71719D01*
X244709Y72641D01*
X245018Y73590D01*
X245251Y74560D01*
X245407Y75546D01*
X245485Y76541D01*
X89740Y452543D02*
X89740Y453541D01*
X89662Y454536D01*
X89506Y455522D01*
X89273Y456492D01*
X88964Y457441D01*
X88582Y458363D01*
X88129Y459252D01*
X87608Y460103D01*
X87021Y460911D01*
X86373Y461670D01*
X85667Y462375D01*
X84909Y463023D01*
X84101Y463610D01*
X83250Y464131D01*
X82361Y464584D01*
X81439Y464966D01*
X80490Y465275D01*
X79520Y465508D01*
X78534Y465664D01*
X77539Y465742D01*
X76541Y465742D01*
X75546Y465664D01*
X74560Y465508D01*
X73590Y465275D01*
X72641Y464966D01*
X71719Y464584D01*
X70830Y464131D01*
X69979Y463610D01*
X69171Y463023D01*
X68413Y462375D01*
X67707Y461670D01*
X67059Y460911D01*
X66472Y460103D01*
X65951Y459252D01*
X65498Y458363D01*
X65116Y457441D01*
X64807Y456492D01*
X64574Y455522D01*
X64418Y454536D01*
X64340Y453541D01*
X64340Y452543D01*
X64418Y451548D01*
X64574Y450563D01*
X64807Y449592D01*
X65116Y448643D01*
X65498Y447721D01*
X65951Y446832D01*
X66472Y445981D01*
X67059Y445174D01*
X67707Y444415D01*
X68413Y443709D01*
X69171Y443061D01*
X69979Y442474D01*
X70830Y441953D01*
X71719Y441500D01*
X72641Y441118D01*
X73590Y440809D01*
X74560Y440577D01*
X75546Y440420D01*
X76541Y440342D01*
X77539Y440342D01*
X78534Y440420D01*
X79520Y440577D01*
X80490Y440809D01*
X81439Y441118D01*
X82361Y441500D01*
X83250Y441953D01*
X84101Y442474D01*
X84909Y443061D01*
X85667Y443709D01*
X86373Y444415D01*
X87021Y445174D01*
X87608Y445981D01*
X88129Y446832D01*
X88582Y447721D01*
X88964Y448643D01*
X89273Y449592D01*
X89506Y450563D01*
X89662Y451548D01*
X89740Y452543D01*
X438164Y341578D02*
X438164Y344250D01*
X438089Y346920D01*
X437939Y349588D01*
X437714Y352251D01*
X437415Y354906D01*
X437042Y357551D01*
X436594Y360186D01*
X436073Y362806D01*
X435478Y365411D01*
X434811Y367998D01*
X434071Y370566D01*
X433260Y373112D01*
X432377Y375634D01*
X431424Y378130D01*
X430402Y380598D01*
X429311Y383037D01*
X428151Y385445D01*
X426925Y387819D01*
X425632Y390157D01*
X424275Y392458D01*
X422853Y394721D01*
X421369Y396942D01*
X419823Y399122D01*
X418216Y401257D01*
X416550Y403346D01*
X414826Y405387D01*
X413046Y407379D01*
X411210Y409321D01*
X409321Y411210D01*
X407379Y413046D01*
X405387Y414826D01*
X403346Y416550D01*
X401257Y418216D01*
X399122Y419823D01*
X396942Y421369D01*
X394721Y422853D01*
X392458Y424275D01*
X390157Y425632D01*
X387819Y426925D01*
X385445Y428151D01*
X383037Y429311D01*
X380598Y430402D01*
X378130Y431424D01*
X375634Y432377D01*
X373112Y433260D01*
X370566Y434071D01*
X367998Y434811D01*
X365411Y435478D01*
X362806Y436073D01*
X360186Y436594D01*
X357551Y437042D01*
X354906Y437415D01*
X352251Y437714D01*
X349588Y437939D01*
X346920Y438089D01*
X344250Y438164D01*
X341578Y438164D01*
X338907Y438089D01*
X336239Y437939D01*
X333577Y437714D01*
X330921Y437415D01*
X328276Y437042D01*
X325642Y436594D01*
X323021Y436073D01*
X320416Y435478D01*
X317829Y434811D01*
X315261Y434071D01*
X312716Y433260D01*
X310194Y432377D01*
X307697Y431424D01*
X305229Y430402D01*
X302790Y429311D01*
X300383Y428151D01*
X298009Y426925D01*
X295670Y425632D01*
X293369Y424275D01*
X291106Y422853D01*
X288885Y421369D01*
X286706Y419823D01*
X284571Y418216D01*
X282482Y416550D01*
X280440Y414826D01*
X278448Y413046D01*
X276506Y411210D01*
X274617Y409321D01*
X272781Y407379D01*
X271001Y405387D01*
X269277Y403346D01*
X267611Y401257D01*
X266005Y399122D01*
X264458Y396942D01*
X262974Y394721D01*
X261552Y392458D01*
X260195Y390157D01*
X258902Y387819D01*
X257676Y385445D01*
X256517Y383037D01*
X255425Y380598D01*
X254403Y378130D01*
X253450Y375634D01*
X252567Y373112D01*
X251756Y370566D01*
X251016Y367998D01*
X250349Y365411D01*
X249754Y362806D01*
X249233Y360186D01*
X248786Y357551D01*
X248412Y354906D01*
X248113Y352251D01*
X247888Y349588D01*
X247739Y346920D01*
X247664Y344250D01*
X247664Y341578D01*
X247739Y338907D01*
X247888Y336239D01*
X248113Y333577D01*
X248412Y330921D01*
X248786Y328276D01*
X249233Y325642D01*
X249754Y323021D01*
X250349Y320416D01*
X251016Y317829D01*
X251756Y315261D01*
X252567Y312716D01*
X253450Y310194D01*
X254403Y307697D01*
X255425Y305229D01*
X256517Y302790D01*
X257676Y300383D01*
X258902Y298009D01*
X260195Y295670D01*
X261552Y293369D01*
X262974Y291106D01*
X264458Y288885D01*
X266005Y286706D01*
X267611Y284571D01*
X269277Y282482D01*
X271001Y280440D01*
X272781Y278448D01*
X274617Y276506D01*
X276506Y274617D01*
X278448Y272781D01*
X280440Y271001D01*
X282482Y269277D01*
X284571Y267611D01*
X286706Y266005D01*
X288885Y264458D01*
X291106Y262974D01*
X293369Y261552D01*
X295670Y260195D01*
X298009Y258902D01*
X300383Y257676D01*
X302790Y256517D01*
X305229Y255425D01*
X307697Y254403D01*
X310194Y253450D01*
X312716Y252567D01*
X315261Y251756D01*
X317829Y251016D01*
X320416Y250349D01*
X323021Y249754D01*
X325642Y249233D01*
X328276Y248786D01*
X330921Y248412D01*
X333577Y248113D01*
X336239Y247888D01*
X338907Y247739D01*
X341578Y247664D01*
X344250Y247664D01*
X346920Y247739D01*
X349588Y247888D01*
X352251Y248113D01*
X354906Y248412D01*
X357551Y248786D01*
X360186Y249233D01*
X362806Y249754D01*
X365411Y250349D01*
X367998Y251016D01*
X370566Y251756D01*
X373112Y252567D01*
X375634Y253450D01*
X378130Y254403D01*
X380598Y255425D01*
X383037Y256517D01*
X385445Y257676D01*
X387819Y258902D01*
X390157Y260195D01*
X392458Y261552D01*
X394721Y262974D01*
X396942Y264458D01*
X399122Y266005D01*
X401257Y267611D01*
X403346Y269277D01*
X405387Y271001D01*
X407379Y272781D01*
X409321Y274617D01*
X411210Y276506D01*
X413046Y278448D01*
X414826Y280440D01*
X416550Y282482D01*
X418216Y284571D01*
X419823Y286706D01*
X421369Y288885D01*
X422853Y291106D01*
X424275Y293369D01*
X425632Y295670D01*
X426925Y298009D01*
X428151Y300383D01*
X429311Y302790D01*
X430402Y305229D01*
X431424Y307697D01*
X432377Y310194D01*
X433260Y312716D01*
X434071Y315261D01*
X434811Y317829D01*
X435478Y320416D01*
X436073Y323021D01*
X436594Y325642D01*
X437042Y328276D01*
X437415Y330921D01*
X437714Y333577D01*
X437939Y336239D01*
X438089Y338907D01*
X438164Y341578D01*
X659587Y452045D02*
X659587Y454040D01*
X659509Y456033D01*
X659352Y458022D01*
X659118Y460004D01*
X658806Y461974D01*
X658417Y463931D01*
X657951Y465871D01*
X657409Y467791D01*
X656793Y469689D01*
X656102Y471561D01*
X655339Y473404D01*
X654503Y475216D01*
X653598Y476994D01*
X652623Y478734D01*
X651580Y480436D01*
X650472Y482095D01*
X649299Y483709D01*
X648064Y485276D01*
X646768Y486793D01*
X645414Y488258D01*
X644003Y489669D01*
X642538Y491023D01*
X641021Y492319D01*
X639454Y493554D01*
X637840Y494727D01*
X636181Y495835D01*
X634480Y496877D01*
X632739Y497852D01*
X630961Y498758D01*
X629149Y499593D01*
X627306Y500357D01*
X625434Y501048D01*
X623537Y501664D01*
X621616Y502206D01*
X619676Y502671D01*
X617720Y503061D01*
X615749Y503373D01*
X613768Y503607D01*
X611779Y503764D01*
X609785Y503842D01*
X607790Y503842D01*
X605796Y503764D01*
X603807Y503607D01*
X601826Y503373D01*
X599855Y503061D01*
X597898Y502671D01*
X595958Y502206D01*
X594038Y501664D01*
X592141Y501048D01*
X590269Y500357D01*
X588425Y499593D01*
X586613Y498758D01*
X584836Y497852D01*
X583095Y496877D01*
X581394Y495835D01*
X579735Y494727D01*
X578121Y493554D01*
X576554Y492319D01*
X575037Y491023D01*
X573572Y489669D01*
X572161Y488258D01*
X570807Y486793D01*
X569511Y485276D01*
X568276Y483709D01*
X567103Y482095D01*
X565994Y480436D01*
X564952Y478734D01*
X563977Y476994D01*
X563071Y475216D01*
X562236Y473404D01*
X561472Y471561D01*
X560782Y469689D01*
X560165Y467791D01*
X559624Y465871D01*
X559158Y463931D01*
X558769Y461974D01*
X558457Y460004D01*
X558222Y458022D01*
X558066Y456033D01*
X557987Y454040D01*
X557987Y452045D01*
X558066Y450051D01*
X558222Y448062D01*
X558457Y446081D01*
X558769Y444110D01*
X559158Y442153D01*
X559624Y440213D01*
X560165Y438293D01*
X560782Y436395D01*
X561472Y434523D01*
X562236Y432680D01*
X563071Y430868D01*
X563977Y429091D01*
X564952Y427350D01*
X565994Y425649D01*
X567103Y423990D01*
X568276Y422376D01*
X569511Y420809D01*
X570807Y419292D01*
X572161Y417826D01*
X573572Y416416D01*
X575037Y415061D01*
X576554Y413766D01*
X578121Y412530D01*
X579735Y411358D01*
X581394Y410249D01*
X583095Y409207D01*
X584836Y408232D01*
X586613Y407326D01*
X588425Y406491D01*
X590269Y405727D01*
X592141Y405037D01*
X594038Y404420D01*
X595958Y403879D01*
X597898Y403413D01*
X599855Y403024D01*
X601826Y402711D01*
X603807Y402477D01*
X605796Y402320D01*
X607790Y402242D01*
X609785Y402242D01*
X611779Y402320D01*
X613768Y402477D01*
X615749Y402711D01*
X617720Y403024D01*
X619676Y403413D01*
X621616Y403879D01*
X623537Y404420D01*
X625434Y405037D01*
X627306Y405727D01*
X629149Y406491D01*
X630961Y407326D01*
X632739Y408232D01*
X634480Y409207D01*
X636181Y410249D01*
X637840Y411358D01*
X639454Y412530D01*
X641021Y413766D01*
X642538Y415061D01*
X644003Y416416D01*
X645414Y417826D01*
X646768Y419292D01*
X648064Y420809D01*
X649299Y422376D01*
X650472Y423990D01*
X651580Y425649D01*
X652623Y427350D01*
X653598Y429091D01*
X654503Y430868D01*
X655339Y432680D01*
X656102Y434523D01*
X656793Y436395D01*
X657409Y438293D01*
X657951Y440213D01*
X658417Y442153D01*
X658806Y444110D01*
X659118Y446081D01*
X659352Y448062D01*
X659509Y450051D01*
X659587Y452045D01*
X503842Y76042D02*
X503842Y78038D01*
X503764Y80031D01*
X503607Y82020D01*
X503373Y84002D01*
X503061Y85972D01*
X502671Y87929D01*
X502206Y89869D01*
X501664Y91789D01*
X501048Y93687D01*
X500357Y95559D01*
X499593Y97402D01*
X498758Y99214D01*
X497852Y100992D01*
X496877Y102732D01*
X495835Y104434D01*
X494727Y106092D01*
X493554Y107707D01*
X492319Y109273D01*
X491023Y110791D01*
X489669Y112256D01*
X488258Y113666D01*
X486793Y115021D01*
X485276Y116317D01*
X483709Y117552D01*
X482095Y118724D01*
X480436Y119833D01*
X478734Y120875D01*
X476994Y121850D01*
X475216Y122756D01*
X473404Y123591D01*
X471561Y124355D01*
X469689Y125045D01*
X467791Y125662D01*
X465871Y126204D01*
X463931Y126669D01*
X461974Y127059D01*
X460004Y127371D01*
X458022Y127605D01*
X456033Y127762D01*
X454040Y127840D01*
X452045Y127840D01*
X450051Y127762D01*
X448062Y127605D01*
X446081Y127371D01*
X444110Y127059D01*
X442153Y126669D01*
X440213Y126204D01*
X438293Y125662D01*
X436395Y125045D01*
X434523Y124355D01*
X432680Y123591D01*
X430868Y122756D01*
X429091Y121850D01*
X427350Y120875D01*
X425649Y119833D01*
X423990Y118724D01*
X422376Y117552D01*
X420809Y116317D01*
X419292Y115021D01*
X417826Y113666D01*
X416416Y112256D01*
X415061Y110791D01*
X413766Y109273D01*
X412530Y107707D01*
X411358Y106092D01*
X410249Y104434D01*
X409207Y102732D01*
X408232Y100992D01*
X407326Y99214D01*
X406491Y97402D01*
X405727Y95559D01*
X405037Y93687D01*
X404420Y91789D01*
X403879Y89869D01*
X403413Y87929D01*
X403024Y85972D01*
X402711Y84002D01*
X402477Y82020D01*
X402320Y80031D01*
X402242Y78038D01*
X402242Y76042D01*
X402320Y74049D01*
X402477Y72060D01*
X402711Y70078D01*
X403024Y68108D01*
X403413Y66151D01*
X403879Y64211D01*
X404420Y62291D01*
X405037Y60393D01*
X405727Y58521D01*
X406491Y56678D01*
X407326Y54866D01*
X408232Y53088D01*
X409207Y51348D01*
X410249Y49647D01*
X411358Y47988D01*
X412530Y46373D01*
X413766Y44807D01*
X415061Y43289D01*
X416416Y41824D01*
X417826Y40414D01*
X419292Y39059D01*
X420809Y37764D01*
X422376Y36528D01*
X423990Y35356D01*
X425649Y34247D01*
X427350Y33205D01*
X429091Y32230D01*
X430868Y31324D01*
X432680Y30489D01*
X434523Y29725D01*
X436395Y29035D01*
X438293Y28418D01*
X440213Y27877D01*
X442153Y27411D01*
X444110Y27022D01*
X446081Y26709D01*
X448062Y26475D01*
X450051Y26318D01*
X452045Y26240D01*
X454040Y26240D01*
X456033Y26318D01*
X458022Y26475D01*
X460004Y26709D01*
X461974Y27022D01*
X463931Y27411D01*
X465871Y27877D01*
X467791Y28418D01*
X469689Y29035D01*
X471561Y29725D01*
X473404Y30489D01*
X475216Y31324D01*
X476994Y32230D01*
X478734Y33205D01*
X480436Y34247D01*
X482095Y35356D01*
X483709Y36528D01*
X485276Y37764D01*
X486793Y39059D01*
X488258Y40414D01*
X489669Y41824D01*
X491023Y43289D01*
X492319Y44807D01*
X493554Y46373D01*
X494727Y47988D01*
X495835Y49647D01*
X496877Y51348D01*
X497852Y53088D01*
X498758Y54866D01*
X499593Y56678D01*
X500357Y58521D01*
X501048Y60393D01*
X501664Y62291D01*
X502206Y64211D01*
X502671Y66151D01*
X503061Y68108D01*
X503373Y70078D01*
X503607Y72060D01*
X503764Y74049D01*
X503842Y76042D01*
M02*
