G04 EAGLE Gerber RS-274X export*
G75*
%MOMM*%
%FSLAX34Y34*%
%LPD*%
%INSilkscreen Bottom*%
%IPPOS*%
%AMOC8*
5,1,8,0,0,1.08239X$1,22.5*%
G01*
G04 Define Apertures*
%ADD10C,0.508000*%
D10*
X369522Y179200D02*
X369434Y179285D01*
X369344Y179367D01*
X369251Y179446D01*
X369155Y179522D01*
X369058Y179596D01*
X368957Y179665D01*
X368855Y179732D01*
X368751Y179795D01*
X368644Y179855D01*
X368536Y179912D01*
X368426Y179965D01*
X368314Y180014D01*
X368201Y180060D01*
X368086Y180102D01*
X367970Y180141D01*
X367853Y180175D01*
X367735Y180206D01*
X367616Y180234D01*
X367496Y180257D01*
X367376Y180276D01*
X367255Y180292D01*
X367133Y180304D01*
X367011Y180312D01*
X366889Y180316D01*
X366767Y180316D01*
X366645Y180312D01*
X366523Y180304D01*
X366401Y180292D01*
X366280Y180276D01*
X366160Y180257D01*
X366040Y180234D01*
X365921Y180206D01*
X365803Y180175D01*
X365686Y180141D01*
X365570Y180102D01*
X365455Y180060D01*
X365342Y180014D01*
X365230Y179965D01*
X365120Y179912D01*
X365012Y179855D01*
X364905Y179795D01*
X364801Y179732D01*
X364699Y179665D01*
X364598Y179596D01*
X364501Y179522D01*
X364405Y179446D01*
X364312Y179367D01*
X364222Y179285D01*
X364134Y179200D01*
X364049Y179112D01*
X363967Y179022D01*
X363888Y178929D01*
X363812Y178833D01*
X363738Y178736D01*
X363669Y178635D01*
X363602Y178533D01*
X363539Y178429D01*
X363479Y178322D01*
X363422Y178214D01*
X363369Y178104D01*
X363320Y177992D01*
X363274Y177879D01*
X363232Y177764D01*
X363193Y177648D01*
X363159Y177531D01*
X363128Y177413D01*
X363100Y177294D01*
X363077Y177174D01*
X363058Y177054D01*
X363042Y176933D01*
X363030Y176811D01*
X363022Y176689D01*
X363018Y176567D01*
X363018Y176445D01*
X363022Y176323D01*
X363030Y176201D01*
X363042Y176079D01*
X363058Y175958D01*
X363077Y175838D01*
X363100Y175718D01*
X363128Y175599D01*
X363159Y175481D01*
X363193Y175364D01*
X363232Y175248D01*
X363274Y175133D01*
X363320Y175020D01*
X363369Y174908D01*
X363422Y174798D01*
X363479Y174690D01*
X363539Y174583D01*
X363602Y174479D01*
X363669Y174377D01*
X363738Y174276D01*
X363812Y174179D01*
X363888Y174083D01*
X363967Y173990D01*
X364049Y173900D01*
X364134Y173812D01*
X364222Y173727D01*
X364312Y173645D01*
X364405Y173566D01*
X364501Y173490D01*
X364598Y173416D01*
X364699Y173347D01*
X364801Y173280D01*
X364905Y173217D01*
X365012Y173157D01*
X365120Y173100D01*
X365230Y173047D01*
X365342Y172998D01*
X365455Y172952D01*
X365570Y172910D01*
X365686Y172871D01*
X365803Y172837D01*
X365921Y172806D01*
X366040Y172778D01*
X366160Y172755D01*
X366280Y172736D01*
X366401Y172720D01*
X366523Y172708D01*
X366645Y172700D01*
X366767Y172696D01*
X366889Y172696D01*
X367011Y172700D01*
X367133Y172708D01*
X367255Y172720D01*
X367376Y172736D01*
X367496Y172755D01*
X367616Y172778D01*
X367735Y172806D01*
X367853Y172837D01*
X367970Y172871D01*
X368086Y172910D01*
X368201Y172952D01*
X368314Y172998D01*
X368426Y173047D01*
X368536Y173100D01*
X368644Y173157D01*
X368751Y173217D01*
X368855Y173280D01*
X368957Y173347D01*
X369058Y173416D01*
X369155Y173490D01*
X369251Y173566D01*
X369344Y173645D01*
X369434Y173727D01*
X369522Y173812D01*
X369607Y173900D01*
X369689Y173990D01*
X369768Y174083D01*
X369844Y174179D01*
X369918Y174276D01*
X369987Y174377D01*
X370054Y174479D01*
X370117Y174583D01*
X370177Y174690D01*
X370234Y174798D01*
X370287Y174908D01*
X370336Y175020D01*
X370382Y175133D01*
X370424Y175248D01*
X370463Y175364D01*
X370497Y175481D01*
X370528Y175599D01*
X370556Y175718D01*
X370579Y175838D01*
X370598Y175958D01*
X370614Y176079D01*
X370626Y176201D01*
X370634Y176323D01*
X370638Y176445D01*
X370638Y176567D01*
X370634Y176689D01*
X370626Y176811D01*
X370614Y176933D01*
X370598Y177054D01*
X370579Y177174D01*
X370556Y177294D01*
X370528Y177413D01*
X370497Y177531D01*
X370463Y177648D01*
X370424Y177764D01*
X370382Y177879D01*
X370336Y177992D01*
X370287Y178104D01*
X370234Y178214D01*
X370177Y178322D01*
X370117Y178429D01*
X370054Y178533D01*
X369987Y178635D01*
X369918Y178736D01*
X369844Y178833D01*
X369768Y178929D01*
X369689Y179022D01*
X369607Y179112D01*
X369522Y179200D01*
M02*
