G04 EAGLE Gerber RS-274X export*
G75*
%MOMM*%
%FSLAX34Y34*%
%LPD*%
%INSolderpaste Top*%
%IPPOS*%
%AMOC8*
5,1,8,0,0,1.08239X$1,22.5*%
G01*
G04 Define Apertures*
%ADD10R,0.800000X1.200000*%
%ADD11R,1.300000X2.150000*%
%ADD12R,1.200000X0.800000*%
%ADD13R,2.150000X1.300000*%
%ADD14R,0.330200X0.889000*%
%ADD15R,2.057400X0.838200*%
D10*
G36*
X550467Y162696D02*
X556124Y168353D01*
X564609Y159868D01*
X558952Y154211D01*
X550467Y162696D01*
G37*
G36*
X559306Y171535D02*
X564963Y177192D01*
X573448Y168707D01*
X567791Y163050D01*
X559306Y171535D01*
G37*
D11*
G36*
X548134Y134624D02*
X557326Y143816D01*
X572528Y128614D01*
X563336Y119422D01*
X548134Y134624D01*
G37*
G36*
X583843Y170333D02*
X593035Y179525D01*
X608237Y164323D01*
X599045Y155131D01*
X583843Y170333D01*
G37*
D12*
X623570Y323850D03*
X623570Y336350D03*
D13*
X646520Y304850D03*
X646520Y355350D03*
D10*
G36*
X534548Y539051D02*
X528891Y544708D01*
X537376Y553193D01*
X543033Y547536D01*
X534548Y539051D01*
G37*
G36*
X525709Y547889D02*
X520052Y553546D01*
X528537Y562031D01*
X534194Y556374D01*
X525709Y547889D01*
G37*
D11*
G36*
X562620Y536718D02*
X553428Y545910D01*
X568630Y561112D01*
X577822Y551920D01*
X562620Y536718D01*
G37*
G36*
X526911Y572426D02*
X517719Y581618D01*
X532921Y596820D01*
X542113Y587628D01*
X526911Y572426D01*
G37*
D10*
X358140Y621647D03*
X345640Y621647D03*
D11*
X377140Y644597D03*
X326640Y644597D03*
D10*
G36*
X155018Y533899D02*
X149361Y528242D01*
X140876Y536727D01*
X146533Y542384D01*
X155018Y533899D01*
G37*
G36*
X146179Y525060D02*
X140522Y519403D01*
X132037Y527888D01*
X137694Y533545D01*
X146179Y525060D01*
G37*
D11*
G36*
X157351Y561971D02*
X148159Y552779D01*
X132957Y567981D01*
X142149Y577173D01*
X157351Y561971D01*
G37*
G36*
X121642Y526262D02*
X112450Y517070D01*
X97248Y532272D01*
X106440Y541464D01*
X121642Y526262D01*
G37*
D12*
X62910Y367030D03*
X62910Y354530D03*
D13*
X39960Y386030D03*
X39960Y335530D03*
D10*
G36*
X153820Y142967D02*
X159477Y137310D01*
X150992Y128825D01*
X145335Y134482D01*
X153820Y142967D01*
G37*
G36*
X162659Y134128D02*
X168316Y128471D01*
X159831Y119986D01*
X154174Y125643D01*
X162659Y134128D01*
G37*
D11*
G36*
X125748Y145300D02*
X134940Y136108D01*
X119738Y120906D01*
X110546Y130098D01*
X125748Y145300D01*
G37*
G36*
X161457Y109591D02*
X170649Y100399D01*
X155447Y85197D01*
X146255Y94389D01*
X161457Y109591D01*
G37*
D10*
X336550Y62130D03*
X349050Y62130D03*
D11*
X317550Y39180D03*
X368050Y39180D03*
D14*
G36*
X331551Y147514D02*
X333886Y149849D01*
X340171Y143564D01*
X337836Y141229D01*
X331551Y147514D01*
G37*
G36*
X328015Y143978D02*
X330350Y146313D01*
X336635Y140028D01*
X334300Y137693D01*
X328015Y143978D01*
G37*
G36*
X324480Y140443D02*
X326815Y142778D01*
X333100Y136493D01*
X330765Y134158D01*
X324480Y140443D01*
G37*
G36*
X320944Y136907D02*
X323279Y139242D01*
X329564Y132957D01*
X327229Y130622D01*
X320944Y136907D01*
G37*
G36*
X317409Y133372D02*
X319744Y135707D01*
X326029Y129422D01*
X323694Y127087D01*
X317409Y133372D01*
G37*
G36*
X313873Y129836D02*
X316208Y132171D01*
X322493Y125886D01*
X320158Y123551D01*
X313873Y129836D01*
G37*
G36*
X310338Y126301D02*
X312673Y128636D01*
X318958Y122351D01*
X316623Y120016D01*
X310338Y126301D01*
G37*
G36*
X306802Y122765D02*
X309137Y125100D01*
X315422Y118815D01*
X313087Y116480D01*
X306802Y122765D01*
G37*
G36*
X303267Y119230D02*
X305602Y121565D01*
X311887Y115280D01*
X309552Y112945D01*
X303267Y119230D01*
G37*
G36*
X299731Y115694D02*
X302066Y118029D01*
X308351Y111744D01*
X306016Y109409D01*
X299731Y115694D01*
G37*
D15*
G36*
X329741Y169773D02*
X315194Y184320D01*
X321121Y190247D01*
X335668Y175700D01*
X329741Y169773D01*
G37*
G36*
X273880Y113912D02*
X259333Y128459D01*
X265260Y134386D01*
X279807Y119839D01*
X273880Y113912D01*
G37*
M02*
