G04 EAGLE Gerber RS-274X export*
G75*
%MOMM*%
%FSLAX34Y34*%
%LPD*%
%IN*%
%IPPOS*%
%AMOC8*
5,1,8,0,0,1.08239X$1,22.5*%
G01*
G04 Define Apertures*
%ADD10C,0.254000*%
D10*
X-375920Y-155711D02*
X-270306Y-261326D01*
X-269897Y-260951D01*
X-269458Y-260614D01*
X-268991Y-260316D01*
X-268499Y-260061D01*
X-267987Y-259849D01*
X-267459Y-259682D01*
X-266918Y-259562D01*
X-266369Y-259490D01*
X-265816Y-259466D01*
X-265262Y-259490D01*
X-264713Y-259562D01*
X-264172Y-259682D01*
X-263644Y-259849D01*
X-263132Y-260061D01*
X-262641Y-260316D01*
X-262173Y-260614D01*
X-261734Y-260951D01*
X-261326Y-261326D01*
X-260951Y-261734D01*
X-260614Y-262173D01*
X-260316Y-262641D01*
X-260061Y-263132D01*
X-259849Y-263644D01*
X-259682Y-264172D01*
X-259562Y-264713D01*
X-259490Y-265262D01*
X-259466Y-265816D01*
X-259490Y-266369D01*
X-259562Y-266918D01*
X-259682Y-267459D01*
X-259849Y-267987D01*
X-260061Y-268499D01*
X-260316Y-268991D01*
X-260614Y-269458D01*
X-260951Y-269897D01*
X-261326Y-270306D01*
X-205529Y-326102D01*
X-171979Y-292551D01*
X-168711Y-289557D01*
X-165195Y-286859D01*
X-161458Y-284478D01*
X-157527Y-282432D01*
X-153432Y-280736D01*
X-149206Y-279403D01*
X-144879Y-278444D01*
X-140485Y-277866D01*
X-136058Y-277672D01*
X-131630Y-277866D01*
X-127236Y-278444D01*
X-122910Y-279403D01*
X-118683Y-280736D01*
X-114589Y-282432D01*
X-110658Y-284478D01*
X-106920Y-286859D01*
X-103404Y-289557D01*
X-100137Y-292551D01*
X-97143Y-295819D01*
X-94445Y-299335D01*
X-92064Y-303072D01*
X-90017Y-307003D01*
X-88321Y-311098D01*
X-86989Y-315324D01*
X-86029Y-319651D01*
X-85451Y-324045D01*
X-85258Y-328472D01*
X-85258Y-375920D01*
X-6350Y-375920D01*
X-6326Y-375367D01*
X-6254Y-374817D01*
X-6134Y-374277D01*
X-5967Y-373748D01*
X-5755Y-373236D01*
X-5499Y-372745D01*
X-5202Y-372278D01*
X-4864Y-371838D01*
X-4490Y-371430D01*
X-4082Y-371056D01*
X-3642Y-370718D01*
X-3175Y-370421D01*
X-2684Y-370165D01*
X-2172Y-369953D01*
X-1644Y-369786D01*
X-1103Y-369666D01*
X-553Y-369594D01*
X0Y-369570D01*
X553Y-369594D01*
X1103Y-369666D01*
X1644Y-369786D01*
X2172Y-369953D01*
X2684Y-370165D01*
X3175Y-370421D01*
X3642Y-370718D01*
X4082Y-371056D01*
X4490Y-371430D01*
X4864Y-371838D01*
X5202Y-372278D01*
X5499Y-372745D01*
X5755Y-373236D01*
X5967Y-373748D01*
X6134Y-374277D01*
X6254Y-374817D01*
X6326Y-375367D01*
X6350Y-375920D01*
X155711Y-375920D01*
X261326Y-270306D01*
X260951Y-269897D01*
X260614Y-269458D01*
X260316Y-268991D01*
X260061Y-268499D01*
X259849Y-267987D01*
X259682Y-267459D01*
X259562Y-266918D01*
X259490Y-266369D01*
X259466Y-265816D01*
X259490Y-265262D01*
X259562Y-264713D01*
X259682Y-264172D01*
X259849Y-263644D01*
X260061Y-263132D01*
X260316Y-262641D01*
X260614Y-262173D01*
X260951Y-261734D01*
X261326Y-261326D01*
X261734Y-260951D01*
X262173Y-260614D01*
X262641Y-260316D01*
X263132Y-260061D01*
X263644Y-259849D01*
X264172Y-259682D01*
X264713Y-259562D01*
X265262Y-259490D01*
X265816Y-259466D01*
X266369Y-259490D01*
X266918Y-259562D01*
X267459Y-259682D01*
X267987Y-259849D01*
X268499Y-260061D01*
X268991Y-260316D01*
X269458Y-260614D01*
X269897Y-260951D01*
X270306Y-261326D01*
X326102Y-205529D01*
X292551Y-171979D01*
X289557Y-168711D01*
X286859Y-165195D01*
X284478Y-161458D01*
X282432Y-157527D01*
X280736Y-153432D01*
X279403Y-149206D01*
X278444Y-144879D01*
X277866Y-140485D01*
X277672Y-136058D01*
X277866Y-131630D01*
X278444Y-127236D01*
X279403Y-122910D01*
X280736Y-118683D01*
X282432Y-114589D01*
X284478Y-110658D01*
X286859Y-106920D01*
X289557Y-103404D01*
X292551Y-100137D01*
X295819Y-97143D01*
X299335Y-94445D01*
X303072Y-92064D01*
X307003Y-90017D01*
X311098Y-88321D01*
X315324Y-86989D01*
X319651Y-86029D01*
X324045Y-85451D01*
X328472Y-85258D01*
X375920Y-85258D01*
X375920Y-6350D01*
X375367Y-6326D01*
X374817Y-6254D01*
X374277Y-6134D01*
X373748Y-5967D01*
X373236Y-5755D01*
X372745Y-5499D01*
X372278Y-5202D01*
X371838Y-4864D01*
X371430Y-4490D01*
X371056Y-4082D01*
X370718Y-3642D01*
X370421Y-3175D01*
X370165Y-2684D01*
X369953Y-2172D01*
X369786Y-1644D01*
X369666Y-1103D01*
X369594Y-553D01*
X369570Y0D01*
X369594Y553D01*
X369666Y1103D01*
X369786Y1644D01*
X369953Y2172D01*
X370165Y2684D01*
X370421Y3175D01*
X370718Y3642D01*
X371056Y4082D01*
X371430Y4490D01*
X371838Y4864D01*
X372278Y5202D01*
X372745Y5499D01*
X373236Y5755D01*
X373748Y5967D01*
X374277Y6134D01*
X374817Y6254D01*
X375367Y6326D01*
X375920Y6350D01*
X375920Y155711D01*
X270306Y261326D01*
X269897Y260951D01*
X269458Y260614D01*
X268991Y260316D01*
X268499Y260061D01*
X267987Y259849D01*
X267459Y259682D01*
X266918Y259562D01*
X266369Y259490D01*
X265816Y259466D01*
X265262Y259490D01*
X264713Y259562D01*
X264172Y259682D01*
X263644Y259849D01*
X263132Y260061D01*
X262641Y260316D01*
X262173Y260614D01*
X261734Y260951D01*
X261326Y261326D01*
X260951Y261734D01*
X260614Y262173D01*
X260316Y262641D01*
X260061Y263132D01*
X259849Y263644D01*
X259682Y264172D01*
X259562Y264713D01*
X259490Y265262D01*
X259466Y265816D01*
X259490Y266369D01*
X259562Y266918D01*
X259682Y267459D01*
X259849Y267987D01*
X260061Y268499D01*
X260316Y268991D01*
X260614Y269458D01*
X260951Y269897D01*
X261326Y270306D01*
X205529Y326102D01*
X171979Y292551D01*
X168711Y289557D01*
X165195Y286859D01*
X161458Y284478D01*
X157527Y282432D01*
X153432Y280736D01*
X149206Y279403D01*
X144879Y278444D01*
X140485Y277866D01*
X136058Y277672D01*
X131630Y277866D01*
X127236Y278444D01*
X122910Y279403D01*
X118683Y280736D01*
X114589Y282432D01*
X110658Y284478D01*
X106920Y286859D01*
X103404Y289557D01*
X100137Y292551D01*
X97143Y295819D01*
X94445Y299335D01*
X92064Y303072D01*
X90017Y307003D01*
X88321Y311098D01*
X86989Y315324D01*
X86029Y319651D01*
X85451Y324045D01*
X85258Y328472D01*
X85258Y375920D01*
X6350Y375920D01*
X6326Y375367D01*
X6254Y374817D01*
X6134Y374277D01*
X5967Y373748D01*
X5755Y373236D01*
X5499Y372745D01*
X5202Y372278D01*
X4864Y371838D01*
X4490Y371430D01*
X4082Y371056D01*
X3642Y370718D01*
X3175Y370421D01*
X2684Y370165D01*
X2172Y369953D01*
X1644Y369786D01*
X1103Y369666D01*
X553Y369594D01*
X0Y369570D01*
X-553Y369594D01*
X-1103Y369666D01*
X-1644Y369786D01*
X-2172Y369953D01*
X-2684Y370165D01*
X-3175Y370421D01*
X-3642Y370718D01*
X-4082Y371056D01*
X-4490Y371430D01*
X-4864Y371838D01*
X-5202Y372278D01*
X-5499Y372745D01*
X-5755Y373236D01*
X-5967Y373748D01*
X-6134Y374277D01*
X-6254Y374817D01*
X-6326Y375367D01*
X-6350Y375920D01*
X-155711Y375920D01*
X-261326Y270306D01*
X-260951Y269897D01*
X-260614Y269458D01*
X-260316Y268991D01*
X-260061Y268499D01*
X-259849Y267987D01*
X-259682Y267459D01*
X-259562Y266918D01*
X-259490Y266369D01*
X-259466Y265816D01*
X-259490Y265262D01*
X-259562Y264713D01*
X-259682Y264172D01*
X-259849Y263644D01*
X-260061Y263132D01*
X-260316Y262641D01*
X-260614Y262173D01*
X-260951Y261734D01*
X-261326Y261326D01*
X-261734Y260951D01*
X-262173Y260614D01*
X-262641Y260316D01*
X-263132Y260061D01*
X-263644Y259849D01*
X-264172Y259682D01*
X-264713Y259562D01*
X-265262Y259490D01*
X-265816Y259466D01*
X-266369Y259490D01*
X-266918Y259562D01*
X-267459Y259682D01*
X-267987Y259849D01*
X-268499Y260061D01*
X-268991Y260316D01*
X-269458Y260614D01*
X-269897Y260951D01*
X-270306Y261326D01*
X-326102Y205529D01*
X-292551Y171979D01*
X-289557Y168711D01*
X-286859Y165195D01*
X-284478Y161458D01*
X-282432Y157527D01*
X-280736Y153432D01*
X-279403Y149206D01*
X-278444Y144879D01*
X-277866Y140485D01*
X-277672Y136058D01*
X-277866Y131630D01*
X-278444Y127236D01*
X-279403Y122910D01*
X-280736Y118683D01*
X-282432Y114589D01*
X-284478Y110658D01*
X-286859Y106920D01*
X-289557Y103404D01*
X-292551Y100137D01*
X-295819Y97143D01*
X-299335Y94445D01*
X-303072Y92064D01*
X-307003Y90017D01*
X-311098Y88321D01*
X-315324Y86989D01*
X-319651Y86029D01*
X-324045Y85451D01*
X-328472Y85258D01*
X-375920Y85258D01*
X-375920Y6350D01*
X-375367Y6326D01*
X-374817Y6254D01*
X-374277Y6134D01*
X-373748Y5967D01*
X-373236Y5755D01*
X-372745Y5499D01*
X-372278Y5202D01*
X-371838Y4864D01*
X-371430Y4490D01*
X-371056Y4082D01*
X-370718Y3642D01*
X-370421Y3175D01*
X-370165Y2684D01*
X-369953Y2172D01*
X-369786Y1644D01*
X-369666Y1103D01*
X-369594Y553D01*
X-369570Y0D01*
X-369594Y-553D01*
X-369666Y-1103D01*
X-369786Y-1644D01*
X-369953Y-2172D01*
X-370165Y-2684D01*
X-370421Y-3175D01*
X-370718Y-3642D01*
X-371056Y-4082D01*
X-371430Y-4490D01*
X-371838Y-4864D01*
X-372278Y-5202D01*
X-372745Y-5499D01*
X-373236Y-5755D01*
X-373748Y-5967D01*
X-374277Y-6134D01*
X-374817Y-6254D01*
X-375367Y-6326D01*
X-375920Y-6350D01*
X-375920Y-155711D01*
X-108654Y106865D02*
X-117554Y96988D01*
X-125560Y86374D01*
X-132610Y75102D01*
X-138651Y63258D01*
X-143637Y50933D01*
X-147529Y38221D01*
X-150299Y25217D01*
X-151925Y12022D01*
X-152395Y-1265D01*
X-151705Y-14543D01*
X-149860Y-27709D01*
X-146875Y-40665D01*
X-142771Y-53311D01*
X-137582Y-65552D01*
X-131345Y-77293D01*
X-124109Y-88446D01*
X-115928Y-98927D01*
X-106865Y-108654D01*
X-96988Y-117554D01*
X-86374Y-125560D01*
X-75102Y-132610D01*
X-63258Y-138651D01*
X-50933Y-143637D01*
X-38221Y-147529D01*
X-25217Y-150299D01*
X-12022Y-151925D01*
X1265Y-152395D01*
X14543Y-151705D01*
X27709Y-149860D01*
X40665Y-146875D01*
X53311Y-142771D01*
X65552Y-137582D01*
X77293Y-131345D01*
X88446Y-124109D01*
X98927Y-115928D01*
X108654Y-106865D01*
X117554Y-96988D01*
X125560Y-86374D01*
X132610Y-75102D01*
X138651Y-63258D01*
X143637Y-50933D01*
X147529Y-38221D01*
X150299Y-25217D01*
X151925Y-12022D01*
X152395Y-1265D01*
X153959Y187100D01*
X153724Y193743D01*
X152911Y200341D01*
X151526Y206843D01*
X149580Y213199D01*
X147087Y219361D01*
X144066Y225283D01*
X140541Y230919D01*
X136538Y236226D01*
X132088Y241165D01*
X127225Y245696D01*
X121985Y249787D01*
X116408Y253405D01*
X110537Y256523D01*
X104417Y259118D01*
X98094Y261170D01*
X91616Y262662D01*
X85033Y263585D01*
X78394Y263930D01*
X71750Y263695D01*
X65153Y262882D01*
X58651Y261497D01*
X52295Y259551D01*
X46132Y257058D01*
X40210Y254038D01*
X34575Y250512D01*
X29267Y246510D01*
X24329Y242059D01*
X23434Y241165D01*
X-108654Y106865D01*
X-320072Y-136660D02*
X-320072Y-135882D01*
X-320139Y-135106D01*
X-320275Y-134339D01*
X-320476Y-133587D01*
X-320742Y-132856D01*
X-321071Y-132150D01*
X-321461Y-131476D01*
X-321907Y-130838D01*
X-322408Y-130242D01*
X-322958Y-129691D01*
X-323554Y-129191D01*
X-324192Y-128744D01*
X-324866Y-128355D01*
X-325572Y-128026D01*
X-326303Y-127760D01*
X-327055Y-127558D01*
X-327822Y-127423D01*
X-328598Y-127355D01*
X-329376Y-127355D01*
X-330152Y-127423D01*
X-330918Y-127558D01*
X-331670Y-127760D01*
X-332402Y-128026D01*
X-333108Y-128355D01*
X-333782Y-128744D01*
X-334419Y-129191D01*
X-335016Y-129691D01*
X-335566Y-130242D01*
X-336067Y-130838D01*
X-336513Y-131476D01*
X-336903Y-132150D01*
X-337232Y-132856D01*
X-337498Y-133587D01*
X-337699Y-134339D01*
X-337834Y-135106D01*
X-337902Y-135882D01*
X-337902Y-136660D01*
X-337834Y-137436D01*
X-337699Y-138202D01*
X-337498Y-138954D01*
X-337232Y-139686D01*
X-336903Y-140391D01*
X-336513Y-141066D01*
X-336067Y-141703D01*
X-335566Y-142300D01*
X-335016Y-142850D01*
X-334419Y-143351D01*
X-333782Y-143797D01*
X-333108Y-144186D01*
X-332402Y-144515D01*
X-331670Y-144782D01*
X-330918Y-144983D01*
X-330152Y-145118D01*
X-329376Y-145186D01*
X-328598Y-145186D01*
X-327822Y-145118D01*
X-327055Y-144983D01*
X-326303Y-144782D01*
X-325572Y-144515D01*
X-324866Y-144186D01*
X-324192Y-143797D01*
X-323554Y-143351D01*
X-322958Y-142850D01*
X-322408Y-142300D01*
X-321907Y-141703D01*
X-321461Y-141066D01*
X-321071Y-140391D01*
X-320742Y-139686D01*
X-320476Y-138954D01*
X-320275Y-138202D01*
X-320139Y-137436D01*
X-320072Y-136660D01*
X145186Y-329376D02*
X145186Y-328598D01*
X145118Y-327822D01*
X144983Y-327055D01*
X144782Y-326303D01*
X144515Y-325572D01*
X144186Y-324866D01*
X143797Y-324192D01*
X143351Y-323554D01*
X142850Y-322958D01*
X142300Y-322408D01*
X141703Y-321907D01*
X141066Y-321461D01*
X140391Y-321071D01*
X139686Y-320742D01*
X138954Y-320476D01*
X138202Y-320275D01*
X137436Y-320139D01*
X136660Y-320072D01*
X135882Y-320072D01*
X135106Y-320139D01*
X134339Y-320275D01*
X133587Y-320476D01*
X132856Y-320742D01*
X132150Y-321071D01*
X131476Y-321461D01*
X130838Y-321907D01*
X130242Y-322408D01*
X129691Y-322958D01*
X129191Y-323554D01*
X128744Y-324192D01*
X128355Y-324866D01*
X128026Y-325572D01*
X127760Y-326303D01*
X127558Y-327055D01*
X127423Y-327822D01*
X127355Y-328598D01*
X127355Y-329376D01*
X127423Y-330152D01*
X127558Y-330918D01*
X127760Y-331670D01*
X128026Y-332402D01*
X128355Y-333108D01*
X128744Y-333782D01*
X129191Y-334419D01*
X129691Y-335016D01*
X130242Y-335566D01*
X130838Y-336067D01*
X131476Y-336513D01*
X132150Y-336903D01*
X132856Y-337232D01*
X133587Y-337498D01*
X134339Y-337699D01*
X135106Y-337834D01*
X135882Y-337902D01*
X136660Y-337902D01*
X137436Y-337834D01*
X138202Y-337699D01*
X138954Y-337498D01*
X139686Y-337232D01*
X140391Y-336903D01*
X141066Y-336513D01*
X141703Y-336067D01*
X142300Y-335566D01*
X142850Y-335016D01*
X143351Y-334419D01*
X143797Y-333782D01*
X144186Y-333108D01*
X144515Y-332402D01*
X144782Y-331670D01*
X144983Y-330918D01*
X145118Y-330152D01*
X145186Y-329376D01*
X-127355Y328598D02*
X-127355Y329376D01*
X-127423Y330152D01*
X-127558Y330918D01*
X-127760Y331670D01*
X-128026Y332402D01*
X-128355Y333108D01*
X-128744Y333782D01*
X-129191Y334419D01*
X-129691Y335016D01*
X-130242Y335566D01*
X-130838Y336067D01*
X-131476Y336513D01*
X-132150Y336903D01*
X-132856Y337232D01*
X-133587Y337498D01*
X-134339Y337699D01*
X-135106Y337834D01*
X-135882Y337902D01*
X-136660Y337902D01*
X-137436Y337834D01*
X-138202Y337699D01*
X-138954Y337498D01*
X-139686Y337232D01*
X-140391Y336903D01*
X-141066Y336513D01*
X-141703Y336067D01*
X-142300Y335566D01*
X-142850Y335016D01*
X-143351Y334419D01*
X-143797Y333782D01*
X-144186Y333108D01*
X-144515Y332402D01*
X-144782Y331670D01*
X-144983Y330918D01*
X-145118Y330152D01*
X-145186Y329376D01*
X-145186Y328598D01*
X-145118Y327822D01*
X-144983Y327055D01*
X-144782Y326303D01*
X-144515Y325572D01*
X-144186Y324866D01*
X-143797Y324192D01*
X-143351Y323554D01*
X-142850Y322958D01*
X-142300Y322408D01*
X-141703Y321907D01*
X-141066Y321461D01*
X-140391Y321071D01*
X-139686Y320742D01*
X-138954Y320476D01*
X-138202Y320275D01*
X-137436Y320139D01*
X-136660Y320072D01*
X-135882Y320072D01*
X-135106Y320139D01*
X-134339Y320275D01*
X-133587Y320476D01*
X-132856Y320742D01*
X-132150Y321071D01*
X-131476Y321461D01*
X-130838Y321907D01*
X-130242Y322408D01*
X-129691Y322958D01*
X-129191Y323554D01*
X-128744Y324192D01*
X-128355Y324866D01*
X-128026Y325572D01*
X-127760Y326303D01*
X-127558Y327055D01*
X-127423Y327822D01*
X-127355Y328598D01*
X337902Y135882D02*
X337902Y136660D01*
X337834Y137436D01*
X337699Y138202D01*
X337498Y138954D01*
X337232Y139686D01*
X336903Y140391D01*
X336513Y141066D01*
X336067Y141703D01*
X335566Y142300D01*
X335016Y142850D01*
X334419Y143351D01*
X333782Y143797D01*
X333108Y144186D01*
X332402Y144515D01*
X331670Y144782D01*
X330918Y144983D01*
X330152Y145118D01*
X329376Y145186D01*
X328598Y145186D01*
X327822Y145118D01*
X327055Y144983D01*
X326303Y144782D01*
X325572Y144515D01*
X324866Y144186D01*
X324192Y143797D01*
X323554Y143351D01*
X322958Y142850D01*
X322408Y142300D01*
X321907Y141703D01*
X321461Y141066D01*
X321071Y140391D01*
X320742Y139686D01*
X320476Y138954D01*
X320275Y138202D01*
X320139Y137436D01*
X320072Y136660D01*
X320072Y135882D01*
X320139Y135106D01*
X320275Y134339D01*
X320476Y133587D01*
X320742Y132856D01*
X321071Y132150D01*
X321461Y131476D01*
X321907Y130838D01*
X322408Y130242D01*
X322958Y129691D01*
X323554Y129191D01*
X324192Y128744D01*
X324866Y128355D01*
X325572Y128026D01*
X326303Y127760D01*
X327055Y127558D01*
X327822Y127423D01*
X328598Y127355D01*
X329376Y127355D01*
X330152Y127423D01*
X330918Y127558D01*
X331670Y127760D01*
X332402Y128026D01*
X333108Y128355D01*
X333782Y128744D01*
X334419Y129191D01*
X335016Y129691D01*
X335566Y130242D01*
X336067Y130838D01*
X336513Y131476D01*
X336903Y132150D01*
X337232Y132856D01*
X337498Y133587D01*
X337699Y134339D01*
X337834Y135106D01*
X337902Y135882D01*
M02*
