G04 EAGLE Gerber RS-274X export*
G75*
%MOMM*%
%FSLAX34Y34*%
%LPD*%
%INSoldermask Bottom*%
%IPPOS*%
%AMOC8*
5,1,8,0,0,1.08239X$1,22.5*%
G01*
G04 Define Apertures*
%ADD10R,1.733200X1.733200*%
%ADD11C,1.733200*%
%ADD12R,1.733200X1.733200*%
%ADD13C,2.108200*%
%ADD14C,0.959600*%
D10*
G36*
X-34431Y-193235D02*
X-18419Y-199867D01*
X-25051Y-215879D01*
X-41063Y-209247D01*
X-34431Y-193235D01*
G37*
D11*
X-39461Y-228024D03*
X-53207Y-194837D03*
X-62928Y-218303D03*
X-76674Y-185117D03*
X-86394Y-208583D03*
X-100140Y-175397D03*
X-109861Y-198863D03*
X-123607Y-165676D03*
X-133327Y-189143D03*
D12*
X15000Y-325120D03*
D11*
X-15000Y-325120D03*
D13*
X45000Y-344720D03*
X-45000Y-344720D03*
D10*
G36*
X252752Y-219283D02*
X240497Y-231538D01*
X228242Y-219283D01*
X240497Y-207028D01*
X252752Y-219283D01*
G37*
D11*
X219283Y-240497D03*
D13*
X275569Y-211929D03*
X211929Y-275569D03*
D12*
X325120Y15000D03*
D11*
X325120Y-15000D03*
D13*
X344720Y45000D03*
X344720Y-45000D03*
D10*
G36*
X219283Y252752D02*
X231538Y240497D01*
X219283Y228242D01*
X207028Y240497D01*
X219283Y252752D01*
G37*
D11*
X240497Y219283D03*
D13*
X211929Y275569D03*
X275569Y211929D03*
D12*
X-15000Y325120D03*
D11*
X15000Y325120D03*
D13*
X-45000Y344720D03*
X45000Y344720D03*
D10*
G36*
X-252752Y219283D02*
X-240497Y231538D01*
X-228242Y219283D01*
X-240497Y207028D01*
X-252752Y219283D01*
G37*
D11*
X-219283Y240497D03*
D13*
X-275569Y211929D03*
X-211929Y275569D03*
D12*
X-325120Y-15000D03*
D11*
X-325120Y15000D03*
D13*
X-344720Y-45000D03*
X-344720Y45000D03*
D10*
G36*
X-219283Y-252752D02*
X-231538Y-240497D01*
X-219283Y-228242D01*
X-207028Y-240497D01*
X-219283Y-252752D01*
G37*
D11*
X-240497Y-219283D03*
D13*
X-211929Y-275569D03*
X-275569Y-211929D03*
D14*
X-198120Y176907D03*
X198120Y220980D03*
X15000Y-256540D03*
M02*
