G04 EAGLE Gerber RS-274X export*
G75*
%MOMM*%
%FSLAX34Y34*%
%LPD*%
%INSoldermask Top*%
%IPPOS*%
%AMOC8*
5,1,8,0,0,1.08239X$1,22.5*%
G01*
G04 Define Apertures*
%ADD10C,3.479800*%
%ADD11R,0.762000X1.092200*%
%ADD12R,1.092200X0.762000*%
%ADD13R,1.701800X3.810000*%
%ADD14R,3.810000X1.701800*%
%ADD15C,2.082800*%
%ADD16P,2.2544X8X112.5*%
%ADD17R,1.103200X0.853200*%
%ADD18R,1.133200X0.993200*%
%ADD19R,0.993200X1.133200*%
%ADD20R,1.183200X1.063200*%
%ADD21R,1.253200X1.973200*%
%ADD22R,0.853200X1.103200*%
%ADD23R,1.603200X1.203200*%
%ADD24R,1.203200X1.603200*%
%ADD25C,0.306600*%
%ADD26R,1.733200X1.733200*%
%ADD27C,1.733200*%
%ADD28C,2.108200*%
%ADD29C,1.016000*%
D10*
X2042160Y189230D03*
X2042160Y736600D03*
X213360Y189230D03*
X213360Y736600D03*
D11*
X713762Y906780D03*
X732304Y906780D03*
D12*
X153670Y555879D03*
X153670Y574421D03*
X1267460Y903859D03*
X1267460Y922401D03*
D13*
X241300Y978154D03*
X241300Y895096D03*
D14*
X283464Y574040D03*
X200406Y574040D03*
D11*
X240919Y858520D03*
X259461Y858520D03*
D15*
X1593850Y786130D03*
X1593850Y760730D03*
X1593850Y850900D03*
X2214880Y83820D03*
X2214880Y109220D03*
X2214880Y134620D03*
X1910080Y83820D03*
X1910080Y109220D03*
X1910080Y134620D03*
X1602740Y83820D03*
X1602740Y109220D03*
X1602740Y134620D03*
X1297940Y83820D03*
X1297940Y109220D03*
X1297940Y134620D03*
X993140Y99060D03*
X993140Y124460D03*
X993140Y149860D03*
X688340Y99060D03*
X688340Y124460D03*
X688340Y149860D03*
X383540Y99060D03*
X383540Y124460D03*
X383540Y149860D03*
X78740Y99060D03*
X78740Y124460D03*
X78740Y149860D03*
X1191260Y236220D03*
X1216660Y236220D03*
X1242060Y236220D03*
X1165860Y236220D03*
X1267460Y718820D03*
X1292860Y718820D03*
X962660Y236220D03*
X988060Y236220D03*
X1013460Y236220D03*
X1038860Y236220D03*
X1064260Y236220D03*
X1089660Y236220D03*
X1115060Y236220D03*
X937260Y236220D03*
X911860Y718820D03*
X937260Y718820D03*
X962660Y718820D03*
X988060Y718820D03*
X1013460Y718820D03*
X886460Y718820D03*
X693420Y718820D03*
X820420Y718820D03*
X845820Y718820D03*
D16*
X1394460Y617220D03*
X1369060Y617220D03*
X1394460Y642620D03*
X1369060Y642620D03*
X1394460Y668020D03*
X1369060Y668020D03*
X1394460Y693420D03*
X1369060Y693420D03*
D15*
X1369060Y287020D03*
X1394460Y287020D03*
X861060Y236220D03*
X886460Y236220D03*
X835660Y236220D03*
D17*
X1223010Y951600D03*
X1223010Y966100D03*
D18*
X1199998Y776660D03*
X1199998Y793060D03*
D19*
X1155010Y777240D03*
X1138610Y777240D03*
D20*
X1178592Y761970D03*
X1178592Y777270D03*
D19*
X1166550Y836240D03*
X1182950Y836240D03*
D18*
X1112520Y836240D03*
X1112520Y819840D03*
D20*
X1143000Y820390D03*
X1143000Y835690D03*
D21*
X1110370Y1084580D03*
X1140070Y1084580D03*
D22*
X1165490Y927100D03*
X1150990Y927100D03*
D21*
X970670Y1084580D03*
X1000370Y1084580D03*
D22*
X983880Y854710D03*
X969380Y854710D03*
D21*
X830970Y1084580D03*
X860670Y1084580D03*
D17*
X830580Y899530D03*
X830580Y914030D03*
D21*
X691270Y1084580D03*
X720970Y1084580D03*
D17*
X643380Y919850D03*
X643380Y934350D03*
D18*
X623570Y804600D03*
X623570Y821000D03*
D19*
X671250Y805180D03*
X687650Y805180D03*
D20*
X650240Y820450D03*
X650240Y805150D03*
D18*
X604520Y779200D03*
X604520Y795600D03*
D19*
X653470Y778510D03*
X669870Y778510D03*
D20*
X628650Y763240D03*
X628650Y778540D03*
D21*
X1389770Y1084580D03*
X1419470Y1084580D03*
X551570Y1084580D03*
X581270Y1084580D03*
D22*
X585100Y902970D03*
X570600Y902970D03*
D21*
X411870Y1084580D03*
X441570Y1084580D03*
D22*
X425080Y805180D03*
X410580Y805180D03*
X1375780Y900430D03*
X1390280Y900430D03*
D21*
X1250070Y1084580D03*
X1279770Y1084580D03*
D23*
X1368220Y956310D03*
X1390220Y965810D03*
X1390220Y946810D03*
X1295762Y956310D03*
X1273762Y946810D03*
X1273762Y965810D03*
X1087550Y935990D03*
X1109550Y945490D03*
X1109550Y926490D03*
X947850Y895350D03*
X969850Y904850D03*
X969850Y885850D03*
X808150Y943610D03*
X830150Y953110D03*
X830150Y934110D03*
D24*
X673100Y957150D03*
X682600Y935150D03*
X663600Y935150D03*
D23*
X531290Y949960D03*
X553290Y959460D03*
X553290Y940460D03*
X389050Y838200D03*
X411050Y847700D03*
X411050Y828700D03*
D25*
X636047Y843093D02*
X650713Y843093D01*
X650713Y840027D01*
X636047Y840027D01*
X636047Y843093D01*
X636047Y842940D02*
X650713Y842940D01*
X650713Y849593D02*
X636047Y849593D01*
X650713Y849593D02*
X650713Y846527D01*
X636047Y846527D01*
X636047Y849593D01*
X636047Y849440D02*
X650713Y849440D01*
X650713Y856093D02*
X636047Y856093D01*
X650713Y856093D02*
X650713Y853027D01*
X636047Y853027D01*
X636047Y856093D01*
X636047Y855940D02*
X650713Y855940D01*
X650713Y862593D02*
X636047Y862593D01*
X650713Y862593D02*
X650713Y859527D01*
X636047Y859527D01*
X636047Y862593D01*
X636047Y862440D02*
X650713Y862440D01*
X650713Y869093D02*
X636047Y869093D01*
X650713Y869093D02*
X650713Y866027D01*
X636047Y866027D01*
X636047Y869093D01*
X636047Y868940D02*
X650713Y868940D01*
X650713Y875593D02*
X636047Y875593D01*
X650713Y875593D02*
X650713Y872527D01*
X636047Y872527D01*
X636047Y875593D01*
X636047Y875440D02*
X650713Y875440D01*
X650713Y882093D02*
X636047Y882093D01*
X650713Y882093D02*
X650713Y879027D01*
X636047Y879027D01*
X636047Y882093D01*
X636047Y881940D02*
X650713Y881940D01*
X593313Y882093D02*
X578647Y882093D01*
X593313Y882093D02*
X593313Y879027D01*
X578647Y879027D01*
X578647Y882093D01*
X578647Y881940D02*
X593313Y881940D01*
X593313Y875593D02*
X578647Y875593D01*
X593313Y875593D02*
X593313Y872527D01*
X578647Y872527D01*
X578647Y875593D01*
X578647Y875440D02*
X593313Y875440D01*
X593313Y869093D02*
X578647Y869093D01*
X593313Y869093D02*
X593313Y866027D01*
X578647Y866027D01*
X578647Y869093D01*
X578647Y868940D02*
X593313Y868940D01*
X593313Y862593D02*
X578647Y862593D01*
X593313Y862593D02*
X593313Y859527D01*
X578647Y859527D01*
X578647Y862593D01*
X578647Y862440D02*
X593313Y862440D01*
X593313Y856093D02*
X578647Y856093D01*
X593313Y856093D02*
X593313Y853027D01*
X578647Y853027D01*
X578647Y856093D01*
X578647Y855940D02*
X593313Y855940D01*
X593313Y849593D02*
X578647Y849593D01*
X593313Y849593D02*
X593313Y846527D01*
X578647Y846527D01*
X578647Y849593D01*
X578647Y849440D02*
X593313Y849440D01*
X593313Y843093D02*
X578647Y843093D01*
X593313Y843093D02*
X593313Y840027D01*
X578647Y840027D01*
X578647Y843093D01*
X578647Y842940D02*
X593313Y842940D01*
X1215167Y855793D02*
X1229833Y855793D01*
X1229833Y852727D01*
X1215167Y852727D01*
X1215167Y855793D01*
X1215167Y855640D02*
X1229833Y855640D01*
X1229833Y862293D02*
X1215167Y862293D01*
X1229833Y862293D02*
X1229833Y859227D01*
X1215167Y859227D01*
X1215167Y862293D01*
X1215167Y862140D02*
X1229833Y862140D01*
X1229833Y868793D02*
X1215167Y868793D01*
X1229833Y868793D02*
X1229833Y865727D01*
X1215167Y865727D01*
X1215167Y868793D01*
X1215167Y868640D02*
X1229833Y868640D01*
X1229833Y875293D02*
X1215167Y875293D01*
X1229833Y875293D02*
X1229833Y872227D01*
X1215167Y872227D01*
X1215167Y875293D01*
X1215167Y875140D02*
X1229833Y875140D01*
X1229833Y881793D02*
X1215167Y881793D01*
X1229833Y881793D02*
X1229833Y878727D01*
X1215167Y878727D01*
X1215167Y881793D01*
X1215167Y881640D02*
X1229833Y881640D01*
X1229833Y888293D02*
X1215167Y888293D01*
X1229833Y888293D02*
X1229833Y885227D01*
X1215167Y885227D01*
X1215167Y888293D01*
X1215167Y888140D02*
X1229833Y888140D01*
X1229833Y894793D02*
X1215167Y894793D01*
X1229833Y894793D02*
X1229833Y891727D01*
X1215167Y891727D01*
X1215167Y894793D01*
X1215167Y894640D02*
X1229833Y894640D01*
X1172433Y894793D02*
X1157767Y894793D01*
X1172433Y894793D02*
X1172433Y891727D01*
X1157767Y891727D01*
X1157767Y894793D01*
X1157767Y894640D02*
X1172433Y894640D01*
X1172433Y888293D02*
X1157767Y888293D01*
X1172433Y888293D02*
X1172433Y885227D01*
X1157767Y885227D01*
X1157767Y888293D01*
X1157767Y888140D02*
X1172433Y888140D01*
X1172433Y881793D02*
X1157767Y881793D01*
X1172433Y881793D02*
X1172433Y878727D01*
X1157767Y878727D01*
X1157767Y881793D01*
X1157767Y881640D02*
X1172433Y881640D01*
X1172433Y875293D02*
X1157767Y875293D01*
X1172433Y875293D02*
X1172433Y872227D01*
X1157767Y872227D01*
X1157767Y875293D01*
X1157767Y875140D02*
X1172433Y875140D01*
X1172433Y868793D02*
X1157767Y868793D01*
X1172433Y868793D02*
X1172433Y865727D01*
X1157767Y865727D01*
X1157767Y868793D01*
X1157767Y868640D02*
X1172433Y868640D01*
X1172433Y862293D02*
X1157767Y862293D01*
X1172433Y862293D02*
X1172433Y859227D01*
X1157767Y859227D01*
X1157767Y862293D01*
X1157767Y862140D02*
X1172433Y862140D01*
X1172433Y855793D02*
X1157767Y855793D01*
X1172433Y855793D02*
X1172433Y852727D01*
X1157767Y852727D01*
X1157767Y855793D01*
X1157767Y855640D02*
X1172433Y855640D01*
D26*
X106680Y909320D03*
D27*
X106680Y879320D03*
D28*
X87080Y939320D03*
X87080Y849320D03*
D26*
X106680Y604520D03*
D27*
X106680Y574520D03*
D28*
X87080Y634520D03*
X87080Y544520D03*
D26*
X1534160Y850900D03*
D27*
X1534160Y820900D03*
X1534160Y790900D03*
X1534160Y760900D03*
D28*
X1514560Y880900D03*
X1514560Y730900D03*
D26*
X1452880Y850900D03*
D27*
X1452880Y820900D03*
X1452880Y790900D03*
X1452880Y760900D03*
D28*
X1433280Y880900D03*
X1433280Y730900D03*
D26*
X1389380Y1021080D03*
D27*
X1419380Y1021080D03*
D28*
X1359380Y1001480D03*
X1449380Y1001480D03*
D26*
X1249680Y1021080D03*
D27*
X1279680Y1021080D03*
D28*
X1219680Y1001480D03*
X1309680Y1001480D03*
D26*
X1109980Y1021080D03*
D27*
X1139980Y1021080D03*
D28*
X1079980Y1001480D03*
X1169980Y1001480D03*
D26*
X970280Y1021080D03*
D27*
X1000280Y1021080D03*
D28*
X940280Y1001480D03*
X1030280Y1001480D03*
D26*
X830580Y1021080D03*
D27*
X860580Y1021080D03*
D28*
X800580Y1001480D03*
X890580Y1001480D03*
D26*
X690880Y1021080D03*
D27*
X720880Y1021080D03*
D28*
X660880Y1001480D03*
X750880Y1001480D03*
D26*
X551180Y1021080D03*
D27*
X581180Y1021080D03*
D28*
X521180Y1001480D03*
X611180Y1001480D03*
D26*
X411480Y1021080D03*
D27*
X441480Y1021080D03*
D28*
X381480Y1001480D03*
X471480Y1001480D03*
D26*
X106680Y464820D03*
D27*
X106680Y434820D03*
D28*
X87080Y494820D03*
X87080Y404820D03*
D26*
X106680Y1049020D03*
D27*
X106680Y1019020D03*
D28*
X87080Y1079020D03*
X87080Y989020D03*
D29*
X1896110Y298200D03*
X1780540Y454660D03*
X1473200Y584200D03*
X1244600Y472440D03*
X1485900Y571500D03*
X1257300Y454660D03*
X1617980Y665480D03*
X1617980Y395630D03*
X1258570Y588010D03*
X1283215Y547370D03*
X1309370Y586740D03*
X1874520Y546100D03*
X1874520Y344420D03*
X1874520Y904240D03*
X1874520Y711450D03*
X713740Y942340D03*
X1334770Y904240D03*
X1295400Y922020D03*
X1087120Y922020D03*
X532130Y922020D03*
X947420Y922020D03*
X652780Y957580D03*
X807720Y922020D03*
X1366520Y934720D03*
X1249680Y946810D03*
X1282700Y872490D03*
X1141730Y870954D03*
X787400Y939800D03*
X709930Y858520D03*
X558800Y862584D03*
M02*
