G04 EAGLE Gerber RS-274X export*
G75*
%MOMM*%
%FSLAX34Y34*%
%LPD*%
%INSolderpaste Bottom*%
%IPPOS*%
%AMOC8*
5,1,8,0,0,1.08239X$1,22.5*%
G01*
G04 Define Apertures*
%ADD10R,3.606800X1.498600*%
%ADD11R,0.558800X0.889000*%
%ADD12R,0.889000X0.558800*%
%ADD13R,0.457200X0.838200*%
%ADD14R,0.838200X0.457200*%
%ADD15R,1.422400X0.558800*%
%ADD16R,0.930000X0.790000*%
%ADD17R,0.790000X0.930000*%
%ADD18R,0.860000X0.980000*%
%ADD19R,0.980000X0.860000*%
%ADD20R,0.558800X1.422400*%
%ADD21R,2.235000X1.219000*%
%ADD22R,2.200000X3.600000*%
%ADD23R,1.400000X1.000000*%
%ADD24R,1.520000X2.160000*%
%ADD25R,0.889000X0.330200*%
%ADD26R,2.057400X0.838200*%
D10*
X283464Y434340D03*
X200406Y434340D03*
X283464Y1018540D03*
X200406Y1018540D03*
D11*
X159131Y1092200D03*
X140589Y1092200D03*
D12*
X153670Y416179D03*
X153670Y434721D03*
D13*
X2121662Y415290D03*
X2148078Y415290D03*
X2076958Y412750D03*
X2050542Y412750D03*
D14*
X1870710Y408178D03*
X1870710Y381762D03*
D13*
X1904238Y501650D03*
X1877822Y501650D03*
X1880108Y595630D03*
X1853692Y595630D03*
X1881378Y688340D03*
X1854962Y688340D03*
X1880108Y788670D03*
X1853692Y788670D03*
X2153412Y722630D03*
X2179828Y722630D03*
D15*
X1827784Y609600D03*
X1827784Y596900D03*
X1827784Y584200D03*
X1827784Y571500D03*
X1827784Y558800D03*
X1827784Y546100D03*
X1827784Y533400D03*
X1827784Y520700D03*
X1756156Y520700D03*
X1756156Y533400D03*
X1756156Y546100D03*
X1756156Y558800D03*
X1756156Y571500D03*
X1756156Y584200D03*
X1756156Y596900D03*
X1756156Y609600D03*
D16*
X1141730Y837620D03*
X1141730Y854020D03*
D17*
X1115640Y814070D03*
X1099240Y814070D03*
D18*
X1157228Y814298D03*
X1141928Y814298D03*
D15*
X1581404Y584200D03*
X1581404Y571500D03*
X1581404Y558800D03*
X1581404Y546100D03*
X1581404Y533400D03*
X1581404Y520700D03*
X1581404Y508000D03*
X1581404Y495300D03*
X1509776Y495300D03*
X1509776Y508000D03*
X1509776Y520700D03*
X1509776Y533400D03*
X1509776Y546100D03*
X1509776Y558800D03*
X1509776Y571500D03*
X1509776Y584200D03*
D17*
X725750Y833120D03*
X709350Y833120D03*
X798250Y833120D03*
X814650Y833120D03*
D19*
X763270Y817850D03*
X763270Y833150D03*
D20*
X1245115Y567416D03*
X1257815Y567416D03*
X1270515Y567416D03*
X1283215Y567416D03*
X1295915Y567416D03*
X1308615Y567416D03*
X1321315Y567416D03*
X1334015Y567416D03*
X1334015Y495788D03*
X1321315Y495788D03*
X1308615Y495788D03*
X1295915Y495788D03*
X1283215Y495788D03*
X1270515Y495788D03*
X1257815Y495788D03*
X1245115Y495788D03*
D17*
X671558Y769620D03*
X655158Y769620D03*
X711890Y745490D03*
X728290Y745490D03*
D19*
X711200Y784890D03*
X711200Y769590D03*
D16*
X1256030Y855400D03*
X1256030Y871800D03*
X1214120Y807030D03*
X1214120Y790630D03*
D18*
X1198850Y855980D03*
X1214150Y855980D03*
D21*
X1908300Y858270D03*
X1908300Y881380D03*
X1908300Y904490D03*
D22*
X1970280Y881380D03*
D23*
X1724162Y714350D03*
X1702162Y723850D03*
X1702162Y704850D03*
X1691210Y675208D03*
X1669210Y684708D03*
X1669210Y665708D03*
X1658190Y637540D03*
X1636190Y647040D03*
X1636190Y628040D03*
X1659460Y511810D03*
X1637460Y521310D03*
X1637460Y502310D03*
X1688670Y476250D03*
X1666670Y485750D03*
X1666670Y466750D03*
X1724230Y441960D03*
X1702230Y451460D03*
X1702230Y432460D03*
X1755980Y405130D03*
X1733980Y414630D03*
X1733980Y395630D03*
D21*
X1971550Y811780D03*
X1971550Y788670D03*
X1971550Y765560D03*
D22*
X1909570Y788670D03*
D21*
X1926080Y665230D03*
X1926080Y688340D03*
X1926080Y711450D03*
D22*
X1988060Y688340D03*
D21*
X1975360Y618740D03*
X1975360Y595630D03*
X1975360Y572520D03*
D22*
X1913380Y595630D03*
D21*
X1952750Y478540D03*
X1952750Y501650D03*
X1952750Y524760D03*
D22*
X2014730Y501650D03*
D21*
X1972121Y431673D03*
X1972121Y408563D03*
X1972121Y385453D03*
D22*
X1910141Y408563D03*
D21*
X1928620Y298200D03*
X1928620Y321310D03*
X1928620Y344420D03*
D22*
X1990600Y321310D03*
D21*
X1875280Y206760D03*
X1875280Y229870D03*
X1875280Y252980D03*
D22*
X1937260Y229870D03*
D23*
X1755980Y752392D03*
X1733980Y761892D03*
X1733980Y742892D03*
D24*
X1242060Y80620D03*
X1216660Y80620D03*
X1191260Y80620D03*
X1165860Y80620D03*
X1165860Y163220D03*
X1191260Y163220D03*
X1216660Y163220D03*
X1242060Y163220D03*
D25*
X2191218Y615641D03*
X2191218Y610641D03*
X2191218Y605641D03*
X2191218Y600641D03*
X2191218Y595641D03*
X2191218Y590641D03*
X2191218Y585641D03*
X2191218Y580641D03*
X2191218Y575641D03*
X2191218Y570641D03*
D26*
X2222968Y632641D03*
X2222968Y553641D03*
M02*
