M48
;GenerationSoftware,Autodesk,EAGLE,9.7.0*%
;CreationDate,2023-05-09T19:02:20Z*%
FMAT,2
ICI,OFF
METRIC,TZ,000.000
T3C0.350
T2C1.020
T1C1.270
%
G90
M71
T1
X4500Y-34472
X27557Y21193
X34472Y-4500
X34472Y4500
X-4500Y-34472
X-27557Y-21193
X21193Y27557
X21193Y-27557
X27557Y-21193
X-4500Y34472
X4500Y34472
X-34472Y-4500
X-27557Y21193
X-21193Y27557
X-34472Y4500
X-21193Y-27557
T2
X-12361Y-16568
X-13333Y-18914
X1500Y-32512
X-1500Y-32512
X21928Y-24050
X32512Y1500
X-10986Y-19886
X21928Y24050
X24050Y21928
X32512Y-1500
X-1500Y32512
X1500Y32512
X-5321Y-19484
X-2974Y-20456
X-24050Y21928
X-3946Y-22802
X-6293Y-21830
X-7667Y-18512
X-32512Y-1500
X-32512Y1500
X24050Y-21928
X-8639Y-20858
X-21928Y-24050
X-24050Y-21928
X-10014Y-17540
X-21928Y24050
T3
X-19812Y17691
X19812Y22098
X1500Y-25654
M30